<svg width="46" height="105" viewBox="0 0 46 105" fill="none" xmlns="http://www.w3.org/2000/svg">
<path d="M18.202 13.55H24.852V59.4H18.202V13.55ZM23.252 31.15H34.352V36.6H23.252V31.15Z" fill="black"/>
<path d="M11.9189 100.72C10.6122 99.4667 9.60557 97.8733 8.89891 95.94C8.20557 94.0067 7.85891 91.9333 7.85891 89.72C7.85891 87.4533 8.23224 85.3133 8.97891 83.3C9.73891 81.2867 10.8522 79.6267 12.3189 78.32H14.6789V78.54C13.1456 79.9533 11.9922 81.6467 11.2189 83.62C10.4456 85.5933 10.0589 87.6267 10.0589 89.72C10.0589 91.7333 10.4189 93.68 11.1389 95.56C11.8589 97.44 12.9056 99.0867 14.2789 100.5V100.72H11.9189ZM15.9627 91.44C15.9627 90.3333 16.1893 89.3533 16.6427 88.5C17.1093 87.6467 17.736 86.9867 18.5227 86.52C19.3227 86.04 20.2027 85.8 21.1627 85.8C22.0293 85.8 22.7827 85.9733 23.4227 86.32C24.076 86.6533 24.596 87.0733 24.9827 87.58V85.98H27.2827V97H24.9827V95.36C24.596 95.88 24.0693 96.3133 23.4027 96.66C22.736 97.0067 21.976 97.18 21.1227 97.18C20.176 97.18 19.3093 96.94 18.5227 96.46C17.736 95.9667 17.1093 95.2867 16.6427 94.42C16.1893 93.54 15.9627 92.5467 15.9627 91.44ZM24.9827 91.48C24.9827 90.72 24.8227 90.06 24.5027 89.5C24.196 88.94 23.7893 88.5133 23.2827 88.22C22.776 87.9267 22.2293 87.78 21.6427 87.78C21.056 87.78 20.5093 87.9267 20.0027 88.22C19.496 88.5 19.0827 88.92 18.7627 89.48C18.456 90.0267 18.3027 90.68 18.3027 91.44C18.3027 92.2 18.456 92.8667 18.7627 93.44C19.0827 94.0133 19.496 94.4533 20.0027 94.76C20.5227 95.0533 21.0693 95.2 21.6427 95.2C22.2293 95.2 22.776 95.0533 23.2827 94.76C23.7893 94.4667 24.196 94.04 24.5027 93.48C24.8227 92.9067 24.9827 92.24 24.9827 91.48ZM29.7173 100.72V100.5C31.0907 99.0867 32.1373 97.44 32.8573 95.56C33.5773 93.68 33.9373 91.7333 33.9373 89.72C33.9373 87.6267 33.5507 85.5933 32.7773 83.62C32.004 81.6467 30.8507 79.9533 29.3173 78.54V78.32H31.6773C33.144 79.6267 34.2507 81.2867 34.9973 83.3C35.7573 85.3133 36.1373 87.4533 36.1373 89.72C36.1373 91.9333 35.784 94.0067 35.0773 95.94C34.384 97.8733 33.384 99.4667 32.0773 100.72H29.7173Z" fill="black"/>
</svg>
