<svg width="47" height="105" viewBox="0 0 47 105" fill="none" xmlns="http://www.w3.org/2000/svg">
<path d="M27.352 13.45H33.652V59.3H27.352V13.45ZM19.752 30.75H29.452V36.15H19.752V30.75ZM15.202 14.2H21.452V57.55H15.202V14.2Z" fill="black"/>
<path d="M6.74703 100.72C5.44036 99.4667 4.4337 97.8733 3.72703 95.94C3.0337 94.0067 2.68703 91.9333 2.68703 89.72C2.68703 87.4533 3.06036 85.3133 3.80703 83.3C4.56703 81.2867 5.68036 79.6267 7.14703 78.32H9.50703V78.54C7.9737 79.9533 6.82037 81.6467 6.04703 83.62C5.2737 85.5933 4.88703 87.6267 4.88703 89.72C4.88703 91.7333 5.24703 93.68 5.96703 95.56C6.68703 97.44 7.7337 99.0867 9.10703 100.5V100.72H6.74703ZM10.7908 91.44C10.7908 90.3333 11.0174 89.3533 11.4708 88.5C11.9374 87.6467 12.5641 86.9867 13.3508 86.52C14.1508 86.04 15.0308 85.8 15.9908 85.8C16.8574 85.8 17.6108 85.9733 18.2508 86.32C18.9041 86.6533 19.4241 87.0733 19.8108 87.58V85.98H22.1108V97H19.8108V95.36C19.4241 95.88 18.8974 96.3133 18.2308 96.66C17.5641 97.0067 16.8041 97.18 15.9508 97.18C15.0041 97.18 14.1374 96.94 13.3508 96.46C12.5641 95.9667 11.9374 95.2867 11.4708 94.42C11.0174 93.54 10.7908 92.5467 10.7908 91.44ZM19.8108 91.48C19.8108 90.72 19.6508 90.06 19.3308 89.5C19.0241 88.94 18.6174 88.5133 18.1108 88.22C17.6041 87.9267 17.0574 87.78 16.4708 87.78C15.8841 87.78 15.3374 87.9267 14.8308 88.22C14.3241 88.5 13.9108 88.92 13.5908 89.48C13.2841 90.0267 13.1308 90.68 13.1308 91.44C13.1308 92.2 13.2841 92.8667 13.5908 93.44C13.9108 94.0133 14.3241 94.4533 14.8308 94.76C15.3508 95.0533 15.8974 95.2 16.4708 95.2C17.0574 95.2 17.6041 95.0533 18.1108 94.76C18.6174 94.4667 19.0241 94.04 19.3308 93.48C19.6508 92.9067 19.8108 92.24 19.8108 91.48ZM35.2055 91.22C35.2055 91.6333 35.1788 92.0067 35.1255 92.34H26.7055C26.7721 93.22 27.0988 93.9267 27.6855 94.46C28.2721 94.9933 28.9921 95.26 29.8455 95.26C31.0721 95.26 31.9388 94.7467 32.4455 93.72H34.9055C34.5721 94.7333 33.9655 95.5667 33.0855 96.22C32.2188 96.86 31.1388 97.18 29.8455 97.18C28.7921 97.18 27.8455 96.9467 27.0055 96.48C26.1788 96 25.5255 95.3333 25.0455 94.48C24.5788 93.6133 24.3455 92.6133 24.3455 91.48C24.3455 90.3467 24.5721 89.3533 25.0255 88.5C25.4921 87.6333 26.1388 86.9667 26.9655 86.5C27.8055 86.0333 28.7655 85.8 29.8455 85.8C30.8855 85.8 31.8121 86.0267 32.6255 86.48C33.4388 86.9333 34.0721 87.5733 34.5255 88.4C34.9788 89.2133 35.2055 90.1533 35.2055 91.22ZM32.8255 90.5C32.8121 89.66 32.5121 88.9867 31.9255 88.48C31.3388 87.9733 30.6121 87.72 29.7455 87.72C28.9588 87.72 28.2855 87.9733 27.7255 88.48C27.1655 88.9733 26.8321 89.6467 26.7255 90.5H32.8255ZM36.8892 100.72V100.5C38.2626 99.0867 39.3092 97.44 40.0292 95.56C40.7492 93.68 41.1092 91.7333 41.1092 89.72C41.1092 87.6267 40.7226 85.5933 39.9492 83.62C39.1759 81.6467 38.0226 79.9533 36.4892 78.54V78.32H38.8492C40.3159 79.6267 41.4226 81.2867 42.1692 83.3C42.9292 85.3133 43.3092 87.4533 43.3092 89.72C43.3092 91.9333 42.9559 94.0067 42.2492 95.94C41.5559 97.8733 40.5559 99.4667 39.2492 100.72H36.8892Z" fill="black"/>
</svg>
