<svg width="46" height="105" viewBox="0 0 46 105" fill="none" xmlns="http://www.w3.org/2000/svg">
<path d="M27.852 13.45H34.202V59.3H27.852V13.45ZM11.352 30.7H20.702V36.15H11.352V30.7ZM17.952 14.3H24.202V57.85H17.952V14.3Z" fill="black"/>
<path d="M14.0244 100.72C12.7177 99.4667 11.711 97.8733 11.0044 95.94C10.311 94.0067 9.96438 91.9333 9.96438 89.72C9.96438 87.4533 10.3377 85.3133 11.0844 83.3C11.8444 81.2867 12.9577 79.6267 14.4244 78.32H16.7844V78.54C15.251 79.9533 14.0977 81.6467 13.3244 83.62C12.551 85.5933 12.1644 87.6267 12.1644 89.72C12.1644 91.7333 12.5244 93.68 13.2444 95.56C13.9644 97.44 15.011 99.0867 16.3844 100.5V100.72H14.0244ZM28.9281 91.22C28.9281 91.6333 28.9015 92.0067 28.8481 92.34H20.4281C20.4948 93.22 20.8215 93.9267 21.4081 94.46C21.9948 94.9933 22.7148 95.26 23.5681 95.26C24.7948 95.26 25.6615 94.7467 26.1681 93.72H28.6281C28.2948 94.7333 27.6881 95.5667 26.8081 96.22C25.9415 96.86 24.8615 97.18 23.5681 97.18C22.5148 97.18 21.5681 96.9467 20.7281 96.48C19.9015 96 19.2481 95.3333 18.7681 94.48C18.3015 93.6133 18.0681 92.6133 18.0681 91.48C18.0681 90.3467 18.2948 89.3533 18.7481 88.5C19.2148 87.6333 19.8615 86.9667 20.6881 86.5C21.5281 86.0333 22.4881 85.8 23.5681 85.8C24.6081 85.8 25.5348 86.0267 26.3481 86.48C27.1615 86.9333 27.7948 87.5733 28.2481 88.4C28.7015 89.2133 28.9281 90.1533 28.9281 91.22ZM26.5481 90.5C26.5348 89.66 26.2348 88.9867 25.6481 88.48C25.0615 87.9733 24.3348 87.72 23.4681 87.72C22.6815 87.72 22.0081 87.9733 21.4481 88.48C20.8881 88.9733 20.5548 89.6467 20.4481 90.5H26.5481ZM30.6119 100.72V100.5C31.9852 99.0867 33.0319 97.44 33.7519 95.56C34.4719 93.68 34.8319 91.7333 34.8319 89.72C34.8319 87.6267 34.4452 85.5933 33.6719 83.62C32.8985 81.6467 31.7452 79.9533 30.2119 78.54V78.32H32.5719C34.0385 79.6267 35.1452 81.2867 35.8919 83.3C36.6519 85.3133 37.0319 87.4533 37.0319 89.72C37.0319 91.9333 36.6785 94.0067 35.9719 95.94C35.2785 97.8733 34.2785 99.4667 32.9719 100.72H30.6119Z" fill="black"/>
</svg>
