<svg width="46" height="105" viewBox="0 0 46 105" fill="none" xmlns="http://www.w3.org/2000/svg">
<path d="M24.252 13.45H30.902V59.3H24.252V13.45ZM14.552 30.6H25.552V36.1H14.552V30.6Z" fill="black"/>
<path d="M7.64742 100.72C6.34076 99.4667 5.33409 97.8733 4.62742 95.94C3.93409 94.0067 3.58742 91.9333 3.58742 89.72C3.58742 87.4533 3.96076 85.3133 4.70742 83.3C5.46742 81.2867 6.58076 79.6267 8.04742 78.32H10.4074V78.54C8.87409 79.9533 7.72076 81.6467 6.94742 83.62C6.17409 85.5933 5.78742 87.6267 5.78742 89.72C5.78742 91.7333 6.14742 93.68 6.86742 95.56C7.58742 97.44 8.63409 99.0867 10.0074 100.5V100.72H7.64742ZM22.5512 91.22C22.5512 91.6333 22.5245 92.0067 22.4712 92.34H14.0512C14.1178 93.22 14.4445 93.9267 15.0312 94.46C15.6178 94.9933 16.3378 95.26 17.1912 95.26C18.4178 95.26 19.2845 94.7467 19.7912 93.72H22.2512C21.9178 94.7333 21.3112 95.5667 20.4312 96.22C19.5645 96.86 18.4845 97.18 17.1912 97.18C16.1378 97.18 15.1912 96.9467 14.3512 96.48C13.5245 96 12.8712 95.3333 12.3912 94.48C11.9245 93.6133 11.6912 92.6133 11.6912 91.48C11.6912 90.3467 11.9178 89.3533 12.3712 88.5C12.8378 87.6333 13.4845 86.9667 14.3112 86.5C15.1512 86.0333 16.1112 85.8 17.1912 85.8C18.2312 85.8 19.1578 86.0267 19.9712 86.48C20.7845 86.9333 21.4178 87.5733 21.8712 88.4C22.3245 89.2133 22.5512 90.1533 22.5512 91.22ZM20.1712 90.5C20.1578 89.66 19.8578 88.9867 19.2712 88.48C18.6845 87.9733 17.9578 87.72 17.0912 87.72C16.3045 87.72 15.6312 87.9733 15.0712 88.48C14.5112 88.9733 14.1778 89.6467 14.0712 90.5H20.1712ZM29.5749 97.18C28.5349 97.18 27.5949 96.9467 26.7549 96.48C25.9149 96 25.2549 95.3333 24.7749 94.48C24.2949 93.6133 24.0549 92.6133 24.0549 91.48C24.0549 90.36 24.3016 89.3667 24.7949 88.5C25.2883 87.6333 25.9616 86.9667 26.8149 86.5C27.6683 86.0333 28.6216 85.8 29.6749 85.8C30.7283 85.8 31.6816 86.0333 32.5349 86.5C33.3883 86.9667 34.0616 87.6333 34.5549 88.5C35.0483 89.3667 35.2949 90.36 35.2949 91.48C35.2949 92.6 35.0416 93.5933 34.5349 94.46C34.0283 95.3267 33.3349 96 32.4549 96.48C31.5883 96.9467 30.6283 97.18 29.5749 97.18ZM29.5749 95.2C30.1616 95.2 30.7083 95.06 31.2149 94.78C31.7349 94.5 32.1549 94.08 32.4749 93.52C32.7949 92.96 32.9549 92.28 32.9549 91.48C32.9549 90.68 32.8016 90.0067 32.4949 89.46C32.1883 88.9 31.7816 88.48 31.2749 88.2C30.7683 87.92 30.2216 87.78 29.6349 87.78C29.0483 87.78 28.5016 87.92 27.9949 88.2C27.5016 88.48 27.1083 88.9 26.8149 89.46C26.5216 90.0067 26.3749 90.68 26.3749 91.48C26.3749 92.6667 26.6749 93.5867 27.2749 94.24C27.8883 94.88 28.6549 95.2 29.5749 95.2ZM36.9888 100.72V100.5C38.3622 99.0867 39.4088 97.44 40.1288 95.56C40.8488 93.68 41.2088 91.7333 41.2088 89.72C41.2088 87.6267 40.8222 85.5933 40.0488 83.62C39.2755 81.6467 38.1222 79.9533 36.5888 78.54V78.32H38.9488C40.4155 79.6267 41.5222 81.2867 42.2688 83.3C43.0288 85.3133 43.4088 87.4533 43.4088 89.72C43.4088 91.9333 43.0555 94.0067 42.3488 95.94C41.6555 97.8733 40.6555 99.4667 39.3488 100.72H36.9888Z" fill="black"/>
</svg>
