<svg width="48" height="105" viewBox="0 0 48 105" fill="none" xmlns="http://www.w3.org/2000/svg">
<path d="M4.05195 32.7H45.902V38.1H4.05195V32.7Z" fill="black"/>
<path d="M7.03023 100.72C5.72357 99.4667 4.7169 97.8733 4.01023 95.94C3.3169 94.0067 2.97023 91.9333 2.97023 89.72C2.97023 87.4533 3.34357 85.3133 4.09023 83.3C4.85023 81.2867 5.96357 79.6267 7.43023 78.32H9.79024V78.54C8.2569 79.9533 7.10357 81.6467 6.33023 83.62C5.5569 85.5933 5.17023 87.6267 5.17023 89.72C5.17023 91.7333 5.53023 93.68 6.25023 95.56C6.97023 97.44 8.0169 99.0867 9.39023 100.5V100.72H7.03023ZM21.934 91.22C21.934 91.6333 21.9073 92.0067 21.854 92.34H13.434C13.5007 93.22 13.8273 93.9267 14.414 94.46C15.0007 94.9933 15.7207 95.26 16.574 95.26C17.8007 95.26 18.6673 94.7467 19.174 93.72H21.634C21.3007 94.7333 20.694 95.5667 19.814 96.22C18.9473 96.86 17.8673 97.18 16.574 97.18C15.5207 97.18 14.574 96.9467 13.734 96.48C12.9073 96 12.254 95.3333 11.774 94.48C11.3073 93.6133 11.074 92.6133 11.074 91.48C11.074 90.3467 11.3007 89.3533 11.754 88.5C12.2207 87.6333 12.8673 86.9667 13.694 86.5C14.534 86.0333 15.494 85.8 16.574 85.8C17.614 85.8 18.5407 86.0267 19.354 86.48C20.1673 86.9333 20.8007 87.5733 21.254 88.4C21.7073 89.2133 21.934 90.1533 21.934 91.22ZM19.554 90.5C19.5407 89.66 19.2407 88.9867 18.654 88.48C18.0673 87.9733 17.3407 87.72 16.474 87.72C15.6873 87.72 15.014 87.9733 14.454 88.48C13.894 88.9733 13.5607 89.6467 13.454 90.5H19.554ZM34.1577 85.98V97H31.8777V95.7C31.5177 96.1533 31.0444 96.5133 30.4577 96.78C29.8844 97.0333 29.2711 97.16 28.6177 97.16C27.7511 97.16 26.9711 96.98 26.2777 96.62C25.5977 96.26 25.0577 95.7267 24.6577 95.02C24.2711 94.3133 24.0777 93.46 24.0777 92.46V85.98H26.3377V92.12C26.3377 93.1067 26.5844 93.8667 27.0777 94.4C27.5711 94.92 28.2444 95.18 29.0977 95.18C29.9511 95.18 30.6244 94.92 31.1177 94.4C31.6244 93.8667 31.8777 93.1067 31.8777 92.12V85.98H34.1577ZM36.606 100.72V100.5C37.9793 99.0867 39.026 97.44 39.746 95.56C40.466 93.68 40.826 91.7333 40.826 89.72C40.826 87.6267 40.4393 85.5933 39.666 83.62C38.8927 81.6467 37.7393 79.9533 36.206 78.54V78.32H38.566C40.0327 79.6267 41.1393 81.2867 41.886 83.3C42.646 85.3133 43.026 87.4533 43.026 89.72C43.026 91.9333 42.6727 94.0067 41.966 95.94C41.2727 97.8733 40.2727 99.4667 38.966 100.72H36.606Z" fill="black"/>
</svg>
