<svg width="46" height="105" viewBox="0 0 46 105" fill="none" xmlns="http://www.w3.org/2000/svg">
<path d="M19.802 13.4H26.452V59.25H19.802V13.4Z" fill="black"/>
<path d="M16.5595 100.72C15.2529 99.4667 14.2462 97.8733 13.5395 95.94C12.8462 94.0067 12.4995 91.9333 12.4995 89.72C12.4995 87.4533 12.8729 85.3133 13.6195 83.3C14.3795 81.2867 15.4929 79.6267 16.9595 78.32H19.3195V78.54C17.7862 79.9533 16.6329 81.6467 15.8595 83.62C15.0862 85.5933 14.6995 87.6267 14.6995 89.72C14.6995 91.7333 15.0595 93.68 15.7795 95.56C16.4995 97.44 17.5462 99.0867 18.9195 100.5V100.72H16.5595ZM22.5233 84.52C22.1099 84.52 21.7633 84.38 21.4833 84.1C21.2033 83.82 21.0633 83.4733 21.0633 83.06C21.0633 82.6467 21.2033 82.3 21.4833 82.02C21.7633 81.74 22.1099 81.6 22.5233 81.6C22.9233 81.6 23.2633 81.74 23.5433 82.02C23.8233 82.3 23.9633 82.6467 23.9633 83.06C23.9633 83.4733 23.8233 83.82 23.5433 84.1C23.2633 84.38 22.9233 84.52 22.5233 84.52ZM23.6433 85.98V97H21.3633V85.98H23.6433ZM26.0767 100.72V100.5C27.4501 99.0867 28.4967 97.44 29.2167 95.56C29.9367 93.68 30.2967 91.7333 30.2967 89.72C30.2967 87.6267 29.9101 85.5933 29.1367 83.62C28.3634 81.6467 27.2101 79.9533 25.6767 78.54V78.32H28.0367C29.5034 79.6267 30.6101 81.2867 31.3567 83.3C32.1167 85.3133 32.4967 87.4533 32.4967 89.72C32.4967 91.9333 32.1434 94.0067 31.4367 95.94C30.7434 97.8733 29.7434 99.4667 28.4367 100.72H26.0767Z" fill="black"/>
</svg>
