<svg width="46" height="105" viewBox="0 0 46 105" fill="none" xmlns="http://www.w3.org/2000/svg">
<path d="M2.05195 40.75H43.902V46.1H2.05195V40.75ZM19.602 23H26.252V42.3H19.602V23Z" fill="black"/>
<path d="M13.8193 100.72C12.5126 99.4667 11.506 97.8733 10.7993 95.94C10.106 94.0067 9.7593 91.9333 9.7593 89.72C9.7593 87.4533 10.1326 85.3133 10.8793 83.3C11.6393 81.2867 12.7526 79.6267 14.2193 78.32H16.5793V78.54C15.046 79.9533 13.8926 81.6467 13.1193 83.62C12.346 85.5933 11.9593 87.6267 11.9593 89.72C11.9593 91.7333 12.3193 93.68 13.0393 95.56C13.7593 97.44 14.806 99.0867 16.1793 100.5V100.72H13.8193ZM23.403 97.18C22.363 97.18 21.423 96.9467 20.583 96.48C19.743 96 19.083 95.3333 18.603 94.48C18.123 93.6133 17.883 92.6133 17.883 91.48C17.883 90.36 18.1297 89.3667 18.623 88.5C19.1164 87.6333 19.7897 86.9667 20.643 86.5C21.4964 86.0333 22.4497 85.8 23.503 85.8C24.5564 85.8 25.5097 86.0333 26.363 86.5C27.2164 86.9667 27.8897 87.6333 28.383 88.5C28.8764 89.3667 29.123 90.36 29.123 91.48C29.123 92.6 28.8697 93.5933 28.363 94.46C27.8564 95.3267 27.163 96 26.283 96.48C25.4164 96.9467 24.4564 97.18 23.403 97.18ZM23.403 95.2C23.9897 95.2 24.5364 95.06 25.043 94.78C25.563 94.5 25.983 94.08 26.303 93.52C26.623 92.96 26.783 92.28 26.783 91.48C26.783 90.68 26.6297 90.0067 26.323 89.46C26.0164 88.9 25.6097 88.48 25.103 88.2C24.5964 87.92 24.0497 87.78 23.463 87.78C22.8764 87.78 22.3297 87.92 21.823 88.2C21.3297 88.48 20.9364 88.9 20.643 89.46C20.3497 90.0067 20.203 90.68 20.203 91.48C20.203 92.6667 20.503 93.5867 21.103 94.24C21.7164 94.88 22.483 95.2 23.403 95.2ZM30.817 100.72V100.5C32.1903 99.0867 33.237 97.44 33.957 95.56C34.677 93.68 35.037 91.7333 35.037 89.72C35.037 87.6267 34.6503 85.5933 33.877 83.62C33.1036 81.6467 31.9503 79.9533 30.417 78.54V78.32H32.777C34.2436 79.6267 35.3503 81.2867 36.097 83.3C36.857 85.3133 37.237 87.4533 37.237 89.72C37.237 91.9333 36.8836 94.0067 36.177 95.94C35.4836 97.8733 34.4836 99.4667 33.177 100.72H30.817Z" fill="black"/>
</svg>
