<svg width="46" height="105" viewBox="0 0 46 105" fill="none" xmlns="http://www.w3.org/2000/svg">
<path d="M2.15195 28.35H44.002V33.7H2.15195V28.35ZM19.752 32.4H26.402V52.55H19.752V32.4Z" fill="black"/>
<path d="M12.7021 100.72C11.3954 99.4667 10.3888 97.8733 9.68211 95.94C8.98878 94.0067 8.64211 91.9333 8.64211 89.72C8.64211 87.4533 9.01544 85.3133 9.76211 83.3C10.5221 81.2867 11.6354 79.6267 13.1021 78.32H15.4621V78.54C13.9288 79.9533 12.7754 81.6467 12.0021 83.62C11.2288 85.5933 10.8421 87.6267 10.8421 89.72C10.8421 91.7333 11.2021 93.68 11.9221 95.56C12.6421 97.44 13.6888 99.0867 15.0621 100.5V100.72H12.7021ZM27.4859 85.98V97H25.2059V95.7C24.8459 96.1533 24.3725 96.5133 23.7859 96.78C23.2125 97.0333 22.5992 97.16 21.9459 97.16C21.0792 97.16 20.2992 96.98 19.6059 96.62C18.9259 96.26 18.3859 95.7267 17.9859 95.02C17.5992 94.3133 17.4059 93.46 17.4059 92.46V85.98H19.6659V92.12C19.6659 93.1067 19.9125 93.8667 20.4059 94.4C20.8992 94.92 21.5725 95.18 22.4259 95.18C23.2792 95.18 23.9525 94.92 24.4459 94.4C24.9525 93.8667 25.2059 93.1067 25.2059 92.12V85.98H27.4859ZM29.9341 100.72V100.5C31.3075 99.0867 32.3541 97.44 33.0741 95.56C33.7941 93.68 34.1541 91.7333 34.1541 89.72C34.1541 87.6267 33.7675 85.5933 32.9941 83.62C32.2208 81.6467 31.0675 79.9533 29.5341 78.54V78.32H31.8941C33.3608 79.6267 34.4675 81.2867 35.2141 83.3C35.9741 85.3133 36.3541 87.4533 36.3541 89.72C36.3541 91.9333 36.0008 94.0067 35.2941 95.94C34.6008 97.8733 33.6008 99.4667 32.2941 100.72H29.9341Z" fill="black"/>
</svg>
