<svg width="46" height="105" viewBox="0 0 46 105" fill="none" xmlns="http://www.w3.org/2000/svg">
<path d="M21.952 25.1H33.002V30.55H21.952V25.1ZM21.952 38.2H33.002V43.65H21.952V38.2ZM17.052 13.5H23.702V59.35H17.052V13.5Z" fill="black"/>
<path d="M6.59859 100.72C5.29193 99.4667 4.28526 97.8733 3.57859 95.94C2.88526 94.0067 2.53859 91.9333 2.53859 89.72C2.53859 87.4533 2.91193 85.3133 3.65859 83.3C4.41859 81.2867 5.53193 79.6267 6.99859 78.32H9.35859V78.54C7.82526 79.9533 6.67193 81.6467 5.89859 83.62C5.12526 85.5933 4.73859 87.6267 4.73859 89.72C4.73859 91.7333 5.09859 93.68 5.81859 95.56C6.53859 97.44 7.58526 99.0867 8.95859 100.5V100.72H6.59859ZM21.3223 85.98L14.5623 102.18H12.2023L14.4423 96.82L10.1023 85.98H12.6423L15.7423 94.38L18.9623 85.98H21.3223ZM22.283 91.44C22.283 90.3333 22.5096 89.3533 22.963 88.5C23.4296 87.6467 24.0563 86.9867 24.843 86.52C25.643 86.04 26.523 85.8 27.483 85.8C28.3496 85.8 29.103 85.9733 29.743 86.32C30.3963 86.6533 30.9163 87.0733 31.303 87.58V85.98H33.603V97H31.303V95.36C30.9163 95.88 30.3896 96.3133 29.723 96.66C29.0563 97.0067 28.2963 97.18 27.443 97.18C26.4963 97.18 25.6296 96.94 24.843 96.46C24.0563 95.9667 23.4296 95.2867 22.963 94.42C22.5096 93.54 22.283 92.5467 22.283 91.44ZM31.303 91.48C31.303 90.72 31.143 90.06 30.823 89.5C30.5163 88.94 30.1096 88.5133 29.603 88.22C29.0963 87.9267 28.5496 87.78 27.963 87.78C27.3763 87.78 26.8296 87.9267 26.323 88.22C25.8163 88.5 25.403 88.92 25.083 89.48C24.7763 90.0267 24.623 90.68 24.623 91.44C24.623 92.2 24.7763 92.8667 25.083 93.44C25.403 94.0133 25.8163 94.4533 26.323 94.76C26.843 95.0533 27.3896 95.2 27.963 95.2C28.5496 95.2 29.0963 95.0533 29.603 94.76C30.1096 94.4667 30.5163 94.04 30.823 93.48C31.143 92.9067 31.303 92.24 31.303 91.48ZM36.0377 100.72V100.5C37.411 99.0867 38.4577 97.44 39.1777 95.56C39.8977 93.68 40.2577 91.7333 40.2577 89.72C40.2577 87.6267 39.871 85.5933 39.0977 83.62C38.3243 81.6467 37.171 79.9533 35.6377 78.54V78.32H37.9977C39.4643 79.6267 40.571 81.2867 41.3177 83.3C42.0777 85.3133 42.4577 87.4533 42.4577 89.72C42.4577 91.9333 42.1043 94.0067 41.3977 95.94C40.7043 97.8733 39.7043 99.4667 38.3977 100.72H36.0377Z" fill="black"/>
</svg>
