<svg width="58" height="105" viewBox="0 0 58 105" fill="none" xmlns="http://www.w3.org/2000/svg">
<path d="M33.002 13.6H39.352V59.45H33.002V13.6ZM26.052 24.2H34.152V29.65H26.052V24.2ZM21.202 14.2H27.452V57.75H21.202V14.2ZM26.052 37.45H34.152V42.9H26.052V37.45Z" fill="black"/>
<path d="M6.92672 100.72C5.62005 99.4667 4.61339 97.8733 3.90672 95.94C3.21339 94.0067 2.86672 91.9333 2.86672 89.72C2.86672 87.4533 3.24005 85.3133 3.98672 83.3C4.74672 81.2867 5.86005 79.6267 7.32672 78.32H9.68672V78.54C8.15339 79.9533 7.00005 81.6467 6.22672 83.62C5.45339 85.5933 5.06672 87.6267 5.06672 89.72C5.06672 91.7333 5.42672 93.68 6.14672 95.56C6.86672 97.44 7.91339 99.0867 9.28672 100.5V100.72H6.92672ZM21.6505 85.98L14.8905 102.18H12.5305L14.7705 96.82L10.4305 85.98H12.9705L16.0705 94.38L19.2905 85.98H21.6505ZM22.6111 91.44C22.6111 90.3333 22.8378 89.3533 23.2911 88.5C23.7578 87.6467 24.3844 86.9867 25.1711 86.52C25.9711 86.04 26.8511 85.8 27.8111 85.8C28.6778 85.8 29.4311 85.9733 30.0711 86.32C30.7244 86.6533 31.2444 87.0733 31.6311 87.58V85.98H33.9311V97H31.6311V95.36C31.2444 95.88 30.7178 96.3133 30.0511 96.66C29.3844 97.0067 28.6244 97.18 27.7711 97.18C26.8244 97.18 25.9578 96.94 25.1711 96.46C24.3844 95.9667 23.7578 95.2867 23.2911 94.42C22.8378 93.54 22.6111 92.5467 22.6111 91.44ZM31.6311 91.48C31.6311 90.72 31.4711 90.06 31.1511 89.5C30.8444 88.94 30.4378 88.5133 29.9311 88.22C29.4244 87.9267 28.8778 87.78 28.2911 87.78C27.7044 87.78 27.1578 87.9267 26.6511 88.22C26.1444 88.5 25.7311 88.92 25.4111 89.48C25.1044 90.0267 24.9511 90.68 24.9511 91.44C24.9511 92.2 25.1044 92.8667 25.4111 93.44C25.7311 94.0133 26.1444 94.4533 26.6511 94.76C27.1711 95.0533 27.7178 95.2 28.2911 95.2C28.8778 95.2 29.4244 95.0533 29.9311 94.76C30.4378 94.4667 30.8444 94.04 31.1511 93.48C31.4711 92.9067 31.6311 92.24 31.6311 91.48ZM47.0258 91.22C47.0258 91.6333 46.9991 92.0067 46.9458 92.34H38.5258C38.5924 93.22 38.9191 93.9267 39.5058 94.46C40.0924 94.9933 40.8124 95.26 41.6658 95.26C42.8924 95.26 43.7591 94.7467 44.2658 93.72H46.7258C46.3924 94.7333 45.7858 95.5667 44.9058 96.22C44.0391 96.86 42.9591 97.18 41.6658 97.18C40.6124 97.18 39.6658 96.9467 38.8258 96.48C37.9991 96 37.3458 95.3333 36.8658 94.48C36.3991 93.6133 36.1658 92.6133 36.1658 91.48C36.1658 90.3467 36.3924 89.3533 36.8458 88.5C37.3124 87.6333 37.9591 86.9667 38.7858 86.5C39.6258 86.0333 40.5858 85.8 41.6658 85.8C42.7058 85.8 43.6324 86.0267 44.4458 86.48C45.2591 86.9333 45.8924 87.5733 46.3458 88.4C46.7991 89.2133 47.0258 90.1533 47.0258 91.22ZM44.6458 90.5C44.6324 89.66 44.3324 88.9867 43.7458 88.48C43.1591 87.9733 42.4324 87.72 41.5658 87.72C40.7791 87.72 40.1058 87.9733 39.5458 88.48C38.9858 88.9733 38.6524 89.6467 38.5458 90.5H44.6458ZM48.7095 100.72V100.5C50.0829 99.0867 51.1295 97.44 51.8495 95.56C52.5695 93.68 52.9295 91.7333 52.9295 89.72C52.9295 87.6267 52.5429 85.5933 51.7695 83.62C50.9962 81.6467 49.8429 79.9533 48.3095 78.54V78.32H50.6695C52.1362 79.6267 53.2429 81.2867 53.9895 83.3C54.7495 85.3133 55.1295 87.4533 55.1295 89.72C55.1295 91.9333 54.7762 94.0067 54.0695 95.94C53.3762 97.8733 52.3762 99.4667 51.0695 100.72H48.7095Z" fill="black"/>
</svg>
