<svg width="46" height="105" viewBox="0 0 46 105" fill="none" xmlns="http://www.w3.org/2000/svg">
<path d="M10.902 24.85H20.202V30.25H10.902V24.85ZM10.752 37.55H20.052V42.95H10.752V37.55ZM27.602 13.5H33.952V59.35H27.602V13.5ZM18.002 14.35H24.202V57.9H18.002V14.35Z" fill="black"/>
<path d="M7.70406 100.72C6.3974 99.4667 5.39073 97.8733 4.68406 95.94C3.99073 94.0067 3.64406 91.9333 3.64406 89.72C3.64406 87.4533 4.0174 85.3133 4.76406 83.3C5.52406 81.2867 6.6374 79.6267 8.10406 78.32H10.4641V78.54C8.93073 79.9533 7.7774 81.6467 7.00406 83.62C6.23073 85.5933 5.84406 87.6267 5.84406 89.72C5.84406 91.7333 6.20406 93.68 6.92406 95.56C7.64406 97.44 8.69073 99.0867 10.0641 100.5V100.72H7.70406ZM22.4278 85.98L15.6678 102.18H13.3078L15.5478 96.82L11.2078 85.98H13.7478L16.8478 94.38L20.0678 85.98H22.4278ZM34.2484 91.22C34.2484 91.6333 34.2218 92.0067 34.1684 92.34H25.7484C25.8151 93.22 26.1418 93.9267 26.7284 94.46C27.3151 94.9933 28.0351 95.26 28.8884 95.26C30.1151 95.26 30.9818 94.7467 31.4884 93.72H33.9484C33.6151 94.7333 33.0084 95.5667 32.1284 96.22C31.2618 96.86 30.1818 97.18 28.8884 97.18C27.8351 97.18 26.8884 96.9467 26.0484 96.48C25.2218 96 24.5684 95.3333 24.0884 94.48C23.6218 93.6133 23.3884 92.6133 23.3884 91.48C23.3884 90.3467 23.6151 89.3533 24.0684 88.5C24.5351 87.6333 25.1818 86.9667 26.0084 86.5C26.8484 86.0333 27.8084 85.8 28.8884 85.8C29.9284 85.8 30.8551 86.0267 31.6684 86.48C32.4818 86.9333 33.1151 87.5733 33.5684 88.4C34.0218 89.2133 34.2484 90.1533 34.2484 91.22ZM31.8684 90.5C31.8551 89.66 31.5551 88.9867 30.9684 88.48C30.3818 87.9733 29.6551 87.72 28.7884 87.72C28.0018 87.72 27.3284 87.9733 26.7684 88.48C26.2084 88.9733 25.8751 89.6467 25.7684 90.5H31.8684ZM35.9322 100.72V100.5C37.3055 99.0867 38.3522 97.44 39.0722 95.56C39.7922 93.68 40.1522 91.7333 40.1522 89.72C40.1522 87.6267 39.7655 85.5933 38.9922 83.62C38.2189 81.6467 37.0655 79.9533 35.5322 78.54V78.32H37.8922C39.3589 79.6267 40.4655 81.2867 41.2122 83.3C41.9722 85.3133 42.3522 87.4533 42.3522 89.72C42.3522 91.9333 41.9989 94.0067 41.2922 95.94C40.5989 97.8733 39.5989 99.4667 38.2922 100.72H35.9322Z" fill="black"/>
</svg>
