<svg width="57" height="105" viewBox="0 0 57 105" fill="none" xmlns="http://www.w3.org/2000/svg">
<path d="M29.352 13.55H36.002V59.4H29.352V13.55ZM19.452 24.55H30.452V30H19.452V24.55ZM19.452 37.7H30.452V43.15H19.452V37.7Z" fill="black"/>
<path d="M6.82711 100.72C5.52044 99.4667 4.51378 97.8733 3.80711 95.94C3.11378 94.0067 2.76711 91.9333 2.76711 89.72C2.76711 87.4533 3.14044 85.3133 3.88711 83.3C4.64711 81.2867 5.76044 79.6267 7.22711 78.32H9.58711V78.54C8.05378 79.9533 6.90044 81.6467 6.12711 83.62C5.35378 85.5933 4.96711 87.6267 4.96711 89.72C4.96711 91.7333 5.32711 93.68 6.04711 95.56C6.76711 97.44 7.81378 99.0867 9.18711 100.5V100.72H6.82711ZM21.5509 85.98L14.7909 102.18H12.4309L14.6709 96.82L10.3309 85.98H12.8709L15.9709 94.38L19.1909 85.98H21.5509ZM33.3715 91.22C33.3715 91.6333 33.3448 92.0067 33.2915 92.34H24.8715C24.9382 93.22 25.2648 93.9267 25.8515 94.46C26.4382 94.9933 27.1582 95.26 28.0115 95.26C29.2382 95.26 30.1048 94.7467 30.6115 93.72H33.0715C32.7382 94.7333 32.1315 95.5667 31.2515 96.22C30.3848 96.86 29.3048 97.18 28.0115 97.18C26.9582 97.18 26.0115 96.9467 25.1715 96.48C24.3448 96 23.6915 95.3333 23.2115 94.48C22.7448 93.6133 22.5115 92.6133 22.5115 91.48C22.5115 90.3467 22.7382 89.3533 23.1915 88.5C23.6582 87.6333 24.3048 86.9667 25.1315 86.5C25.9715 86.0333 26.9315 85.8 28.0115 85.8C29.0515 85.8 29.9782 86.0267 30.7915 86.48C31.6048 86.9333 32.2382 87.5733 32.6915 88.4C33.1448 89.2133 33.3715 90.1533 33.3715 91.22ZM30.9915 90.5C30.9782 89.66 30.6782 88.9867 30.0915 88.48C29.5048 87.9733 28.7782 87.72 27.9115 87.72C27.1248 87.72 26.4515 87.9733 25.8915 88.48C25.3315 88.9733 24.9982 89.6467 24.8915 90.5H30.9915ZM40.3952 97.18C39.3552 97.18 38.4152 96.9467 37.5752 96.48C36.7352 96 36.0752 95.3333 35.5952 94.48C35.1152 93.6133 34.8752 92.6133 34.8752 91.48C34.8752 90.36 35.1219 89.3667 35.6152 88.5C36.1086 87.6333 36.7819 86.9667 37.6352 86.5C38.4886 86.0333 39.4419 85.8 40.4952 85.8C41.5486 85.8 42.5019 86.0333 43.3552 86.5C44.2086 86.9667 44.8819 87.6333 45.3752 88.5C45.8686 89.3667 46.1152 90.36 46.1152 91.48C46.1152 92.6 45.8619 93.5933 45.3552 94.46C44.8486 95.3267 44.1552 96 43.2752 96.48C42.4086 96.9467 41.4486 97.18 40.3952 97.18ZM40.3952 95.2C40.9819 95.2 41.5286 95.06 42.0352 94.78C42.5552 94.5 42.9752 94.08 43.2952 93.52C43.6152 92.96 43.7752 92.28 43.7752 91.48C43.7752 90.68 43.6219 90.0067 43.3152 89.46C43.0086 88.9 42.6019 88.48 42.0952 88.2C41.5886 87.92 41.0419 87.78 40.4552 87.78C39.8686 87.78 39.3219 87.92 38.8152 88.2C38.3219 88.48 37.9286 88.9 37.6352 89.46C37.3419 90.0067 37.1952 90.68 37.1952 91.48C37.1952 92.6667 37.4952 93.5867 38.0952 94.24C38.7086 94.88 39.4752 95.2 40.3952 95.2ZM47.8091 100.72V100.5C49.1825 99.0867 50.2291 97.44 50.9491 95.56C51.6691 93.68 52.0291 91.7333 52.0291 89.72C52.0291 87.6267 51.6425 85.5933 50.8691 83.62C50.0958 81.6467 48.9425 79.9533 47.4091 78.54V78.32H49.7691C51.2358 79.6267 52.3425 81.2867 53.0891 83.3C53.8491 85.3133 54.2291 87.4533 54.2291 89.72C54.2291 91.9333 53.8758 94.0067 53.1691 95.94C52.4758 97.8733 51.4758 99.4667 50.1691 100.72H47.8091Z" fill="black"/>
</svg>
