<svg width="46" height="105" viewBox="0 0 46 105" fill="none" xmlns="http://www.w3.org/2000/svg">
<path d="M2.20195 42.05H44.002V47.45H2.20195V42.05ZM11.602 23.35H18.152V43.9H11.602V23.35ZM28.052 23.35H34.602V43.9H28.052V23.35Z" fill="black"/>
<path d="M6.99898 100.72C5.69232 99.4667 4.68565 97.8733 3.97898 95.94C3.28565 94.0067 2.93898 91.9333 2.93898 89.72C2.93898 87.4533 3.31232 85.3133 4.05898 83.3C4.81898 81.2867 5.93232 79.6267 7.39898 78.32H9.75899V78.54C8.22565 79.9533 7.07232 81.6467 6.29898 83.62C5.52565 85.5933 5.13898 87.6267 5.13898 89.72C5.13898 91.7333 5.49898 93.68 6.21898 95.56C6.93898 97.44 7.98565 99.0867 9.35898 100.5V100.72H6.99898ZM21.7227 85.98L14.9627 102.18H12.6027L14.8427 96.82L10.5027 85.98H13.0427L16.1427 94.38L19.3627 85.98H21.7227ZM28.2234 97.18C27.1834 97.18 26.2434 96.9467 25.4034 96.48C24.5634 96 23.9034 95.3333 23.4234 94.48C22.9434 93.6133 22.7034 92.6133 22.7034 91.48C22.7034 90.36 22.95 89.3667 23.4434 88.5C23.9367 87.6333 24.61 86.9667 25.4634 86.5C26.3167 86.0333 27.27 85.8 28.3234 85.8C29.3767 85.8 30.33 86.0333 31.1834 86.5C32.0367 86.9667 32.71 87.6333 33.2034 88.5C33.6967 89.3667 33.9434 90.36 33.9434 91.48C33.9434 92.6 33.69 93.5933 33.1834 94.46C32.6767 95.3267 31.9834 96 31.1034 96.48C30.2367 96.9467 29.2767 97.18 28.2234 97.18ZM28.2234 95.2C28.81 95.2 29.3567 95.06 29.8634 94.78C30.3834 94.5 30.8034 94.08 31.1234 93.52C31.4434 92.96 31.6034 92.28 31.6034 91.48C31.6034 90.68 31.45 90.0067 31.1434 89.46C30.8367 88.9 30.43 88.48 29.9234 88.2C29.4167 87.92 28.87 87.78 28.2834 87.78C27.6967 87.78 27.15 87.92 26.6434 88.2C26.15 88.48 25.7567 88.9 25.4634 89.46C25.17 90.0067 25.0234 90.68 25.0234 91.48C25.0234 92.6667 25.3234 93.5867 25.9234 94.24C26.5367 94.88 27.3034 95.2 28.2234 95.2ZM35.6373 100.72V100.5C37.0106 99.0867 38.0573 97.44 38.7773 95.56C39.4973 93.68 39.8573 91.7333 39.8573 89.72C39.8573 87.6267 39.4706 85.5933 38.6973 83.62C37.9239 81.6467 36.7706 79.9533 35.2373 78.54V78.32H37.5973C39.0639 79.6267 40.1706 81.2867 40.9173 83.3C41.6773 85.3133 42.0573 87.4533 42.0573 89.72C42.0573 91.9333 41.7039 94.0067 40.9973 95.94C40.3039 97.8733 39.3039 99.4667 37.9973 100.72H35.6373Z" fill="black"/>
</svg>
