<svg width="46" height="105" viewBox="0 0 46 105" fill="none" xmlns="http://www.w3.org/2000/svg">
<path d="M2.05195 28.2H43.902V33.55H2.05195V28.2ZM11.652 32.4H18.302V52.5H11.652V32.4ZM27.352 32.4H34.002V52.5H27.352V32.4Z" fill="black"/>
<path d="M7.8818 100.72C6.57513 99.4667 5.56846 97.8733 4.8618 95.94C4.16846 94.0067 3.8218 91.9333 3.8218 89.72C3.8218 87.4533 4.19513 85.3133 4.9418 83.3C5.7018 81.2867 6.81513 79.6267 8.2818 78.32H10.6418V78.54C9.10846 79.9533 7.95513 81.6467 7.1818 83.62C6.40846 85.5933 6.0218 87.6267 6.0218 89.72C6.0218 91.7333 6.3818 93.68 7.1018 95.56C7.8218 97.44 8.86846 99.0867 10.2418 100.5V100.72H7.8818ZM22.6055 85.98L15.8455 102.18H13.4855L15.7255 96.82L11.3855 85.98H13.9255L17.0255 94.38L20.2455 85.98H22.6055ZM34.3062 85.98V97H32.0262V95.7C31.6662 96.1533 31.1928 96.5133 30.6062 96.78C30.0328 97.0333 29.4195 97.16 28.7662 97.16C27.8995 97.16 27.1195 96.98 26.4262 96.62C25.7462 96.26 25.2062 95.7267 24.8062 95.02C24.4195 94.3133 24.2262 93.46 24.2262 92.46V85.98H26.4862V92.12C26.4862 93.1067 26.7328 93.8667 27.2262 94.4C27.7195 94.92 28.3928 95.18 29.2462 95.18C30.0995 95.18 30.7728 94.92 31.2662 94.4C31.7728 93.8667 32.0262 93.1067 32.0262 92.12V85.98H34.3062ZM36.7545 100.72V100.5C38.1278 99.0867 39.1745 97.44 39.8945 95.56C40.6145 93.68 40.9745 91.7333 40.9745 89.72C40.9745 87.6267 40.5878 85.5933 39.8145 83.62C39.0411 81.6467 37.8878 79.9533 36.3545 78.54V78.32H38.7145C40.1811 79.6267 41.2878 81.2867 42.0345 83.3C42.7945 85.3133 43.1745 87.4533 43.1745 89.72C43.1745 91.9333 42.8211 94.0067 42.1145 95.94C41.4211 97.8733 40.4211 99.4667 39.1145 100.72H36.7545Z" fill="black"/>
</svg>
