<svg width="525" height="200" viewBox="0 0 525 200" fill="none" xmlns="http://www.w3.org/2000/svg">
<rect x="0.5" y="0.5" width="524" height="199" rx="19.5" stroke="black"/>
<rect x="0.5" y="0.5" width="199" height="199" rx="19.5" fill="#FFBA09" stroke="black"/>
<path d="M100.5 0.5H180C190.77 0.5 199.5 9.23045 199.5 20V180C199.5 190.77 190.77 199.5 180 199.5H100.5V0.5Z" fill="#FF097F" stroke="black"/>
<line x1="100.5" y1="3" x2="100.5" y2="200" stroke="black"/>
<path d="M53.4216 85.92V114H46.5816V85.92H53.4216Z" fill="black"/>
<path d="M166.421 85.92V114H159.581V97.16L153.301 114H147.781L141.461 97.12V114H134.621V85.92H142.701L150.581 105.36L158.381 85.92H166.421Z" fill="black"/>
<path d="M294.216 67.44C304.856 67.44 312.376 77.28 312.376 92.64C312.376 108.08 304.856 117.92 294.216 117.92C283.576 117.92 276.056 108.08 276.056 92.64C276.056 77.28 283.576 67.44 294.216 67.44ZM294.216 73.44C287.176 73.44 282.376 80.96 282.376 92.64C282.376 104.4 287.176 112.08 294.216 112.08C301.176 112.08 306.056 104.4 306.056 92.64C306.056 80.96 301.176 73.44 294.216 73.44ZM323.896 61.92H330.616V134.24H323.896V61.92ZM329.016 90.8H342.456V96.4H329.016V90.8ZM418.271 61.84H424.991V134.24H418.271V61.84ZM423.151 91.2H436.511V96.72H423.151V91.2ZM399.791 69.68H406.271C406.271 90.24 396.831 108.8 373.471 120.56L369.791 115.44C389.791 105.28 399.791 89.84 399.791 70.72V69.68ZM373.151 69.68H403.231V75.12H373.151V69.68Z" fill="black"/>
</svg>
