<svg width="525" height="200" viewBox="0 0 525 200" fill="none" xmlns="http://www.w3.org/2000/svg">
<rect x="0.5" y="0.5" width="524" height="199" rx="19.5" stroke="black"/>
<rect x="0.5" y="0.5" width="199" height="199" rx="19.5" fill="#FFBA09" stroke="black"/>
<path d="M0.5 100.5H199.5V180C199.5 190.77 190.77 199.5 180 199.5H20C9.23045 199.5 0.5 190.77 0.5 180V100.5Z" fill="#FF097F" stroke="black"/>
<path d="M103.422 33.92V62H96.5816V33.92H103.422Z" fill="black"/>
<path d="M115.421 135.92V164H108.581V147.16L102.301 164H96.7806L90.4606 147.12V164H83.6206V135.92H91.7006L99.5806 155.36L107.381 135.92H115.421Z" fill="black"/>
<path d="M273.936 105.36H339.536V110.8H273.936V105.36ZM303.216 108.72H309.776V136.24H303.216V108.72ZM306.576 66.8C321.696 66.8 331.856 72.96 331.856 82.64C331.856 92.32 321.696 98.48 306.576 98.48C291.536 98.48 281.296 92.32 281.296 82.64C281.296 72.96 291.536 66.8 306.576 66.8ZM306.576 72.16C295.536 72.16 288.016 76.24 288.016 82.64C288.016 89.04 295.536 93.12 306.576 93.12C317.616 93.12 325.056 89.04 325.056 82.64C325.056 76.24 317.616 72.16 306.576 72.16ZM385.111 108.64H391.911V136.24H385.111V108.64ZM409.991 108.64H416.791V136.24H409.991V108.64ZM368.311 105.04H433.911V110.56H368.311V105.04ZM400.951 66.8C416.071 66.8 426.231 72.88 426.231 82.56C426.231 92.16 416.071 98.32 400.951 98.32C385.911 98.32 375.671 92.16 375.671 82.56C375.671 72.88 385.911 66.8 400.951 66.8ZM400.951 72.16C389.911 72.16 382.391 76.24 382.391 82.56C382.391 88.88 389.911 92.96 400.951 92.96C411.991 92.96 419.431 88.88 419.431 82.56C419.431 76.24 411.991 72.16 400.951 72.16Z" fill="black"/>
</svg>
