<svg width="525" height="200" viewBox="0 0 525 200" fill="none" xmlns="http://www.w3.org/2000/svg">
<rect x="0.5" y="0.5" width="524" height="199" rx="19.5" stroke="black"/>
<rect x="0.5" y="0.5" width="199" height="199" rx="19.5" fill="#3CE700" stroke="black"/>
<path d="M100.5 0.5H180C190.77 0.5 199.5 9.23045 199.5 20V99.5H100.5V0.5Z" fill="#FF097F" stroke="black"/>
<path d="M0.5 20C0.5 9.23045 9.23045 0.5 20 0.5H99.5V99.5H0.5V20Z" fill="#FFBA09" stroke="black"/>
<path d="M53.4216 35.92V64H46.5816V35.92H53.4216Z" fill="black"/>
<path d="M165.421 35.92V64H158.581V47.16L152.301 64H146.781L140.461 47.12V64H133.621V35.92H141.701L149.581 55.36L157.381 35.92H165.421Z" fill="black"/>
<path d="M109.823 140.92V146.4H98.3825V152.32H106.943V157.64H98.3825V169H91.5425V140.92H109.823Z" fill="black"/>
<path d="M328.096 73.88H340.656V79.48H328.096V73.88ZM328.096 89.4H340.656V94.92H328.096V89.4ZM323.456 62.92H330.096V105.88H323.456V62.92ZM283.136 109.32H330.096V135.24H323.456V114.68H283.136V109.32ZM294.176 67.16C305.056 67.16 313.056 74.2 313.056 84.36C313.056 94.44 305.056 101.4 294.176 101.4C283.296 101.4 275.296 94.44 275.296 84.36C275.296 74.2 283.296 67.16 294.176 67.16ZM294.176 72.84C286.976 72.84 281.776 77.48 281.776 84.36C281.776 91.16 286.976 95.88 294.176 95.88C301.376 95.88 306.576 91.16 306.576 84.36C306.576 77.48 301.376 72.84 294.176 72.84ZM417.831 62.92H424.471V115.8H417.831V62.92ZM422.391 84.84H435.191V90.36H422.391V84.84ZM398.071 68.52H405.111C405.111 87.24 391.991 100.92 371.271 107.56L368.391 102.12C386.631 96.52 398.071 85.32 398.071 71.4V68.52ZM371.351 68.52H401.431V73.96H371.351V68.52ZM379.351 128.2H427.671V133.64H379.351V128.2ZM379.351 110.44H385.991V130.36H379.351V110.44Z" fill="black"/>
</svg>
