<svg width="525" height="201" viewBox="0 0 525 201" fill="none" xmlns="http://www.w3.org/2000/svg">
<rect x="0.5" y="0.5" width="524" height="199" rx="19.5" stroke="black"/>
<rect x="0.5" y="0.5" width="199" height="199" rx="19.5" fill="#FFBA09" stroke="black"/>
<path d="M0.5 67.5H199.5V180C199.5 190.77 190.77 199.5 180 199.5H20C9.23045 199.5 0.5 190.77 0.5 180V67.5Z" fill="#FF097F" stroke="black"/>
<path d="M0.5 134.5H199.5V180C199.5 190.77 190.77 199.5 180 199.5H20C9.23045 199.5 0.5 190.77 0.5 180V134.5Z" fill="#3CE700" stroke="black"/>
<line x1="2" y1="66.5" x2="200" y2="66.5" stroke="black"/>
<line x1="2" y1="133.5" x2="200" y2="133.5" stroke="black"/>
<path d="M103.422 22.92V51H96.5816V22.92H103.422Z" fill="black"/>
<path d="M115.421 89.92V118H108.581V101.16L102.301 118H96.7806L90.4606 101.12V118H83.6206V89.92H91.7006L99.5806 109.36L107.381 89.92H115.421Z" fill="black"/>
<path d="M109.823 156.92V162.4H98.3825V168.32H106.943V173.64H98.3825V185H91.5425V156.92H109.823Z" fill="black"/>
<path d="M303.296 102.08H309.936V114.72H303.296V102.08ZM273.936 99.76H339.296V105.12H273.936V99.76ZM306.576 112.72C322.096 112.72 331.376 117.28 331.376 125.44C331.376 133.52 322.096 138.08 306.576 138.08C291.056 138.08 281.776 133.52 281.776 125.44C281.776 117.28 291.056 112.72 306.576 112.72ZM306.576 117.84C295.296 117.84 288.496 120.56 288.496 125.44C288.496 130.24 295.296 132.96 306.576 132.96C317.936 132.96 324.656 130.24 324.656 125.44C324.656 120.56 317.936 117.84 306.576 117.84ZM302.336 71.84H308.256V74C308.256 85.68 294.976 93.52 280.016 95.36L277.616 90.08C290.576 88.72 302.336 82.24 302.336 74V71.84ZM305.136 71.84H310.976V74C310.976 82.24 322.736 88.72 335.696 90.08L333.296 95.36C318.336 93.52 305.136 85.68 305.136 74V71.84ZM279.936 69.2H333.456V74.56H279.936V69.2ZM376.711 69.28H423.271V74.72H376.711V69.28ZM368.391 95.2H433.911V100.64H368.391V95.2ZM397.751 98.88H404.311V115.92H397.751V98.88ZM418.951 69.28H425.431V74.64C425.431 80.64 425.431 87.92 423.031 97.84L416.551 97.04C418.951 87.36 418.951 80.48 418.951 74.64V69.28ZM375.191 113.76H425.911V138.24H419.271V119.2H375.191V113.76Z" fill="black"/>
</svg>
