<svg width="525" height="201" viewBox="0 0 525 201" fill="none" xmlns="http://www.w3.org/2000/svg">
<rect x="0.5" y="0.5" width="524" height="199" rx="19.5" stroke="black"/>
<rect x="0.5" y="1.5" width="199" height="199" rx="19.5" fill="#FFBA09" stroke="black"/>
<path d="M100 1H180C191.046 1 200 9.95431 200 21V181C200 192.046 191.046 201 180 201H100V1Z" fill="#FF097F"/>
<path d="M0.5 101.5H99.5V200.5H20C9.23045 200.5 0.5 191.77 0.5 181V101.5Z" fill="#FF097F" stroke="black"/>
<line x1="100.5" y1="2" x2="100.5" y2="201" stroke="black"/>
<path d="M53.4216 36.92V65H46.5816V36.92H53.4216Z" fill="black"/>
<path d="M165.421 87.92V116H158.581V99.16L152.301 116H146.781L140.461 99.12V116H133.621V87.92H141.701L149.581 107.36L157.381 87.92H165.421Z" fill="black"/>
<path d="M65.4206 136.92V165H58.5806V148.16L52.3006 165H46.7806L40.4606 148.12V165H33.6206V136.92H41.7006L49.5806 156.36L57.3806 136.92H65.4206Z" fill="black"/>
<path d="M293.616 101.92H300.336V132.08H293.616V101.92ZM327.216 63.92H333.776V136.24H327.216V63.92ZM274.416 104L273.536 98.4C288.176 98.32 306.096 98.08 322.016 96.4L322.576 101.36C306.336 103.6 288.736 103.92 274.416 104ZM279.856 69.44H309.776V74.96H279.856V69.44ZM307.216 69.44H313.776V72.4C313.776 77.44 313.776 86.48 311.376 99.36L304.816 98.8C307.216 86.08 307.216 77.36 307.216 72.4V69.44ZM391.831 69.12C403.111 69.12 411.191 76.08 411.191 86.16C411.191 96.32 403.111 103.28 391.831 103.28C380.551 103.28 372.391 96.32 372.391 86.16C372.391 76.08 380.551 69.12 391.831 69.12ZM391.831 74.88C384.311 74.88 378.871 79.44 378.871 86.16C378.871 92.88 384.311 97.52 391.831 97.52C399.271 97.52 404.711 92.88 404.711 86.16C404.711 79.44 399.271 74.88 391.831 74.88ZM420.631 63.84H427.271V136.32H420.631V63.84ZM369.671 120.48L368.711 114.96C381.911 114.96 400.151 114.88 415.911 112.4L416.471 117.28C400.231 120.4 382.551 120.48 369.671 120.48Z" fill="black"/>
</svg>
