<svg width="525" height="200" viewBox="0 0 525 200" fill="none" xmlns="http://www.w3.org/2000/svg">
<rect x="0.5" y="0.5" width="524" height="199" rx="19.5" stroke="black"/>
<rect x="0.5" y="0.5" width="199" height="199" rx="19.5" fill="#3CE700" stroke="black"/>
<path d="M0.5 20C0.5 9.23045 9.23045 0.5 20 0.5H180C190.77 0.5 199.5 9.23045 199.5 20V111C199.5 121.77 190.77 130.5 180 130.5H0.5V20Z" fill="#FF097F" stroke="black"/>
<path d="M0.5 20C0.5 9.23045 9.23045 0.5 20 0.5H180C190.77 0.5 199.5 9.23045 199.5 20V66.5H0.5V20Z" fill="#FFBA09" stroke="black"/>
<path d="M120.5 0.5H180C190.77 0.5 199.5 9.23045 199.5 20V130.5H120.5V0.5Z" fill="#FF097F" stroke="black"/>
<line x1="2" y1="130.5" x2="200" y2="130.5" stroke="black"/>
<line x1="120.5" y1="1" x2="120.5" y2="131" stroke="black"/>
<line x1="-4.37114e-08" y1="65.5" x2="120" y2="65.5" stroke="black"/>
<path d="M65.4216 15.92V44H58.5816V15.92H65.4216Z" fill="black"/>
<path d="M109.823 152.92V158.4H98.3825V164.32H106.943V169.64H98.3825V181H91.5425V152.92H109.823Z" fill="black"/>
<path d="M75.4206 88.92V117H68.5806V100.16L62.3006 117H56.7806L50.4606 100.12V117H43.6206V88.92H51.7006L59.5806 108.36L67.3806 88.92H75.4206Z" fill="black"/>
<path d="M175.421 58.92V87H168.581V70.16L162.301 87H156.781L150.461 70.12V87H143.621V58.92H151.701L159.581 78.36L167.381 58.92H175.421Z" fill="black"/>
<path d="M277.856 71.52H309.856V76.96H277.856V71.52ZM288.736 87.68H295.296V105.76H288.736V87.68ZM307.216 71.52H313.776V75.36C313.776 80.08 313.776 87.28 311.856 96.8L305.376 96.08C307.216 86.56 307.216 80 307.216 75.36V71.52ZM323.616 65.92H330.256V120.4H323.616V65.92ZM327.216 89.44H340.576V94.96H327.216V89.44ZM284.576 131.2H332.576V136.64H284.576V131.2ZM284.576 115.36H291.136V132.88H284.576V115.36ZM274.176 108.88L273.456 103.44C286.336 103.44 304.096 103.12 318.736 101.12L319.216 105.92C304.176 108.56 286.896 108.88 274.176 108.88ZM372.231 70.4H404.231V75.84H372.231V70.4ZM383.111 86.08H389.671V103.36H383.111V86.08ZM401.591 70.4H408.071V74.32C408.071 78.88 408.071 85.36 406.231 93.92L399.751 93.36C401.591 84.88 401.591 78.88 401.591 74.32V70.4ZM417.991 65.92H424.631V111.04H417.991V65.92ZM421.591 85.6H434.951V91.2H421.591V85.6ZM368.631 106.08L367.831 100.56C380.951 100.56 398.471 100.32 413.111 98.4L413.591 103.28C398.631 105.76 381.511 106.08 368.631 106.08ZM401.271 111.92C416.151 111.92 425.351 116.72 425.351 124.96C425.351 133.28 416.151 138.08 401.271 138.08C386.391 138.08 377.351 133.28 377.351 124.96C377.351 116.72 386.391 111.92 401.271 111.92ZM401.271 117.12C390.551 117.12 383.991 120 383.991 124.96C383.991 129.92 390.551 132.8 401.271 132.8C412.071 132.8 418.551 129.92 418.551 124.96C418.551 120 412.071 117.12 401.271 117.12Z" fill="black"/>
</svg>
