<svg width="139" height="68" viewBox="0 0 139 68" fill="none" xmlns="http://www.w3.org/2000/svg">
<path d="M111.919 44.72C110.612 43.4667 109.606 41.8733 108.899 39.94C108.206 38.0067 107.859 35.9333 107.859 33.72C107.859 31.4533 108.232 29.3133 108.979 27.3C109.739 25.2867 110.852 23.6267 112.319 22.32H114.679V22.54C113.146 23.9533 111.992 25.6467 111.219 27.62C110.446 29.5933 110.059 31.6267 110.059 33.72C110.059 35.7333 110.419 37.68 111.139 39.56C111.859 41.44 112.906 43.0867 114.279 44.5V44.72H111.919ZM115.963 35.44C115.963 34.3333 116.189 33.3533 116.643 32.5C117.109 31.6467 117.736 30.9867 118.523 30.52C119.323 30.04 120.203 29.8 121.163 29.8C122.029 29.8 122.783 29.9733 123.423 30.32C124.076 30.6533 124.596 31.0733 124.983 31.58V29.98H127.283V41H124.983V39.36C124.596 39.88 124.069 40.3133 123.403 40.66C122.736 41.0067 121.976 41.18 121.123 41.18C120.176 41.18 119.309 40.94 118.523 40.46C117.736 39.9667 117.109 39.2867 116.643 38.42C116.189 37.54 115.963 36.5467 115.963 35.44ZM124.983 35.48C124.983 34.72 124.823 34.06 124.503 33.5C124.196 32.94 123.789 32.5133 123.283 32.22C122.776 31.9267 122.229 31.78 121.643 31.78C121.056 31.78 120.509 31.9267 120.003 32.22C119.496 32.5 119.083 32.92 118.763 33.48C118.456 34.0267 118.303 34.68 118.303 35.44C118.303 36.2 118.456 36.8667 118.763 37.44C119.083 38.0133 119.496 38.4533 120.003 38.76C120.523 39.0533 121.069 39.2 121.643 39.2C122.229 39.2 122.776 39.0533 123.283 38.76C123.789 38.4667 124.196 38.04 124.503 37.48C124.823 36.9067 124.983 36.24 124.983 35.48ZM129.717 44.72V44.5C131.091 43.0867 132.137 41.44 132.857 39.56C133.577 37.68 133.937 35.7333 133.937 33.72C133.937 31.6267 133.551 29.5933 132.777 27.62C132.004 25.6467 130.851 23.9533 129.317 22.54V22.32H131.677C133.144 23.6267 134.251 25.2867 134.997 27.3C135.757 29.3133 136.137 31.4533 136.137 33.72C136.137 35.9333 135.784 38.0067 135.077 39.94C134.384 41.8733 133.384 43.4667 132.077 44.72H129.717Z" fill="black"/>
<path d="M16.6818 12.695H22.6668V53.96H16.6818V12.695ZM21.2268 28.535H31.2168V33.44H21.2268V28.535Z" fill="black"/>
</svg>
