<svg width="145" height="68" viewBox="0 0 145 68" fill="none" xmlns="http://www.w3.org/2000/svg">
<path d="M105.747 44.72C104.44 43.4667 103.434 41.8733 102.727 39.94C102.034 38.0067 101.687 35.9333 101.687 33.72C101.687 31.4533 102.06 29.3133 102.807 27.3C103.567 25.2867 104.68 23.6267 106.147 22.32H108.507V22.54C106.974 23.9533 105.82 25.6467 105.047 27.62C104.274 29.5933 103.887 31.6267 103.887 33.72C103.887 35.7333 104.247 37.68 104.967 39.56C105.687 41.44 106.734 43.0867 108.107 44.5V44.72H105.747ZM109.791 35.44C109.791 34.3333 110.017 33.3533 110.471 32.5C110.937 31.6467 111.564 30.9867 112.351 30.52C113.151 30.04 114.031 29.8 114.991 29.8C115.857 29.8 116.611 29.9733 117.251 30.32C117.904 30.6533 118.424 31.0733 118.811 31.58V29.98H121.111V41H118.811V39.36C118.424 39.88 117.897 40.3133 117.231 40.66C116.564 41.0067 115.804 41.18 114.951 41.18C114.004 41.18 113.137 40.94 112.351 40.46C111.564 39.9667 110.937 39.2867 110.471 38.42C110.017 37.54 109.791 36.5467 109.791 35.44ZM118.811 35.48C118.811 34.72 118.651 34.06 118.331 33.5C118.024 32.94 117.617 32.5133 117.111 32.22C116.604 31.9267 116.057 31.78 115.471 31.78C114.884 31.78 114.337 31.9267 113.831 32.22C113.324 32.5 112.911 32.92 112.591 33.48C112.284 34.0267 112.131 34.68 112.131 35.44C112.131 36.2 112.284 36.8667 112.591 37.44C112.911 38.0133 113.324 38.4533 113.831 38.76C114.351 39.0533 114.897 39.2 115.471 39.2C116.057 39.2 116.604 39.0533 117.111 38.76C117.617 38.4667 118.024 38.04 118.331 37.48C118.651 36.9067 118.811 36.24 118.811 35.48ZM134.205 35.22C134.205 35.6333 134.179 36.0067 134.125 36.34H125.705C125.772 37.22 126.099 37.9267 126.685 38.46C127.272 38.9933 127.992 39.26 128.845 39.26C130.072 39.26 130.939 38.7467 131.445 37.72H133.905C133.572 38.7333 132.965 39.5667 132.085 40.22C131.219 40.86 130.139 41.18 128.845 41.18C127.792 41.18 126.845 40.9467 126.005 40.48C125.179 40 124.525 39.3333 124.045 38.48C123.579 37.6133 123.345 36.6133 123.345 35.48C123.345 34.3467 123.572 33.3533 124.025 32.5C124.492 31.6333 125.139 30.9667 125.965 30.5C126.805 30.0333 127.765 29.8 128.845 29.8C129.885 29.8 130.812 30.0267 131.625 30.48C132.439 30.9333 133.072 31.5733 133.525 32.4C133.979 33.2133 134.205 34.1533 134.205 35.22ZM131.825 34.5C131.812 33.66 131.512 32.9867 130.925 32.48C130.339 31.9733 129.612 31.72 128.745 31.72C127.959 31.72 127.285 31.9733 126.725 32.48C126.165 32.9733 125.832 33.6467 125.725 34.5H131.825ZM135.889 44.72V44.5C137.263 43.0867 138.309 41.44 139.029 39.56C139.749 37.68 140.109 35.7333 140.109 33.72C140.109 31.6267 139.723 29.5933 138.949 27.62C138.176 25.6467 137.023 23.9533 135.489 22.54V22.32H137.849C139.316 23.6267 140.423 25.2867 141.169 27.3C141.929 29.3133 142.309 31.4533 142.309 33.72C142.309 35.9333 141.956 38.0067 141.249 39.94C140.556 41.8733 139.556 43.4667 138.249 44.72H135.889Z" fill="black"/>
<path d="M24.0168 12.605H29.6868V53.87H24.0168V12.605ZM17.1768 28.175H25.9068V33.035H17.1768V28.175ZM13.0818 13.28H18.7068V52.295H13.0818V13.28Z" fill="black"/>
</svg>
