<svg width="139" height="68" viewBox="0 0 139 68" fill="none" xmlns="http://www.w3.org/2000/svg">
<path d="M113.024 44.72C111.718 43.4667 110.711 41.8733 110.004 39.94C109.311 38.0067 108.964 35.9333 108.964 33.72C108.964 31.4533 109.338 29.3133 110.084 27.3C110.844 25.2867 111.958 23.6267 113.424 22.32H115.784V22.54C114.251 23.9533 113.098 25.6467 112.324 27.62C111.551 29.5933 111.164 31.6267 111.164 33.72C111.164 35.7333 111.524 37.68 112.244 39.56C112.964 41.44 114.011 43.0867 115.384 44.5V44.72H113.024ZM127.928 35.22C127.928 35.6333 127.901 36.0067 127.848 36.34H119.428C119.495 37.22 119.821 37.9267 120.408 38.46C120.995 38.9933 121.715 39.26 122.568 39.26C123.795 39.26 124.661 38.7467 125.168 37.72H127.628C127.295 38.7333 126.688 39.5667 125.808 40.22C124.941 40.86 123.861 41.18 122.568 41.18C121.515 41.18 120.568 40.9467 119.728 40.48C118.901 40 118.248 39.3333 117.768 38.48C117.301 37.6133 117.068 36.6133 117.068 35.48C117.068 34.3467 117.295 33.3533 117.748 32.5C118.215 31.6333 118.861 30.9667 119.688 30.5C120.528 30.0333 121.488 29.8 122.568 29.8C123.608 29.8 124.535 30.0267 125.348 30.48C126.161 30.9333 126.795 31.5733 127.248 32.4C127.701 33.2133 127.928 34.1533 127.928 35.22ZM125.548 34.5C125.535 33.66 125.235 32.9867 124.648 32.48C124.061 31.9733 123.335 31.72 122.468 31.72C121.681 31.72 121.008 31.9733 120.448 32.48C119.888 32.9733 119.555 33.6467 119.448 34.5H125.548ZM129.612 44.72V44.5C130.985 43.0867 132.032 41.44 132.752 39.56C133.472 37.68 133.832 35.7333 133.832 33.72C133.832 31.6267 133.445 29.5933 132.672 27.62C131.899 25.6467 130.745 23.9533 129.212 22.54V22.32H131.572C133.039 23.6267 134.145 25.2867 134.892 27.3C135.652 29.3133 136.032 31.4533 136.032 33.72C136.032 35.9333 135.679 38.0067 134.972 39.94C134.279 41.8733 133.279 43.4667 131.972 44.72H129.612Z" fill="black"/>
<path d="M25.3668 12.605H31.0818V53.87H25.3668V12.605ZM10.5168 28.13H18.9318V33.035H10.5168V28.13ZM16.4568 13.37H22.0818V52.565H16.4568V13.37Z" fill="black"/>
</svg>
