<svg width="145" height="68" viewBox="0 0 145 68" fill="none" xmlns="http://www.w3.org/2000/svg">
<path d="M106.647 44.72C105.341 43.4667 104.334 41.8733 103.627 39.94C102.934 38.0067 102.587 35.9333 102.587 33.72C102.587 31.4533 102.961 29.3133 103.707 27.3C104.467 25.2867 105.581 23.6267 107.047 22.32H109.407V22.54C107.874 23.9533 106.721 25.6467 105.947 27.62C105.174 29.5933 104.787 31.6267 104.787 33.72C104.787 35.7333 105.147 37.68 105.867 39.56C106.587 41.44 107.634 43.0867 109.007 44.5V44.72H106.647ZM121.551 35.22C121.551 35.6333 121.525 36.0067 121.471 36.34H113.051C113.118 37.22 113.445 37.9267 114.031 38.46C114.618 38.9933 115.338 39.26 116.191 39.26C117.418 39.26 118.285 38.7467 118.791 37.72H121.251C120.918 38.7333 120.311 39.5667 119.431 40.22C118.565 40.86 117.485 41.18 116.191 41.18C115.138 41.18 114.191 40.9467 113.351 40.48C112.525 40 111.871 39.3333 111.391 38.48C110.925 37.6133 110.691 36.6133 110.691 35.48C110.691 34.3467 110.918 33.3533 111.371 32.5C111.838 31.6333 112.485 30.9667 113.311 30.5C114.151 30.0333 115.111 29.8 116.191 29.8C117.231 29.8 118.158 30.0267 118.971 30.48C119.785 30.9333 120.418 31.5733 120.871 32.4C121.325 33.2133 121.551 34.1533 121.551 35.22ZM119.171 34.5C119.158 33.66 118.858 32.9867 118.271 32.48C117.685 31.9733 116.958 31.72 116.091 31.72C115.305 31.72 114.631 31.9733 114.071 32.48C113.511 32.9733 113.178 33.6467 113.071 34.5H119.171ZM128.575 41.18C127.535 41.18 126.595 40.9467 125.755 40.48C124.915 40 124.255 39.3333 123.775 38.48C123.295 37.6133 123.055 36.6133 123.055 35.48C123.055 34.36 123.302 33.3667 123.795 32.5C124.288 31.6333 124.962 30.9667 125.815 30.5C126.668 30.0333 127.622 29.8 128.675 29.8C129.728 29.8 130.682 30.0333 131.535 30.5C132.388 30.9667 133.062 31.6333 133.555 32.5C134.048 33.3667 134.295 34.36 134.295 35.48C134.295 36.6 134.042 37.5933 133.535 38.46C133.028 39.3267 132.335 40 131.455 40.48C130.588 40.9467 129.628 41.18 128.575 41.18ZM128.575 39.2C129.162 39.2 129.708 39.06 130.215 38.78C130.735 38.5 131.155 38.08 131.475 37.52C131.795 36.96 131.955 36.28 131.955 35.48C131.955 34.68 131.802 34.0067 131.495 33.46C131.188 32.9 130.782 32.48 130.275 32.2C129.768 31.92 129.222 31.78 128.635 31.78C128.048 31.78 127.502 31.92 126.995 32.2C126.502 32.48 126.108 32.9 125.815 33.46C125.522 34.0067 125.375 34.68 125.375 35.48C125.375 36.6667 125.675 37.5867 126.275 38.24C126.888 38.88 127.655 39.2 128.575 39.2ZM135.989 44.72V44.5C137.362 43.0867 138.409 41.44 139.129 39.56C139.849 37.68 140.209 35.7333 140.209 33.72C140.209 31.6267 139.822 29.5933 139.049 27.62C138.275 25.6467 137.122 23.9533 135.589 22.54V22.32H137.949C139.415 23.6267 140.522 25.2867 141.269 27.3C142.029 29.3133 142.409 31.4533 142.409 33.72C142.409 35.9333 142.055 38.0067 141.349 39.94C140.655 41.8733 139.655 43.4667 138.349 44.72H135.989Z" fill="black"/>
<path d="M22.1268 12.605H28.1118V53.87H22.1268V12.605ZM13.3968 28.04H23.2968V32.99H13.3968V28.04Z" fill="black"/>
</svg>
