<svg width="145" height="68" viewBox="0 0 145 68" fill="none" xmlns="http://www.w3.org/2000/svg">
<path d="M106.03 44.72C104.724 43.4667 103.717 41.8733 103.01 39.94C102.317 38.0067 101.97 35.9333 101.97 33.72C101.97 31.4533 102.344 29.3133 103.09 27.3C103.85 25.2867 104.964 23.6267 106.43 22.32H108.79V22.54C107.257 23.9533 106.104 25.6467 105.33 27.62C104.557 29.5933 104.17 31.6267 104.17 33.72C104.17 35.7333 104.53 37.68 105.25 39.56C105.97 41.44 107.017 43.0867 108.39 44.5V44.72H106.03ZM120.934 35.22C120.934 35.6333 120.907 36.0067 120.854 36.34H112.434C112.501 37.22 112.827 37.9267 113.414 38.46C114.001 38.9933 114.721 39.26 115.574 39.26C116.801 39.26 117.667 38.7467 118.174 37.72H120.634C120.301 38.7333 119.694 39.5667 118.814 40.22C117.947 40.86 116.867 41.18 115.574 41.18C114.521 41.18 113.574 40.9467 112.734 40.48C111.907 40 111.254 39.3333 110.774 38.48C110.307 37.6133 110.074 36.6133 110.074 35.48C110.074 34.3467 110.301 33.3533 110.754 32.5C111.221 31.6333 111.867 30.9667 112.694 30.5C113.534 30.0333 114.494 29.8 115.574 29.8C116.614 29.8 117.541 30.0267 118.354 30.48C119.167 30.9333 119.801 31.5733 120.254 32.4C120.707 33.2133 120.934 34.1533 120.934 35.22ZM118.554 34.5C118.541 33.66 118.241 32.9867 117.654 32.48C117.067 31.9733 116.341 31.72 115.474 31.72C114.687 31.72 114.014 31.9733 113.454 32.48C112.894 32.9733 112.561 33.6467 112.454 34.5H118.554ZM133.158 29.98V41H130.878V39.7C130.518 40.1533 130.044 40.5133 129.458 40.78C128.884 41.0333 128.271 41.16 127.618 41.16C126.751 41.16 125.971 40.98 125.278 40.62C124.598 40.26 124.058 39.7267 123.658 39.02C123.271 38.3133 123.078 37.46 123.078 36.46V29.98H125.338V36.12C125.338 37.1067 125.584 37.8667 126.078 38.4C126.571 38.92 127.244 39.18 128.098 39.18C128.951 39.18 129.624 38.92 130.118 38.4C130.624 37.8667 130.878 37.1067 130.878 36.12V29.98H133.158ZM135.606 44.72V44.5C136.979 43.0867 138.026 41.44 138.746 39.56C139.466 37.68 139.826 35.7333 139.826 33.72C139.826 31.6267 139.439 29.5933 138.666 27.62C137.893 25.6467 136.739 23.9533 135.206 22.54V22.32H137.566C139.033 23.6267 140.139 25.2867 140.886 27.3C141.646 29.3133 142.026 31.4533 142.026 33.72C142.026 35.9333 141.673 38.0067 140.966 39.94C140.273 41.8733 139.273 43.4667 137.966 44.72H135.606Z" fill="black"/>
<path d="M2.14676 29.93H39.8118V34.79H2.14676V29.93Z" fill="black"/>
</svg>
