<svg width="135" height="68" viewBox="0 0 135 68" fill="none" xmlns="http://www.w3.org/2000/svg">
<path d="M116.56 44.72C115.253 43.4667 114.246 41.8733 113.54 39.94C112.846 38.0067 112.5 35.9333 112.5 33.72C112.5 31.4533 112.873 29.3133 113.62 27.3C114.38 25.2867 115.493 23.6267 116.96 22.32H119.32V22.54C117.786 23.9533 116.633 25.6467 115.86 27.62C115.086 29.5933 114.7 31.6267 114.7 33.72C114.7 35.7333 115.06 37.68 115.78 39.56C116.5 41.44 117.546 43.0867 118.92 44.5V44.72H116.56ZM122.523 28.52C122.11 28.52 121.763 28.38 121.483 28.1C121.203 27.82 121.063 27.4733 121.063 27.06C121.063 26.6467 121.203 26.3 121.483 26.02C121.763 25.74 122.11 25.6 122.523 25.6C122.923 25.6 123.263 25.74 123.543 26.02C123.823 26.3 123.963 26.6467 123.963 27.06C123.963 27.4733 123.823 27.82 123.543 28.1C123.263 28.38 122.923 28.52 122.523 28.52ZM123.643 29.98V41H121.363V29.98H123.643ZM126.077 44.72V44.5C127.45 43.0867 128.497 41.44 129.217 39.56C129.937 37.68 130.297 35.7333 130.297 33.72C130.297 31.6267 129.91 29.5933 129.137 27.62C128.363 25.6467 127.21 23.9533 125.677 22.54V22.32H128.037C129.503 23.6267 130.61 25.2867 131.357 27.3C132.117 29.3133 132.497 31.4533 132.497 33.72C132.497 35.9333 132.143 38.0067 131.437 39.94C130.743 41.8733 129.743 43.4667 128.437 44.72H126.077Z" fill="black"/>
<path d="M18.1218 12.56H24.1068V53.825H18.1218V12.56Z" fill="black"/>
</svg>
