<svg width="139" height="68" viewBox="0 0 139 68" fill="none" xmlns="http://www.w3.org/2000/svg">
<path d="M112.819 44.72C111.513 43.4667 110.506 41.8733 109.799 39.94C109.106 38.0067 108.759 35.9333 108.759 33.72C108.759 31.4533 109.133 29.3133 109.879 27.3C110.639 25.2867 111.753 23.6267 113.219 22.32H115.579V22.54C114.046 23.9533 112.893 25.6467 112.119 27.62C111.346 29.5933 110.959 31.6267 110.959 33.72C110.959 35.7333 111.319 37.68 112.039 39.56C112.759 41.44 113.806 43.0867 115.179 44.5V44.72H112.819ZM122.403 41.18C121.363 41.18 120.423 40.9467 119.583 40.48C118.743 40 118.083 39.3333 117.603 38.48C117.123 37.6133 116.883 36.6133 116.883 35.48C116.883 34.36 117.13 33.3667 117.623 32.5C118.116 31.6333 118.79 30.9667 119.643 30.5C120.496 30.0333 121.45 29.8 122.503 29.8C123.556 29.8 124.51 30.0333 125.363 30.5C126.216 30.9667 126.89 31.6333 127.383 32.5C127.876 33.3667 128.123 34.36 128.123 35.48C128.123 36.6 127.87 37.5933 127.363 38.46C126.856 39.3267 126.163 40 125.283 40.48C124.416 40.9467 123.456 41.18 122.403 41.18ZM122.403 39.2C122.99 39.2 123.536 39.06 124.043 38.78C124.563 38.5 124.983 38.08 125.303 37.52C125.623 36.96 125.783 36.28 125.783 35.48C125.783 34.68 125.63 34.0067 125.323 33.46C125.016 32.9 124.61 32.48 124.103 32.2C123.596 31.92 123.05 31.78 122.463 31.78C121.876 31.78 121.33 31.92 120.823 32.2C120.33 32.48 119.936 32.9 119.643 33.46C119.35 34.0067 119.203 34.68 119.203 35.48C119.203 36.6667 119.503 37.5867 120.103 38.24C120.716 38.88 121.483 39.2 122.403 39.2ZM129.817 44.72V44.5C131.19 43.0867 132.237 41.44 132.957 39.56C133.677 37.68 134.037 35.7333 134.037 33.72C134.037 31.6267 133.65 29.5933 132.877 27.62C132.104 25.6467 130.95 23.9533 129.417 22.54V22.32H131.777C133.244 23.6267 134.35 25.2867 135.097 27.3C135.857 29.3133 136.237 31.4533 136.237 33.72C136.237 35.9333 135.884 38.0067 135.177 39.94C134.484 41.8733 133.484 43.4667 132.177 44.72H129.817Z" fill="black"/>
<path d="M2.14676 37.175H39.8118V41.99H2.14676V37.175ZM17.9418 21.2H23.9268V38.57H17.9418V21.2Z" fill="black"/>
</svg>
