<svg width="139" height="68" viewBox="0 0 139 68" fill="none" xmlns="http://www.w3.org/2000/svg">
<path d="M112.702 44.72C111.395 43.4667 110.389 41.8733 109.682 39.94C108.989 38.0067 108.642 35.9333 108.642 33.72C108.642 31.4533 109.015 29.3133 109.762 27.3C110.522 25.2867 111.635 23.6267 113.102 22.32H115.462V22.54C113.929 23.9533 112.775 25.6467 112.002 27.62C111.229 29.5933 110.842 31.6267 110.842 33.72C110.842 35.7333 111.202 37.68 111.922 39.56C112.642 41.44 113.689 43.0867 115.062 44.5V44.72H112.702ZM127.486 29.98V41H125.206V39.7C124.846 40.1533 124.373 40.5133 123.786 40.78C123.213 41.0333 122.599 41.16 121.946 41.16C121.079 41.16 120.299 40.98 119.606 40.62C118.926 40.26 118.386 39.7267 117.986 39.02C117.599 38.3133 117.406 37.46 117.406 36.46V29.98H119.666V36.12C119.666 37.1067 119.913 37.8667 120.406 38.4C120.899 38.92 121.573 39.18 122.426 39.18C123.279 39.18 123.953 38.92 124.446 38.4C124.953 37.8667 125.206 37.1067 125.206 36.12V29.98H127.486ZM129.934 44.72V44.5C131.307 43.0867 132.354 41.44 133.074 39.56C133.794 37.68 134.154 35.7333 134.154 33.72C134.154 31.6267 133.767 29.5933 132.994 27.62C132.221 25.6467 131.067 23.9533 129.534 22.54V22.32H131.894C133.361 23.6267 134.467 25.2867 135.214 27.3C135.974 29.3133 136.354 31.4533 136.354 33.72C136.354 35.9333 136.001 38.0067 135.294 39.94C134.601 41.8733 133.601 43.4667 132.294 44.72H129.934Z" fill="black"/>
<path d="M2.23676 26.015H39.9018V30.83H2.23676V26.015ZM18.0768 29.66H24.0618V47.795H18.0768V29.66Z" fill="black"/>
</svg>
