<svg width="145" height="68" viewBox="0 0 145 68" fill="none" xmlns="http://www.w3.org/2000/svg">
<path d="M105.864 44.72C104.558 43.4667 103.551 41.8733 102.844 39.94C102.151 38.0067 101.804 35.9333 101.804 33.72C101.804 31.4533 102.178 29.3133 102.924 27.3C103.684 25.2867 104.798 23.6267 106.264 22.32H108.624V22.54C107.091 23.9533 105.938 25.6467 105.164 27.62C104.391 29.5933 104.004 31.6267 104.004 33.72C104.004 35.7333 104.364 37.68 105.084 39.56C105.804 41.44 106.851 43.0867 108.224 44.5V44.72H105.864ZM120.968 27.1L116.368 35.96V41H114.088V35.96L109.468 27.1H112.008L115.228 33.92L118.448 27.1H120.968ZM122.017 35.44C122.017 34.3333 122.244 33.3533 122.697 32.5C123.164 31.6467 123.791 30.9867 124.577 30.52C125.377 30.04 126.257 29.8 127.217 29.8C128.084 29.8 128.837 29.9733 129.477 30.32C130.131 30.6533 130.651 31.0733 131.037 31.58V29.98H133.337V41H131.037V39.36C130.651 39.88 130.124 40.3133 129.457 40.66C128.791 41.0067 128.031 41.18 127.177 41.18C126.231 41.18 125.364 40.94 124.577 40.46C123.791 39.9667 123.164 39.2867 122.697 38.42C122.244 37.54 122.017 36.5467 122.017 35.44ZM131.037 35.48C131.037 34.72 130.877 34.06 130.557 33.5C130.251 32.94 129.844 32.5133 129.337 32.22C128.831 31.9267 128.284 31.78 127.697 31.78C127.111 31.78 126.564 31.9267 126.057 32.22C125.551 32.5 125.137 32.92 124.817 33.48C124.511 34.0267 124.357 34.68 124.357 35.44C124.357 36.2 124.511 36.8667 124.817 37.44C125.137 38.0133 125.551 38.4533 126.057 38.76C126.577 39.0533 127.124 39.2 127.697 39.2C128.284 39.2 128.831 39.0533 129.337 38.76C129.844 38.4667 130.251 38.04 130.557 37.48C130.877 36.9067 131.037 36.24 131.037 35.48ZM135.772 44.72V44.5C137.145 43.0867 138.192 41.44 138.912 39.56C139.632 37.68 139.992 35.7333 139.992 33.72C139.992 31.6267 139.605 29.5933 138.832 27.62C138.059 25.6467 136.905 23.9533 135.372 22.54V22.32H137.732C139.199 23.6267 140.305 25.2867 141.052 27.3C141.812 29.3133 142.192 31.4533 142.192 33.72C142.192 35.9333 141.839 38.0067 141.132 39.94C140.439 41.8733 139.439 43.4667 138.132 44.72H135.772Z" fill="black"/>
<path d="M20.0568 23.09H30.0018V27.995H20.0568V23.09ZM20.0568 34.88H30.0018V39.785H20.0568V34.88ZM15.6468 12.65H21.6318V53.915H15.6468V12.65Z" fill="black"/>
</svg>
