<svg width="151" height="68" viewBox="0 0 151 68" fill="none" xmlns="http://www.w3.org/2000/svg">
<path d="M99.6923 44.72C98.3857 43.4667 97.379 41.8733 96.6723 39.94C95.979 38.0067 95.6323 35.9333 95.6323 33.72C95.6323 31.4533 96.0057 29.3133 96.7523 27.3C97.5123 25.2867 98.6257 23.6267 100.092 22.32H102.452V22.54C100.919 23.9533 99.7657 25.6467 98.9923 27.62C98.219 29.5933 97.8323 31.6267 97.8323 33.72C97.8323 35.7333 98.1923 37.68 98.9123 39.56C99.6323 41.44 100.679 43.0867 102.052 44.5V44.72H99.6923ZM114.796 27.1L110.196 35.96V41H107.916V35.96L103.296 27.1H105.836L109.056 33.92L112.276 27.1H114.796ZM115.845 35.44C115.845 34.3333 116.072 33.3533 116.525 32.5C116.992 31.6467 117.619 30.9867 118.405 30.52C119.205 30.04 120.085 29.8 121.045 29.8C121.912 29.8 122.665 29.9733 123.305 30.32C123.959 30.6533 124.479 31.0733 124.865 31.58V29.98H127.165V41H124.865V39.36C124.479 39.88 123.952 40.3133 123.285 40.66C122.619 41.0067 121.859 41.18 121.005 41.18C120.059 41.18 119.192 40.94 118.405 40.46C117.619 39.9667 116.992 39.2867 116.525 38.42C116.072 37.54 115.845 36.5467 115.845 35.44ZM124.865 35.48C124.865 34.72 124.705 34.06 124.385 33.5C124.079 32.94 123.672 32.5133 123.165 32.22C122.659 31.9267 122.112 31.78 121.525 31.78C120.939 31.78 120.392 31.9267 119.885 32.22C119.379 32.5 118.965 32.92 118.645 33.48C118.339 34.0267 118.185 34.68 118.185 35.44C118.185 36.2 118.339 36.8667 118.645 37.44C118.965 38.0133 119.379 38.4533 119.885 38.76C120.405 39.0533 120.952 39.2 121.525 39.2C122.112 39.2 122.659 39.0533 123.165 38.76C123.672 38.4667 124.079 38.04 124.385 37.48C124.705 36.9067 124.865 36.24 124.865 35.48ZM140.26 35.22C140.26 35.6333 140.233 36.0067 140.18 36.34H131.76C131.827 37.22 132.153 37.9267 132.74 38.46C133.327 38.9933 134.047 39.26 134.9 39.26C136.127 39.26 136.993 38.7467 137.5 37.72H139.96C139.627 38.7333 139.02 39.5667 138.14 40.22C137.273 40.86 136.193 41.18 134.9 41.18C133.847 41.18 132.9 40.9467 132.06 40.48C131.233 40 130.58 39.3333 130.1 38.48C129.633 37.6133 129.4 36.6133 129.4 35.48C129.4 34.3467 129.627 33.3533 130.08 32.5C130.547 31.6333 131.193 30.9667 132.02 30.5C132.86 30.0333 133.82 29.8 134.9 29.8C135.94 29.8 136.867 30.0267 137.68 30.48C138.493 30.9333 139.127 31.5733 139.58 32.4C140.033 33.2133 140.26 34.1533 140.26 35.22ZM137.88 34.5C137.867 33.66 137.567 32.9867 136.98 32.48C136.393 31.9733 135.667 31.72 134.8 31.72C134.013 31.72 133.34 31.9733 132.78 32.48C132.22 32.9733 131.887 33.6467 131.78 34.5H137.88ZM141.944 44.72V44.5C143.317 43.0867 144.364 41.44 145.084 39.56C145.804 37.68 146.164 35.7333 146.164 33.72C146.164 31.6267 145.777 29.5933 145.004 27.62C144.231 25.6467 143.077 23.9533 141.544 22.54V22.32H143.904C145.371 23.6267 146.477 25.2867 147.224 27.3C147.984 29.3133 148.364 31.4533 148.364 33.72C148.364 35.9333 148.011 38.0067 147.304 39.94C146.611 41.8733 145.611 43.4667 144.304 44.72H141.944Z" fill="black"/>
<path d="M23.7018 12.74H29.4168V54.005H23.7018V12.74ZM17.4468 22.28H24.7368V27.185H17.4468V22.28ZM13.0818 13.28H18.7068V52.475H13.0818V13.28ZM17.4468 34.205H24.7368V39.11H17.4468V34.205Z" fill="black"/>
</svg>
