<svg width="145" height="68" viewBox="0 0 145 68" fill="none" xmlns="http://www.w3.org/2000/svg">
<path d="M106.97 44.72C105.663 43.4667 104.656 41.8733 103.95 39.94C103.256 38.0067 102.91 35.9333 102.91 33.72C102.91 31.4533 103.283 29.3133 104.03 27.3C104.79 25.2867 105.903 23.6267 107.37 22.32H109.73V22.54C108.196 23.9533 107.043 25.6467 106.27 27.62C105.496 29.5933 105.11 31.6267 105.11 33.72C105.11 35.7333 105.47 37.68 106.19 39.56C106.91 41.44 107.956 43.0867 109.33 44.5V44.72H106.97ZM122.073 27.1L117.473 35.96V41H115.193V35.96L110.573 27.1H113.113L116.333 33.92L119.553 27.1H122.073ZM133.983 35.22C133.983 35.6333 133.956 36.0067 133.903 36.34H125.483C125.549 37.22 125.876 37.9267 126.463 38.46C127.049 38.9933 127.769 39.26 128.623 39.26C129.849 39.26 130.716 38.7467 131.223 37.72H133.683C133.349 38.7333 132.743 39.5667 131.863 40.22C130.996 40.86 129.916 41.18 128.623 41.18C127.569 41.18 126.623 40.9467 125.783 40.48C124.956 40 124.303 39.3333 123.823 38.48C123.356 37.6133 123.123 36.6133 123.123 35.48C123.123 34.3467 123.349 33.3533 123.803 32.5C124.269 31.6333 124.916 30.9667 125.743 30.5C126.583 30.0333 127.543 29.8 128.623 29.8C129.663 29.8 130.589 30.0267 131.403 30.48C132.216 30.9333 132.849 31.5733 133.303 32.4C133.756 33.2133 133.983 34.1533 133.983 35.22ZM131.603 34.5C131.589 33.66 131.289 32.9867 130.703 32.48C130.116 31.9733 129.389 31.72 128.523 31.72C127.736 31.72 127.063 31.9733 126.503 32.48C125.943 32.9733 125.609 33.6467 125.503 34.5H131.603ZM135.667 44.72V44.5C137.04 43.0867 138.087 41.44 138.807 39.56C139.527 37.68 139.887 35.7333 139.887 33.72C139.887 31.6267 139.5 29.5933 138.727 27.62C137.953 25.6467 136.8 23.9533 135.267 22.54V22.32H137.627C139.093 23.6267 140.2 25.2867 140.947 27.3C141.707 29.3133 142.087 31.4533 142.087 33.72C142.087 35.9333 141.733 38.0067 141.027 39.94C140.333 41.8733 139.333 43.4667 138.027 44.72H135.667Z" fill="black"/>
<path d="M10.1118 22.865H18.4818V27.725H10.1118V22.865ZM9.97676 34.295H18.3468V39.155H9.97676V34.295ZM25.1418 12.65H30.8568V53.915H25.1418V12.65ZM16.5018 13.415H22.0818V52.61H16.5018V13.415Z" fill="black"/>
</svg>
