<svg width="151" height="68" viewBox="0 0 151 68" fill="none" xmlns="http://www.w3.org/2000/svg">
<path d="M100.593 44.72C99.2861 43.4667 98.2794 41.8733 97.5727 39.94C96.8794 38.0067 96.5327 35.9333 96.5327 33.72C96.5327 31.4533 96.9061 29.3133 97.6527 27.3C98.4127 25.2867 99.5261 23.6267 100.993 22.32H103.353V22.54C101.819 23.9533 100.666 25.6467 99.8927 27.62C99.1194 29.5933 98.7327 31.6267 98.7327 33.72C98.7327 35.7333 99.0927 37.68 99.8127 39.56C100.533 41.44 101.579 43.0867 102.953 44.5V44.72H100.593ZM115.696 27.1L111.096 35.96V41H108.816V35.96L104.196 27.1H106.736L109.956 33.92L113.176 27.1H115.696ZM127.606 35.22C127.606 35.6333 127.579 36.0067 127.526 36.34H119.106C119.173 37.22 119.499 37.9267 120.086 38.46C120.673 38.9933 121.393 39.26 122.246 39.26C123.473 39.26 124.339 38.7467 124.846 37.72H127.306C126.973 38.7333 126.366 39.5667 125.486 40.22C124.619 40.86 123.539 41.18 122.246 41.18C121.193 41.18 120.246 40.9467 119.406 40.48C118.579 40 117.926 39.3333 117.446 38.48C116.979 37.6133 116.746 36.6133 116.746 35.48C116.746 34.3467 116.973 33.3533 117.426 32.5C117.893 31.6333 118.539 30.9667 119.366 30.5C120.206 30.0333 121.166 29.8 122.246 29.8C123.286 29.8 124.213 30.0267 125.026 30.48C125.839 30.9333 126.473 31.5733 126.926 32.4C127.379 33.2133 127.606 34.1533 127.606 35.22ZM125.226 34.5C125.213 33.66 124.913 32.9867 124.326 32.48C123.739 31.9733 123.013 31.72 122.146 31.72C121.359 31.72 120.686 31.9733 120.126 32.48C119.566 32.9733 119.233 33.6467 119.126 34.5H125.226ZM134.63 41.18C133.59 41.18 132.65 40.9467 131.81 40.48C130.97 40 130.31 39.3333 129.83 38.48C129.35 37.6133 129.11 36.6133 129.11 35.48C129.11 34.36 129.356 33.3667 129.85 32.5C130.343 31.6333 131.016 30.9667 131.87 30.5C132.723 30.0333 133.676 29.8 134.73 29.8C135.783 29.8 136.736 30.0333 137.59 30.5C138.443 30.9667 139.116 31.6333 139.61 32.5C140.103 33.3667 140.35 34.36 140.35 35.48C140.35 36.6 140.096 37.5933 139.59 38.46C139.083 39.3267 138.39 40 137.51 40.48C136.643 40.9467 135.683 41.18 134.63 41.18ZM134.63 39.2C135.216 39.2 135.763 39.06 136.27 38.78C136.79 38.5 137.21 38.08 137.53 37.52C137.85 36.96 138.01 36.28 138.01 35.48C138.01 34.68 137.856 34.0067 137.55 33.46C137.243 32.9 136.836 32.48 136.33 32.2C135.823 31.92 135.276 31.78 134.69 31.78C134.103 31.78 133.556 31.92 133.05 32.2C132.556 32.48 132.163 32.9 131.87 33.46C131.576 34.0067 131.43 34.68 131.43 35.48C131.43 36.6667 131.73 37.5867 132.33 38.24C132.943 38.88 133.71 39.2 134.63 39.2ZM142.044 44.72V44.5C143.417 43.0867 144.464 41.44 145.184 39.56C145.904 37.68 146.264 35.7333 146.264 33.72C146.264 31.6267 145.877 29.5933 145.104 27.62C144.33 25.6467 143.177 23.9533 141.644 22.54V22.32H144.004C145.47 23.6267 146.577 25.2867 147.324 27.3C148.084 29.3133 148.464 31.4533 148.464 33.72C148.464 35.9333 148.11 38.0067 147.404 39.94C146.71 41.8733 145.71 43.4667 144.404 44.72H142.044Z" fill="black"/>
<path d="M22.2168 12.695H28.2018V53.96H22.2168V12.695ZM13.3068 22.595H23.2068V27.5H13.3068V22.595ZM13.3068 34.43H23.2068V39.335H13.3068V34.43Z" fill="black"/>
</svg>
