<svg width="145" height="68" viewBox="0 0 145 68" fill="none" xmlns="http://www.w3.org/2000/svg">
<path d="M106.765 44.72C105.458 43.4667 104.451 41.8733 103.745 39.94C103.051 38.0067 102.705 35.9333 102.705 33.72C102.705 31.4533 103.078 29.3133 103.825 27.3C104.585 25.2867 105.698 23.6267 107.165 22.32H109.525V22.54C107.991 23.9533 106.838 25.6467 106.065 27.62C105.291 29.5933 104.905 31.6267 104.905 33.72C104.905 35.7333 105.265 37.68 105.985 39.56C106.705 41.44 107.751 43.0867 109.125 44.5V44.72H106.765ZM121.868 27.1L117.268 35.96V41H114.988V35.96L110.368 27.1H112.908L116.128 33.92L119.348 27.1H121.868ZM128.458 41.18C127.418 41.18 126.478 40.9467 125.638 40.48C124.798 40 124.138 39.3333 123.658 38.48C123.178 37.6133 122.938 36.6133 122.938 35.48C122.938 34.36 123.184 33.3667 123.678 32.5C124.171 31.6333 124.844 30.9667 125.698 30.5C126.551 30.0333 127.504 29.8 128.558 29.8C129.611 29.8 130.564 30.0333 131.418 30.5C132.271 30.9667 132.944 31.6333 133.438 32.5C133.931 33.3667 134.178 34.36 134.178 35.48C134.178 36.6 133.924 37.5933 133.418 38.46C132.911 39.3267 132.218 40 131.338 40.48C130.471 40.9467 129.511 41.18 128.458 41.18ZM128.458 39.2C129.044 39.2 129.591 39.06 130.098 38.78C130.618 38.5 131.038 38.08 131.358 37.52C131.678 36.96 131.838 36.28 131.838 35.48C131.838 34.68 131.684 34.0067 131.378 33.46C131.071 32.9 130.664 32.48 130.158 32.2C129.651 31.92 129.104 31.78 128.518 31.78C127.931 31.78 127.384 31.92 126.878 32.2C126.384 32.48 125.991 32.9 125.698 33.46C125.404 34.0067 125.258 34.68 125.258 35.48C125.258 36.6667 125.558 37.5867 126.158 38.24C126.771 38.88 127.538 39.2 128.458 39.2ZM135.872 44.72V44.5C137.245 43.0867 138.292 41.44 139.012 39.56C139.732 37.68 140.092 35.7333 140.092 33.72C140.092 31.6267 139.705 29.5933 138.932 27.62C138.158 25.6467 137.005 23.9533 135.472 22.54V22.32H137.832C139.298 23.6267 140.405 25.2867 141.152 27.3C141.912 29.3133 142.292 31.4533 142.292 33.72C142.292 35.9333 141.938 38.0067 141.232 39.94C140.538 41.8733 139.538 43.4667 138.232 44.72H135.872Z" fill="black"/>
<path d="M2.28176 38.345H39.9018V43.205H2.28176V38.345ZM10.7418 21.515H16.6368V40.01H10.7418V21.515ZM25.5468 21.515H31.4418V40.01H25.5468V21.515Z" fill="black"/>
</svg>
