<svg width="145" height="68" viewBox="0 0 145 68" fill="none" xmlns="http://www.w3.org/2000/svg">
<path d="M106.647 44.72C105.341 43.4667 104.334 41.8733 103.627 39.94C102.934 38.0067 102.587 35.9333 102.587 33.72C102.587 31.4533 102.961 29.3133 103.707 27.3C104.467 25.2867 105.581 23.6267 107.047 22.32H109.407V22.54C107.874 23.9533 106.721 25.6467 105.947 27.62C105.174 29.5933 104.787 31.6267 104.787 33.72C104.787 35.7333 105.147 37.68 105.867 39.56C106.587 41.44 107.634 43.0867 109.007 44.5V44.72H106.647ZM121.751 27.1L117.151 35.96V41H114.871V35.96L110.251 27.1H112.791L116.011 33.92L119.231 27.1H121.751ZM133.541 29.98V41H131.261V39.7C130.901 40.1533 130.427 40.5133 129.841 40.78C129.267 41.0333 128.654 41.16 128.001 41.16C127.134 41.16 126.354 40.98 125.661 40.62C124.981 40.26 124.441 39.7267 124.041 39.02C123.654 38.3133 123.461 37.46 123.461 36.46V29.98H125.721V36.12C125.721 37.1067 125.967 37.8667 126.461 38.4C126.954 38.92 127.627 39.18 128.481 39.18C129.334 39.18 130.007 38.92 130.501 38.4C131.007 37.8667 131.261 37.1067 131.261 36.12V29.98H133.541ZM135.989 44.72V44.5C137.362 43.0867 138.409 41.44 139.129 39.56C139.849 37.68 140.209 35.7333 140.209 33.72C140.209 31.6267 139.822 29.5933 139.049 27.62C138.275 25.6467 137.122 23.9533 135.589 22.54V22.32H137.949C139.415 23.6267 140.522 25.2867 141.269 27.3C142.029 29.3133 142.409 31.4533 142.409 33.72C142.409 35.9333 142.055 38.0067 141.349 39.94C140.655 41.8733 139.655 43.4667 138.349 44.72H135.989Z" fill="black"/>
<path d="M2.14676 25.88H39.8118V30.695H2.14676V25.88ZM10.7868 29.66H16.7718V47.75H10.7868V29.66ZM24.9168 29.66H30.9018V47.75H24.9168V29.66Z" fill="black"/>
</svg>
