<svg width="112" height="105" viewBox="0 0 112 105" fill="none" xmlns="http://www.w3.org/2000/svg">
<path d="M42.452 22.95H49.002V30.2H65.052V22.95H71.702V48.55H42.452V22.95ZM49.002 36.05V42.75H65.052V36.05H49.002Z" fill="black"/>
<path d="M6.72945 100.72C5.42279 99.4667 4.41612 97.8733 3.70945 95.94C3.01612 94.0067 2.66945 91.9333 2.66945 89.72C2.66945 87.4533 3.04279 85.3133 3.78945 83.3C4.54945 81.2867 5.66279 79.6267 7.12945 78.32H9.48945V78.54C7.95612 79.9533 6.80279 81.6467 6.02945 83.62C5.25612 85.5933 4.86945 87.6267 4.86945 89.72C4.86945 91.7333 5.22945 93.68 5.94945 95.56C6.66945 97.44 7.71612 99.0867 9.08945 100.5V100.72H6.72945ZM13.8132 87.62C14.1999 87.0867 14.7265 86.6533 15.3932 86.32C16.0732 85.9733 16.8265 85.8 17.6532 85.8C18.6265 85.8 19.5065 86.0333 20.2932 86.5C21.0799 86.9667 21.6999 87.6333 22.1532 88.5C22.6065 89.3533 22.8332 90.3333 22.8332 91.44C22.8332 92.5467 22.6065 93.54 22.1532 94.42C21.6999 95.2867 21.0732 95.9667 20.2732 96.46C19.4865 96.94 18.6132 97.18 17.6532 97.18C16.7999 97.18 16.0399 97.0133 15.3732 96.68C14.7199 96.3467 14.1999 95.92 13.8132 95.4V97H11.5332V82.2H13.8132V87.62ZM20.5132 91.44C20.5132 90.68 20.3532 90.0267 20.0332 89.48C19.7265 88.92 19.3132 88.5 18.7932 88.22C18.2865 87.9267 17.7399 87.78 17.1532 87.78C16.5799 87.78 16.0332 87.9267 15.5132 88.22C15.0065 88.5133 14.5932 88.94 14.2732 89.5C13.9665 90.06 13.8132 90.72 13.8132 91.48C13.8132 92.24 13.9665 92.9067 14.2732 93.48C14.5932 94.04 15.0065 94.4667 15.5132 94.76C16.0332 95.0533 16.5799 95.2 17.1532 95.2C17.7399 95.2 18.2865 95.0533 18.7932 94.76C19.3132 94.4533 19.7265 94.0133 20.0332 93.44C20.3532 92.8667 20.5132 92.2 20.5132 91.44ZM26.2479 84.52C25.8346 84.52 25.4879 84.38 25.2079 84.1C24.9279 83.82 24.7879 83.4733 24.7879 83.06C24.7879 82.6467 24.9279 82.3 25.2079 82.02C25.4879 81.74 25.8346 81.6 26.2479 81.6C26.6479 81.6 26.9879 81.74 27.2679 82.02C27.5479 82.3 27.6879 82.6467 27.6879 83.06C27.6879 83.4733 27.5479 83.82 27.2679 84.1C26.9879 84.38 26.6479 84.52 26.2479 84.52ZM27.3679 85.98V97H25.0879V85.98H27.3679ZM40.4613 91.22C40.4613 91.6333 40.4347 92.0067 40.3813 92.34H31.9613C32.028 93.22 32.3547 93.9267 32.9413 94.46C33.528 94.9933 34.248 95.26 35.1013 95.26C36.328 95.26 37.1947 94.7467 37.7013 93.72H40.1613C39.828 94.7333 39.2213 95.5667 38.3413 96.22C37.4747 96.86 36.3947 97.18 35.1013 97.18C34.048 97.18 33.1013 96.9467 32.2613 96.48C31.4347 96 30.7813 95.3333 30.3013 94.48C29.8347 93.6133 29.6013 92.6133 29.6013 91.48C29.6013 90.3467 29.828 89.3533 30.2813 88.5C30.748 87.6333 31.3947 86.9667 32.2213 86.5C33.0613 86.0333 34.0213 85.8 35.1013 85.8C36.1413 85.8 37.068 86.0267 37.8813 86.48C38.6947 86.9333 39.328 87.5733 39.7813 88.4C40.2347 89.2133 40.4613 90.1533 40.4613 91.22ZM38.0813 90.5C38.068 89.66 37.768 88.9867 37.1813 88.48C36.5947 87.9733 35.868 87.72 35.0013 87.72C34.2147 87.72 33.5413 87.9733 32.9813 88.48C32.4213 88.9733 32.088 89.6467 31.9813 90.5H38.0813ZM52.6851 85.98V97H50.4051V95.7C50.0451 96.1533 49.5717 96.5133 48.9851 96.78C48.4117 97.0333 47.7984 97.16 47.1451 97.16C46.2784 97.16 45.4984 96.98 44.8051 96.62C44.1251 96.26 43.5851 95.7267 43.1851 95.02C42.7984 94.3133 42.6051 93.46 42.6051 92.46V85.98H44.8651V92.12C44.8651 93.1067 45.1117 93.8667 45.6051 94.4C46.0984 94.92 46.7717 95.18 47.6251 95.18C48.4784 95.18 49.1517 94.92 49.6451 94.4C50.1517 93.8667 50.4051 93.1067 50.4051 92.12V85.98H52.6851ZM57.9734 87.6C58.36 87.0933 58.8867 86.6667 59.5534 86.32C60.22 85.9733 60.9734 85.8 61.8134 85.8C62.7734 85.8 63.6467 86.04 64.4334 86.52C65.2334 86.9867 65.86 87.6467 66.3134 88.5C66.7667 89.3533 66.9934 90.3333 66.9934 91.44C66.9934 92.5467 66.7667 93.54 66.3134 94.42C65.86 95.2867 65.2334 95.9667 64.4334 96.46C63.6467 96.94 62.7734 97.18 61.8134 97.18C60.9734 97.18 60.2267 97.0133 59.5734 96.68C58.92 96.3333 58.3867 95.9067 57.9734 95.4V102.24H55.6934V85.98H57.9734V87.6ZM64.6734 91.44C64.6734 90.68 64.5134 90.0267 64.1934 89.48C63.8867 88.92 63.4734 88.5 62.9534 88.22C62.4467 87.9267 61.9 87.78 61.3134 87.78C60.74 87.78 60.1934 87.9267 59.6734 88.22C59.1667 88.5133 58.7534 88.94 58.4334 89.5C58.1267 90.06 57.9734 90.72 57.9734 91.48C57.9734 92.24 58.1267 92.9067 58.4334 93.48C58.7534 94.04 59.1667 94.4667 59.6734 94.76C60.1934 95.0533 60.74 95.2 61.3134 95.2C61.9 95.2 62.4467 95.0533 62.9534 94.76C63.4734 94.4533 63.8867 94.0133 64.1934 93.44C64.5134 92.8667 64.6734 92.2 64.6734 91.44ZM81.8434 78.12L76.4034 100.5H74.1634L79.5834 78.12H81.8434ZM92.1921 87.62C92.5788 87.0867 93.1054 86.6533 93.7721 86.32C94.4521 85.9733 95.2054 85.8 96.0321 85.8C97.0054 85.8 97.8854 86.0333 98.6721 86.5C99.4588 86.9667 100.079 87.6333 100.532 88.5C100.985 89.3533 101.212 90.3333 101.212 91.44C101.212 92.5467 100.985 93.54 100.532 94.42C100.079 95.2867 99.4521 95.9667 98.6521 96.46C97.8654 96.94 96.9921 97.18 96.0321 97.18C95.1788 97.18 94.4188 97.0133 93.7521 96.68C93.0988 96.3467 92.5788 95.92 92.1921 95.4V97H89.9121V82.2H92.1921V87.62ZM98.8921 91.44C98.8921 90.68 98.7321 90.0267 98.4121 89.48C98.1054 88.92 97.6921 88.5 97.1721 88.22C96.6654 87.9267 96.1188 87.78 95.5321 87.78C94.9588 87.78 94.4121 87.9267 93.8921 88.22C93.3854 88.5133 92.9721 88.94 92.6521 89.5C92.3454 90.06 92.1921 90.72 92.1921 91.48C92.1921 92.24 92.3454 92.9067 92.6521 93.48C92.9721 94.04 93.3854 94.4667 93.8921 94.76C94.4121 95.0533 94.9588 95.2 95.5321 95.2C96.1188 95.2 96.6654 95.0533 97.1721 94.76C97.6921 94.4533 98.1054 94.0133 98.4121 93.44C98.7321 92.8667 98.8921 92.2 98.8921 91.44ZM102.907 100.72V100.5C104.28 99.0867 105.327 97.44 106.047 95.56C106.767 93.68 107.127 91.7333 107.127 89.72C107.127 87.6267 106.74 85.5933 105.967 83.62C105.193 81.6467 104.04 79.9533 102.507 78.54V78.32H104.867C106.333 79.6267 107.44 81.2867 108.187 83.3C108.947 85.3133 109.327 87.4533 109.327 89.72C109.327 91.9333 108.973 94.0067 108.267 95.94C107.573 97.8733 106.573 99.4667 105.267 100.72H102.907Z" fill="black"/>
</svg>
