<svg width="129" height="105" viewBox="0 0 129 105" fill="none" xmlns="http://www.w3.org/2000/svg">
<path d="M60.952 31.9H66.552V32.8C66.552 41.5 61.602 47.75 51.402 49.85L48.402 44.65C57.452 43.15 60.952 38.35 60.952 32.8V31.9ZM63.352 31.9H68.952V32.8C68.952 38.35 72.502 43.15 81.502 44.65L78.552 49.85C68.352 47.75 63.352 41.5 63.352 32.8V31.9ZM50.052 26.95H79.952V32.35H50.052V26.95ZM61.702 20.1H68.352V29.7H61.702V20.1Z" fill="black"/>
<path d="M6.86031 100.72C5.55365 99.4667 4.54698 97.8733 3.84031 95.94C3.14698 94.0067 2.80031 91.9333 2.80031 89.72C2.80031 87.4533 3.17365 85.3133 3.92031 83.3C4.68031 81.2867 5.79365 79.6267 7.26031 78.32H9.62031V78.54C8.08698 79.9533 6.93365 81.6467 6.16031 83.62C5.38698 85.5933 5.00031 87.6267 5.00031 89.72C5.00031 91.7333 5.36031 93.68 6.08031 95.56C6.80031 97.44 7.84698 99.0867 9.22031 100.5V100.72H6.86031ZM10.9041 91.48C10.9041 90.3467 11.1307 89.3533 11.5841 88.5C12.0507 87.6333 12.6907 86.9667 13.5041 86.5C14.3174 86.0333 15.2507 85.8 16.3041 85.8C17.6374 85.8 18.7374 86.12 19.6041 86.76C20.4841 87.3867 21.0774 88.2867 21.3841 89.46H18.9241C18.7241 88.9133 18.4041 88.4867 17.9641 88.18C17.5241 87.8733 16.9707 87.72 16.3041 87.72C15.3707 87.72 14.6241 88.0533 14.0641 88.72C13.5174 89.3733 13.2441 90.2933 13.2441 91.48C13.2441 92.6667 13.5174 93.5933 14.0641 94.26C14.6241 94.9267 15.3707 95.26 16.3041 95.26C17.6241 95.26 18.4974 94.68 18.9241 93.52H21.3841C21.0641 94.64 20.4641 95.5333 19.5841 96.2C18.7041 96.8533 17.6107 97.18 16.3041 97.18C15.2507 97.18 14.3174 96.9467 13.5041 96.48C12.6907 96 12.0507 95.3333 11.5841 94.48C11.1307 93.6133 10.9041 92.6133 10.9041 91.48ZM29.3563 85.8C30.1963 85.8 30.9429 85.98 31.5963 86.34C32.2629 86.7 32.7829 87.2333 33.1563 87.94C33.5429 88.6467 33.7363 89.5 33.7363 90.5V97H31.4763V90.84C31.4763 89.8533 31.2296 89.1 30.7363 88.58C30.2429 88.0467 29.5696 87.78 28.7163 87.78C27.8629 87.78 27.1829 88.0467 26.6763 88.58C26.1829 89.1 25.9363 89.8533 25.9363 90.84V97H23.6563V82.2H25.9363V87.26C26.3229 86.7933 26.8096 86.4333 27.3963 86.18C27.9963 85.9267 28.6496 85.8 29.3563 85.8ZM37.8045 84.52C37.3912 84.52 37.0445 84.38 36.7645 84.1C36.4845 83.82 36.3445 83.4733 36.3445 83.06C36.3445 82.6467 36.4845 82.3 36.7645 82.02C37.0445 81.74 37.3912 81.6 37.8045 81.6C38.2045 81.6 38.5445 81.74 38.8245 82.02C39.1045 82.3 39.2445 82.6467 39.2445 83.06C39.2445 83.4733 39.1045 83.82 38.8245 84.1C38.5445 84.38 38.2045 84.52 37.8045 84.52ZM38.9245 85.98V97H36.6445V85.98H38.9245ZM52.018 91.22C52.018 91.6333 51.9913 92.0067 51.938 92.34H43.518C43.5846 93.22 43.9113 93.9267 44.498 94.46C45.0846 94.9933 45.8046 95.26 46.658 95.26C47.8846 95.26 48.7513 94.7467 49.258 93.72H51.718C51.3846 94.7333 50.778 95.5667 49.898 96.22C49.0313 96.86 47.9513 97.18 46.658 97.18C45.6046 97.18 44.658 96.9467 43.818 96.48C42.9913 96 42.338 95.3333 41.858 94.48C41.3913 93.6133 41.158 92.6133 41.158 91.48C41.158 90.3467 41.3846 89.3533 41.838 88.5C42.3046 87.6333 42.9513 86.9667 43.778 86.5C44.618 86.0333 45.578 85.8 46.658 85.8C47.698 85.8 48.6246 86.0267 49.438 86.48C50.2513 86.9333 50.8846 87.5733 51.338 88.4C51.7913 89.2133 52.018 90.1533 52.018 91.22ZM49.638 90.5C49.6246 89.66 49.3246 88.9867 48.738 88.48C48.1513 87.9733 47.4246 87.72 46.558 87.72C45.7713 87.72 45.098 87.9733 44.538 88.48C43.978 88.9733 43.6446 89.6467 43.538 90.5H49.638ZM64.2417 85.98V97H61.9617V95.7C61.6017 96.1533 61.1284 96.5133 60.5417 96.78C59.9684 97.0333 59.3551 97.16 58.7017 97.16C57.8351 97.16 57.0551 96.98 56.3617 96.62C55.6817 96.26 55.1417 95.7267 54.7417 95.02C54.3551 94.3133 54.1617 93.46 54.1617 92.46V85.98H56.4217V92.12C56.4217 93.1067 56.6684 93.8667 57.1617 94.4C57.6551 94.92 58.3284 95.18 59.1817 95.18C60.0351 95.18 60.7084 94.92 61.2017 94.4C61.7084 93.8667 61.9617 93.1067 61.9617 92.12V85.98H64.2417ZM69.91 87.84V93.94C69.91 94.3533 70.0033 94.6533 70.19 94.84C70.39 95.0133 70.7233 95.1 71.19 95.1H72.59V97H70.79C69.7633 97 68.9767 96.76 68.43 96.28C67.8833 95.8 67.61 95.02 67.61 93.94V87.84H66.31V85.98H67.61V83.24H69.91V85.98H72.59V87.84H69.91ZM87.2867 78.12L81.8467 100.5H79.6067L85.0267 78.12H87.2867ZM94.5955 91.48C94.5955 90.3467 94.8221 89.3533 95.2755 88.5C95.7421 87.6333 96.3821 86.9667 97.1955 86.5C98.0088 86.0333 98.9421 85.8 99.9955 85.8C101.329 85.8 102.429 86.12 103.295 86.76C104.175 87.3867 104.769 88.2867 105.075 89.46H102.615C102.415 88.9133 102.095 88.4867 101.655 88.18C101.215 87.8733 100.662 87.72 99.9955 87.72C99.0621 87.72 98.3155 88.0533 97.7555 88.72C97.2088 89.3733 96.9355 90.2933 96.9355 91.48C96.9355 92.6667 97.2088 93.5933 97.7555 94.26C98.3155 94.9267 99.0621 95.26 99.9955 95.26C101.315 95.26 102.189 94.68 102.615 93.52H105.075C104.755 94.64 104.155 95.5333 103.275 96.2C102.395 96.8533 101.302 97.18 99.9955 97.18C98.9421 97.18 98.0088 96.9467 97.1955 96.48C96.3821 96 95.7421 95.3333 95.2755 94.48C94.8221 93.6133 94.5955 92.6133 94.5955 91.48ZM113.048 85.8C113.888 85.8 114.634 85.98 115.288 86.34C115.954 86.7 116.474 87.2333 116.848 87.94C117.234 88.6467 117.428 89.5 117.428 90.5V97H115.168V90.84C115.168 89.8533 114.921 89.1 114.428 88.58C113.934 88.0467 113.261 87.78 112.408 87.78C111.554 87.78 110.874 88.0467 110.368 88.58C109.874 89.1 109.628 89.8533 109.628 90.84V97H107.348V82.2H109.628V87.26C110.014 86.7933 110.501 86.4333 111.088 86.18C111.688 85.9267 112.341 85.8 113.048 85.8ZM119.776 100.72V100.5C121.149 99.0867 122.196 97.44 122.916 95.56C123.636 93.68 123.996 91.7333 123.996 89.72C123.996 87.6267 123.609 85.5933 122.836 83.62C122.063 81.6467 120.909 79.9533 119.376 78.54V78.32H121.736C123.203 79.6267 124.309 81.2867 125.056 83.3C125.816 85.3133 126.196 87.4533 126.196 89.72C126.196 91.9333 125.843 94.0067 125.136 95.94C124.443 97.8733 123.443 99.4667 122.136 100.72H119.776Z" fill="black"/>
</svg>
