<svg width="120" height="105" viewBox="0 0 120 105" fill="none" xmlns="http://www.w3.org/2000/svg">
<path d="M45.502 23.45H74.402V28.75H52.202V44.9H45.502V23.45ZM45.502 43.25H74.752V48.5H45.502V43.25Z" fill="black"/>
<path d="M7.00875 100.72C5.70208 99.4667 4.69542 97.8733 3.98875 95.94C3.29542 94.0067 2.94875 91.9333 2.94875 89.72C2.94875 87.4533 3.32208 85.3133 4.06875 83.3C4.82875 81.2867 5.94208 79.6267 7.40875 78.32H9.76875V78.54C8.23542 79.9533 7.08208 81.6467 6.30875 83.62C5.53542 85.5933 5.14875 87.6267 5.14875 89.72C5.14875 91.7333 5.50875 93.68 6.22875 95.56C6.94875 97.44 7.99542 99.0867 9.36875 100.5V100.72H7.00875ZM11.0525 91.44C11.0525 90.3333 11.2792 89.3533 11.7325 88.5C12.1992 87.6467 12.8258 86.9867 13.6125 86.52C14.4125 86.04 15.2992 85.8 16.2725 85.8C16.9925 85.8 17.6992 85.96 18.3925 86.28C19.0992 86.5867 19.6592 87 20.0725 87.52V82.2H22.3725V97H20.0725V95.34C19.6992 95.8733 19.1792 96.3133 18.5125 96.66C17.8592 97.0067 17.1058 97.18 16.2525 97.18C15.2925 97.18 14.4125 96.94 13.6125 96.46C12.8258 95.9667 12.1992 95.2867 11.7325 94.42C11.2792 93.54 11.0525 92.5467 11.0525 91.44ZM20.0725 91.48C20.0725 90.72 19.9125 90.06 19.5925 89.5C19.2858 88.94 18.8792 88.5133 18.3725 88.22C17.8658 87.9267 17.3192 87.78 16.7325 87.78C16.1458 87.78 15.5992 87.9267 15.0925 88.22C14.5858 88.5 14.1725 88.92 13.8525 89.48C13.5458 90.0267 13.3925 90.68 13.3925 91.44C13.3925 92.2 13.5458 92.8667 13.8525 93.44C14.1725 94.0133 14.5858 94.4533 15.0925 94.76C15.6125 95.0533 16.1592 95.2 16.7325 95.2C17.3192 95.2 17.8658 95.0533 18.3725 94.76C18.8792 94.4667 19.2858 94.04 19.5925 93.48C19.9125 92.9067 20.0725 92.24 20.0725 91.48ZM26.5272 84.52C26.1139 84.52 25.7672 84.38 25.4872 84.1C25.2072 83.82 25.0672 83.4733 25.0672 83.06C25.0672 82.6467 25.2072 82.3 25.4872 82.02C25.7672 81.74 26.1139 81.6 26.5272 81.6C26.9272 81.6 27.2672 81.74 27.5472 82.02C27.8272 82.3 27.9672 82.6467 27.9672 83.06C27.9672 83.4733 27.8272 83.82 27.5472 84.1C27.2672 84.38 26.9272 84.52 26.5272 84.52ZM27.6472 85.98V97H25.3672V85.98H27.6472ZM35.0806 85.8C35.934 85.8 36.6873 85.9733 37.3406 86.32C38.0073 86.6533 38.5273 87.0733 38.9006 87.58V85.98H41.2006V97.18C41.2006 98.1933 40.9873 99.0933 40.5606 99.88C40.134 100.68 39.514 101.307 38.7006 101.76C37.9006 102.213 36.9406 102.44 35.8206 102.44C34.3273 102.44 33.0873 102.087 32.1006 101.38C31.114 100.687 30.554 99.74 30.4206 98.54H32.6806C32.854 99.1133 33.2206 99.5733 33.7806 99.92C34.354 100.28 35.034 100.46 35.8206 100.46C36.7406 100.46 37.4806 100.18 38.0406 99.62C38.614 99.06 38.9006 98.2467 38.9006 97.18V95.34C38.514 95.86 37.9873 96.3 37.3206 96.66C36.6673 97.0067 35.9206 97.18 35.0806 97.18C34.1206 97.18 33.2406 96.94 32.4406 96.46C31.654 95.9667 31.0273 95.2867 30.5606 94.42C30.1073 93.54 29.8806 92.5467 29.8806 91.44C29.8806 90.3333 30.1073 89.3533 30.5606 88.5C31.0273 87.6467 31.654 86.9867 32.4406 86.52C33.2406 86.04 34.1206 85.8 35.0806 85.8ZM38.9006 91.48C38.9006 90.72 38.7406 90.06 38.4206 89.5C38.114 88.94 37.7073 88.5133 37.2006 88.22C36.694 87.9267 36.1473 87.78 35.5606 87.78C34.974 87.78 34.4273 87.9267 33.9206 88.22C33.414 88.5 33.0006 88.92 32.6806 89.48C32.374 90.0267 32.2206 90.68 32.2206 91.44C32.2206 92.2 32.374 92.8667 32.6806 93.44C33.0006 94.0133 33.414 94.4533 33.9206 94.76C34.4406 95.0533 34.9873 95.2 35.5606 95.2C36.1473 95.2 36.694 95.0533 37.2006 94.76C37.7073 94.4667 38.114 94.04 38.4206 93.48C38.7406 92.9067 38.9006 92.24 38.9006 91.48ZM54.2953 91.22C54.2953 91.6333 54.2686 92.0067 54.2153 92.34H45.7953C45.862 93.22 46.1886 93.9267 46.7753 94.46C47.362 94.9933 48.082 95.26 48.9353 95.26C50.162 95.26 51.0286 94.7467 51.5353 93.72H53.9953C53.662 94.7333 53.0553 95.5667 52.1753 96.22C51.3086 96.86 50.2286 97.18 48.9353 97.18C47.882 97.18 46.9353 96.9467 46.0953 96.48C45.2686 96 44.6153 95.3333 44.1353 94.48C43.6686 93.6133 43.4353 92.6133 43.4353 91.48C43.4353 90.3467 43.662 89.3533 44.1153 88.5C44.582 87.6333 45.2286 86.9667 46.0553 86.5C46.8953 86.0333 47.8553 85.8 48.9353 85.8C49.9753 85.8 50.902 86.0267 51.7153 86.48C52.5286 86.9333 53.162 87.5733 53.6153 88.4C54.0686 89.2133 54.2953 90.1533 54.2953 91.22ZM51.9153 90.5C51.902 89.66 51.602 88.9867 51.0153 88.48C50.4286 87.9733 49.702 87.72 48.8353 87.72C48.0486 87.72 47.3753 87.9733 46.8153 88.48C46.2553 88.9733 45.922 89.6467 45.8153 90.5H51.9153ZM66.5191 85.98V97H64.2391V95.7C63.8791 96.1533 63.4057 96.5133 62.8191 96.78C62.2457 97.0333 61.6324 97.16 60.9791 97.16C60.1124 97.16 59.3324 96.98 58.6391 96.62C57.9591 96.26 57.4191 95.7267 57.0191 95.02C56.6324 94.3133 56.4391 93.46 56.4391 92.46V85.98H58.6991V92.12C58.6991 93.1067 58.9457 93.8667 59.4391 94.4C59.9324 94.92 60.6057 95.18 61.4591 95.18C62.3124 95.18 62.9857 94.92 63.4791 94.4C63.9857 93.8667 64.2391 93.1067 64.2391 92.12V85.98H66.5191ZM72.1873 87.84V93.94C72.1873 94.3533 72.2807 94.6533 72.4673 94.84C72.6673 95.0133 73.0007 95.1 73.4673 95.1H74.8673V97H73.0673C72.0407 97 71.254 96.76 70.7073 96.28C70.1607 95.8 69.8873 95.02 69.8873 93.94V87.84H68.5873V85.98H69.8873V83.24H72.1873V85.98H74.8673V87.84H72.1873ZM89.5641 78.12L84.1241 100.5H81.8841L87.3041 78.12H89.5641ZM96.8728 91.44C96.8728 90.3333 97.0995 89.3533 97.5528 88.5C98.0195 87.6467 98.6461 86.9867 99.4328 86.52C100.233 86.04 101.119 85.8 102.093 85.8C102.813 85.8 103.519 85.96 104.213 86.28C104.919 86.5867 105.479 87 105.893 87.52V82.2H108.193V97H105.893V95.34C105.519 95.8733 104.999 96.3133 104.333 96.66C103.679 97.0067 102.926 97.18 102.073 97.18C101.113 97.18 100.233 96.94 99.4328 96.46C98.6461 95.9667 98.0195 95.2867 97.5528 94.42C97.0995 93.54 96.8728 92.5467 96.8728 91.44ZM105.893 91.48C105.893 90.72 105.733 90.06 105.413 89.5C105.106 88.94 104.699 88.5133 104.193 88.22C103.686 87.9267 103.139 87.78 102.553 87.78C101.966 87.78 101.419 87.9267 100.913 88.22C100.406 88.5 99.9928 88.92 99.6728 89.48C99.3661 90.0267 99.2128 90.68 99.2128 91.44C99.2128 92.2 99.3661 92.8667 99.6728 93.44C99.9928 94.0133 100.406 94.4533 100.913 94.76C101.433 95.0533 101.979 95.2 102.553 95.2C103.139 95.2 103.686 95.0533 104.193 94.76C104.699 94.4667 105.106 94.04 105.413 93.48C105.733 92.9067 105.893 92.24 105.893 91.48ZM110.628 100.72V100.5C112.001 99.0867 113.048 97.44 113.768 95.56C114.488 93.68 114.848 91.7333 114.848 89.72C114.848 87.6267 114.461 85.5933 113.688 83.62C112.914 81.6467 111.761 79.9533 110.228 78.54V78.32H112.588C114.054 79.6267 115.161 81.2867 115.908 83.3C116.668 85.3133 117.048 87.4533 117.048 89.72C117.048 91.9333 116.694 94.0067 115.988 95.94C115.294 97.8733 114.294 99.4667 112.988 100.72H110.628Z" fill="black"/>
</svg>
