<svg width="121" height="105" viewBox="0 0 121 105" fill="none" xmlns="http://www.w3.org/2000/svg">
<path d="M46.302 23.6H75.652V48.5H69.052V28.9H46.302V23.6Z" fill="black"/>
<path d="M6.76656 100.72C5.4599 99.4667 4.45323 97.8733 3.74656 95.94C3.05323 94.0067 2.70656 91.9333 2.70656 89.72C2.70656 87.4533 3.0799 85.3133 3.82656 83.3C4.58656 81.2867 5.6999 79.6267 7.16656 78.32H9.52656V78.54C7.99323 79.9533 6.8399 81.6467 6.06656 83.62C5.29323 85.5933 4.90656 87.6267 4.90656 89.72C4.90656 91.7333 5.26656 93.68 5.98656 95.56C6.70656 97.44 7.75323 99.0867 9.12656 100.5V100.72H6.76656ZM16.0103 85.8C16.8636 85.8 17.617 85.9733 18.2703 86.32C18.937 86.6533 19.457 87.0733 19.8303 87.58V85.98H22.1303V97.18C22.1303 98.1933 21.917 99.0933 21.4903 99.88C21.0636 100.68 20.4436 101.307 19.6303 101.76C18.8303 102.213 17.8703 102.44 16.7503 102.44C15.257 102.44 14.017 102.087 13.0303 101.38C12.0436 100.687 11.4836 99.74 11.3503 98.54H13.6103C13.7836 99.1133 14.1503 99.5733 14.7103 99.92C15.2836 100.28 15.9636 100.46 16.7503 100.46C17.6703 100.46 18.4103 100.18 18.9703 99.62C19.5436 99.06 19.8303 98.2467 19.8303 97.18V95.34C19.4436 95.86 18.917 96.3 18.2503 96.66C17.597 97.0067 16.8503 97.18 16.0103 97.18C15.0503 97.18 14.1703 96.94 13.3703 96.46C12.5836 95.9667 11.957 95.2867 11.4903 94.42C11.037 93.54 10.8103 92.5467 10.8103 91.44C10.8103 90.3333 11.037 89.3533 11.4903 88.5C11.957 87.6467 12.5836 86.9867 13.3703 86.52C14.1703 86.04 15.0503 85.8 16.0103 85.8ZM19.8303 91.48C19.8303 90.72 19.6703 90.06 19.3503 89.5C19.0436 88.94 18.637 88.5133 18.1303 88.22C17.6236 87.9267 17.077 87.78 16.4903 87.78C15.9036 87.78 15.357 87.9267 14.8503 88.22C14.3436 88.5 13.9303 88.92 13.6103 89.48C13.3036 90.0267 13.1503 90.68 13.1503 91.44C13.1503 92.2 13.3036 92.8667 13.6103 93.44C13.9303 94.0133 14.3436 94.4533 14.8503 94.76C15.3703 95.0533 15.917 95.2 16.4903 95.2C17.077 95.2 17.6236 95.0533 18.1303 94.76C18.637 94.4667 19.0436 94.04 19.3503 93.48C19.6703 92.9067 19.8303 92.24 19.8303 91.48ZM26.285 84.52C25.8717 84.52 25.525 84.38 25.245 84.1C24.965 83.82 24.825 83.4733 24.825 83.06C24.825 82.6467 24.965 82.3 25.245 82.02C25.525 81.74 25.8717 81.6 26.285 81.6C26.685 81.6 27.025 81.74 27.305 82.02C27.585 82.3 27.725 82.6467 27.725 83.06C27.725 83.4733 27.585 83.82 27.305 84.1C27.025 84.38 26.685 84.52 26.285 84.52ZM27.405 85.98V97H25.125V85.98H27.405ZM40.3184 85.98L33.5584 102.18H31.1984L33.4384 96.82L29.0984 85.98H31.6384L34.7384 94.38L37.9584 85.98H40.3184ZM52.1391 91.22C52.1391 91.6333 52.1124 92.0067 52.0591 92.34H43.6391C43.7057 93.22 44.0324 93.9267 44.6191 94.46C45.2057 94.9933 45.9257 95.26 46.7791 95.26C48.0057 95.26 48.8724 94.7467 49.3791 93.72H51.8391C51.5057 94.7333 50.8991 95.5667 50.0191 96.22C49.1524 96.86 48.0724 97.18 46.7791 97.18C45.7257 97.18 44.7791 96.9467 43.9391 96.48C43.1124 96 42.4591 95.3333 41.9791 94.48C41.5124 93.6133 41.2791 92.6133 41.2791 91.48C41.2791 90.3467 41.5057 89.3533 41.9591 88.5C42.4257 87.6333 43.0724 86.9667 43.8991 86.5C44.7391 86.0333 45.6991 85.8 46.7791 85.8C47.8191 85.8 48.7457 86.0267 49.5591 86.48C50.3724 86.9333 51.0057 87.5733 51.4591 88.4C51.9124 89.2133 52.1391 90.1533 52.1391 91.22ZM49.7591 90.5C49.7457 89.66 49.4457 88.9867 48.8591 88.48C48.2724 87.9733 47.5457 87.72 46.6791 87.72C45.8924 87.72 45.2191 87.9733 44.6591 88.48C44.0991 88.9733 43.7657 89.6467 43.6591 90.5H49.7591ZM59.1628 97.18C58.1228 97.18 57.1828 96.9467 56.3428 96.48C55.5028 96 54.8428 95.3333 54.3628 94.48C53.8828 93.6133 53.6428 92.6133 53.6428 91.48C53.6428 90.36 53.8895 89.3667 54.3828 88.5C54.8761 87.6333 55.5495 86.9667 56.4028 86.5C57.2561 86.0333 58.2095 85.8 59.2628 85.8C60.3161 85.8 61.2695 86.0333 62.1228 86.5C62.9761 86.9667 63.6495 87.6333 64.1428 88.5C64.6361 89.3667 64.8828 90.36 64.8828 91.48C64.8828 92.6 64.6295 93.5933 64.1228 94.46C63.6161 95.3267 62.9228 96 62.0428 96.48C61.1761 96.9467 60.2161 97.18 59.1628 97.18ZM59.1628 95.2C59.7495 95.2 60.2961 95.06 60.8028 94.78C61.3228 94.5 61.7428 94.08 62.0628 93.52C62.3828 92.96 62.5428 92.28 62.5428 91.48C62.5428 90.68 62.3895 90.0067 62.0828 89.46C61.7761 88.9 61.3695 88.48 60.8628 88.2C60.3561 87.92 59.8095 87.78 59.2228 87.78C58.6361 87.78 58.0895 87.92 57.5828 88.2C57.0895 88.48 56.6961 88.9 56.4028 89.46C56.1095 90.0067 55.9628 90.68 55.9628 91.48C55.9628 92.6667 56.2628 93.5867 56.8628 94.24C57.4761 94.88 58.2428 95.2 59.1628 95.2ZM71.4967 91.5L76.5767 97H73.4967L69.4167 92.26V97H67.1367V82.2H69.4167V90.8L73.4167 85.98H76.5767L71.4967 91.5ZM90.8063 78.12L85.3663 100.5H83.1263L88.5463 78.12H90.8063ZM103.315 85.8C104.168 85.8 104.922 85.9733 105.575 86.32C106.242 86.6533 106.762 87.0733 107.135 87.58V85.98H109.435V97.18C109.435 98.1933 109.222 99.0933 108.795 99.88C108.368 100.68 107.748 101.307 106.935 101.76C106.135 102.213 105.175 102.44 104.055 102.44C102.562 102.44 101.322 102.087 100.335 101.38C99.3483 100.687 98.7883 99.74 98.655 98.54H100.915C101.088 99.1133 101.455 99.5733 102.015 99.92C102.588 100.28 103.268 100.46 104.055 100.46C104.975 100.46 105.715 100.18 106.275 99.62C106.848 99.06 107.135 98.2467 107.135 97.18V95.34C106.748 95.86 106.222 96.3 105.555 96.66C104.902 97.0067 104.155 97.18 103.315 97.18C102.355 97.18 101.475 96.94 100.675 96.46C99.8883 95.9667 99.2617 95.2867 98.795 94.42C98.3417 93.54 98.115 92.5467 98.115 91.44C98.115 90.3333 98.3417 89.3533 98.795 88.5C99.2617 87.6467 99.8883 86.9867 100.675 86.52C101.475 86.04 102.355 85.8 103.315 85.8ZM107.135 91.48C107.135 90.72 106.975 90.06 106.655 89.5C106.348 88.94 105.942 88.5133 105.435 88.22C104.928 87.9267 104.382 87.78 103.795 87.78C103.208 87.78 102.662 87.9267 102.155 88.22C101.648 88.5 101.235 88.92 100.915 89.48C100.608 90.0267 100.455 90.68 100.455 91.44C100.455 92.2 100.608 92.8667 100.915 93.44C101.235 94.0133 101.648 94.4533 102.155 94.76C102.675 95.0533 103.222 95.2 103.795 95.2C104.382 95.2 104.928 95.0533 105.435 94.76C105.942 94.4667 106.348 94.04 106.655 93.48C106.975 92.9067 107.135 92.24 107.135 91.48ZM111.87 100.72V100.5C113.243 99.0867 114.29 97.44 115.01 95.56C115.73 93.68 116.09 91.7333 116.09 89.72C116.09 87.6267 115.703 85.5933 114.93 83.62C114.156 81.6467 113.003 79.9533 111.47 78.54V78.32H113.83C115.296 79.6267 116.403 81.2867 117.15 83.3C117.91 85.3133 118.29 87.4533 118.29 89.72C118.29 91.9333 117.936 94.0067 117.23 95.94C116.536 97.8733 115.536 99.4667 114.23 100.72H111.87Z" fill="black"/>
</svg>
