<svg width="105" height="105" viewBox="0 0 105 105" fill="none" xmlns="http://www.w3.org/2000/svg">
<path d="M36.802 25.15H67.402V30.55H36.802V25.15ZM52.152 32.95C59.152 32.95 64.302 36.7 64.302 42C64.302 47.3 59.152 51.05 52.152 51.05C45.202 51.05 40.052 47.3 40.052 42C40.052 36.7 45.202 32.95 52.152 32.95ZM52.152 38.5C49.102 38.5 46.852 39.7 46.852 42C46.852 44.3 49.102 45.5 52.152 45.5C55.202 45.5 57.502 44.3 57.502 42C57.502 39.7 55.202 38.5 52.152 38.5ZM48.852 19.45H55.502V29.9H48.852V19.45Z" fill="black"/>
<path d="M6.8525 100.72C5.54583 99.4667 4.53917 97.8733 3.8325 95.94C3.13917 94.0067 2.7925 91.9333 2.7925 89.72C2.7925 87.4533 3.16583 85.3133 3.9125 83.3C4.6725 81.2867 5.78583 79.6267 7.2525 78.32H9.6125V78.54C8.07917 79.9533 6.92583 81.6467 6.1525 83.62C5.37917 85.5933 4.9925 87.6267 4.9925 89.72C4.9925 91.7333 5.3525 93.68 6.0725 95.56C6.7925 97.44 7.83917 99.0867 9.2125 100.5V100.72H6.8525ZM17.3563 85.8C18.1963 85.8 18.9429 85.98 19.5963 86.34C20.2629 86.7 20.7829 87.2333 21.1563 87.94C21.5429 88.6467 21.7363 89.5 21.7363 90.5V97H19.4763V90.84C19.4763 89.8533 19.2296 89.1 18.7363 88.58C18.2429 88.0467 17.5696 87.78 16.7163 87.78C15.8629 87.78 15.1829 88.0467 14.6763 88.58C14.1829 89.1 13.9363 89.8533 13.9363 90.84V97H11.6563V82.2H13.9363V87.26C14.3229 86.7933 14.8096 86.4333 15.3963 86.18C15.9963 85.9267 16.6496 85.8 17.3563 85.8ZM25.8045 84.52C25.3912 84.52 25.0445 84.38 24.7645 84.1C24.4845 83.82 24.3445 83.4733 24.3445 83.06C24.3445 82.6467 24.4845 82.3 24.7645 82.02C25.0445 81.74 25.3912 81.6 25.8045 81.6C26.2045 81.6 26.5445 81.74 26.8245 82.02C27.1045 82.3 27.2445 82.6467 27.2445 83.06C27.2445 83.4733 27.1045 83.82 26.8245 84.1C26.5445 84.38 26.2045 84.52 25.8045 84.52ZM26.9245 85.98V97H24.6445V85.98H26.9245ZM40.018 91.22C40.018 91.6333 39.9913 92.0067 39.938 92.34H31.518C31.5846 93.22 31.9113 93.9267 32.498 94.46C33.0846 94.9933 33.8046 95.26 34.658 95.26C35.8846 95.26 36.7513 94.7467 37.258 93.72H39.718C39.3846 94.7333 38.778 95.5667 37.898 96.22C37.0313 96.86 35.9513 97.18 34.658 97.18C33.6046 97.18 32.658 96.9467 31.818 96.48C30.9913 96 30.338 95.3333 29.858 94.48C29.3913 93.6133 29.158 92.6133 29.158 91.48C29.158 90.3467 29.3846 89.3533 29.838 88.5C30.3046 87.6333 30.9513 86.9667 31.778 86.5C32.618 86.0333 33.578 85.8 34.658 85.8C35.698 85.8 36.6246 86.0267 37.438 86.48C38.2513 86.9333 38.8846 87.5733 39.338 88.4C39.7913 89.2133 40.018 90.1533 40.018 91.22ZM37.638 90.5C37.6246 89.66 37.3246 88.9867 36.738 88.48C36.1513 87.9733 35.4246 87.72 34.558 87.72C33.7713 87.72 33.098 87.9733 32.538 88.48C31.978 88.9733 31.6446 89.6467 31.538 90.5H37.638ZM52.2417 85.98V97H49.9617V95.7C49.6017 96.1533 49.1284 96.5133 48.5417 96.78C47.9684 97.0333 47.3551 97.16 46.7017 97.16C45.8351 97.16 45.0551 96.98 44.3617 96.62C43.6817 96.26 43.1417 95.7267 42.7417 95.02C42.3551 94.3133 42.1617 93.46 42.1617 92.46V85.98H44.4217V92.12C44.4217 93.1067 44.6684 93.8667 45.1617 94.4C45.6551 94.92 46.3284 95.18 47.1817 95.18C48.0351 95.18 48.7084 94.92 49.2017 94.4C49.7084 93.8667 49.9617 93.1067 49.9617 92.12V85.98H52.2417ZM57.91 87.84V93.94C57.91 94.3533 58.0033 94.6533 58.19 94.84C58.39 95.0133 58.7233 95.1 59.19 95.1H60.59V97H58.79C57.7633 97 56.9767 96.76 56.43 96.28C55.8833 95.8 55.61 95.02 55.61 93.94V87.84H54.31V85.98H55.61V83.24H57.91V85.98H60.59V87.84H57.91ZM75.2867 78.12L69.8467 100.5H67.6067L73.0267 78.12H75.2867ZM89.0555 85.8C89.8955 85.8 90.6421 85.98 91.2955 86.34C91.9621 86.7 92.4821 87.2333 92.8555 87.94C93.2421 88.6467 93.4355 89.5 93.4355 90.5V97H91.1755V90.84C91.1755 89.8533 90.9288 89.1 90.4355 88.58C89.9421 88.0467 89.2688 87.78 88.4155 87.78C87.5621 87.78 86.8821 88.0467 86.3755 88.58C85.8821 89.1 85.6355 89.8533 85.6355 90.84V97H83.3555V82.2H85.6355V87.26C86.0221 86.7933 86.5088 86.4333 87.0955 86.18C87.6955 85.9267 88.3488 85.8 89.0555 85.8ZM95.7838 100.72V100.5C97.1571 99.0867 98.2038 97.44 98.9238 95.56C99.6438 93.68 100.004 91.7333 100.004 89.72C100.004 87.6267 99.6171 85.5933 98.8438 83.62C98.0704 81.6467 96.9171 79.9533 95.3838 78.54V78.32H97.7438C99.2104 79.6267 100.317 81.2867 101.064 83.3C101.824 85.3133 102.204 87.4533 102.204 89.72C102.204 91.9333 101.85 94.0067 101.144 95.94C100.45 97.8733 99.4504 99.4667 98.1438 100.72H95.7838Z" fill="black"/>
</svg>
