<svg width="125" height="105" viewBox="0 0 125 105" fill="none" xmlns="http://www.w3.org/2000/svg">
<path d="M59.002 22.8C67.152 22.8 73.752 28.35 73.752 35.9C73.752 43.5 67.152 49.05 59.002 49.05C50.902 49.05 44.252 43.5 44.252 35.9C44.252 28.35 50.902 22.8 59.002 22.8ZM59.002 28.45C54.302 28.45 50.602 31.35 50.602 35.9C50.602 40.5 54.302 43.45 59.002 43.45C63.702 43.45 67.402 40.5 67.402 35.9C67.402 31.35 63.702 28.45 59.002 28.45Z" fill="black"/>
<path d="M7.01852 100.72C5.71185 99.4667 4.70518 97.8733 3.99852 95.94C3.30518 94.0067 2.95852 91.9333 2.95852 89.72C2.95852 87.4533 3.33185 85.3133 4.07852 83.3C4.83852 81.2867 5.95185 79.6267 7.41852 78.32H9.77852V78.54C8.24518 79.9533 7.09185 81.6467 6.31852 83.62C5.54518 85.5933 5.15852 87.6267 5.15852 89.72C5.15852 91.7333 5.51852 93.68 6.23852 95.56C6.95852 97.44 8.00518 99.0867 9.37852 100.5V100.72H7.01852ZM12.9823 84.52C12.5689 84.52 12.2223 84.38 11.9423 84.1C11.6623 83.82 11.5223 83.4733 11.5223 83.06C11.5223 82.6467 11.6623 82.3 11.9423 82.02C12.2223 81.74 12.5689 81.6 12.9823 81.6C13.3823 81.6 13.7223 81.74 14.0023 82.02C14.2823 82.3 14.4223 82.6467 14.4223 83.06C14.4223 83.4733 14.2823 83.82 14.0023 84.1C13.7223 84.38 13.3823 84.52 12.9823 84.52ZM14.1023 85.98V97H11.8223V85.98H14.1023ZM27.1957 91.22C27.1957 91.6333 27.169 92.0067 27.1157 92.34H18.6957C18.7624 93.22 19.089 93.9267 19.6757 94.46C20.2624 94.9933 20.9824 95.26 21.8357 95.26C23.0624 95.26 23.929 94.7467 24.4357 93.72H26.8957C26.5624 94.7333 25.9557 95.5667 25.0757 96.22C24.209 96.86 23.129 97.18 21.8357 97.18C20.7824 97.18 19.8357 96.9467 18.9957 96.48C18.169 96 17.5157 95.3333 17.0357 94.48C16.569 93.6133 16.3357 92.6133 16.3357 91.48C16.3357 90.3467 16.5624 89.3533 17.0157 88.5C17.4824 87.6333 18.129 86.9667 18.9557 86.5C19.7957 86.0333 20.7557 85.8 21.8357 85.8C22.8757 85.8 23.8024 86.0267 24.6157 86.48C25.429 86.9333 26.0624 87.5733 26.5157 88.4C26.969 89.2133 27.1957 90.1533 27.1957 91.22ZM24.8157 90.5C24.8024 89.66 24.5024 88.9867 23.9157 88.48C23.329 87.9733 22.6024 87.72 21.7357 87.72C20.949 87.72 20.2757 87.9733 19.7157 88.48C19.1557 88.9733 18.8224 89.6467 18.7157 90.5H24.8157ZM39.4195 85.98V97H37.1395V95.7C36.7795 96.1533 36.3061 96.5133 35.7195 96.78C35.1461 97.0333 34.5328 97.16 33.8795 97.16C33.0128 97.16 32.2328 96.98 31.5395 96.62C30.8595 96.26 30.3195 95.7267 29.9195 95.02C29.5328 94.3133 29.3395 93.46 29.3395 92.46V85.98H31.5995V92.12C31.5995 93.1067 31.8461 93.8667 32.3395 94.4C32.8328 94.92 33.5061 95.18 34.3595 95.18C35.2128 95.18 35.8861 94.92 36.3795 94.4C36.8861 93.8667 37.1395 93.1067 37.1395 92.12V85.98H39.4195ZM47.9877 85.8C48.8544 85.8 49.6277 85.98 50.3077 86.34C51.0011 86.7 51.5411 87.2333 51.9277 87.94C52.3144 88.6467 52.5077 89.5 52.5077 90.5V97H50.2477V90.84C50.2477 89.8533 50.0011 89.1 49.5077 88.58C49.0144 88.0467 48.3411 87.78 47.4877 87.78C46.6344 87.78 45.9544 88.0467 45.4477 88.58C44.9544 89.1 44.7077 89.8533 44.7077 90.84V97H42.4277V85.98H44.7077V87.24C45.0811 86.7867 45.5544 86.4333 46.1277 86.18C46.7144 85.9267 47.3344 85.8 47.9877 85.8ZM59.856 85.8C60.7093 85.8 61.4627 85.9733 62.116 86.32C62.7827 86.6533 63.3027 87.0733 63.676 87.58V85.98H65.976V97.18C65.976 98.1933 65.7627 99.0933 65.336 99.88C64.9093 100.68 64.2893 101.307 63.476 101.76C62.676 102.213 61.716 102.44 60.596 102.44C59.1027 102.44 57.8627 102.087 56.876 101.38C55.8893 100.687 55.3293 99.74 55.196 98.54H57.456C57.6293 99.1133 57.996 99.5733 58.556 99.92C59.1293 100.28 59.8093 100.46 60.596 100.46C61.516 100.46 62.256 100.18 62.816 99.62C63.3893 99.06 63.676 98.2467 63.676 97.18V95.34C63.2893 95.86 62.7627 96.3 62.096 96.66C61.4427 97.0067 60.696 97.18 59.856 97.18C58.896 97.18 58.016 96.94 57.216 96.46C56.4293 95.9667 55.8027 95.2867 55.336 94.42C54.8827 93.54 54.656 92.5467 54.656 91.44C54.656 90.3333 54.8827 89.3533 55.336 88.5C55.8027 87.6467 56.4293 86.9867 57.216 86.52C58.016 86.04 58.896 85.8 59.856 85.8ZM63.676 91.48C63.676 90.72 63.516 90.06 63.196 89.5C62.8893 88.94 62.4827 88.5133 61.976 88.22C61.4693 87.9267 60.9227 87.78 60.336 87.78C59.7493 87.78 59.2027 87.9267 58.696 88.22C58.1893 88.5 57.776 88.92 57.456 89.48C57.1493 90.0267 56.996 90.68 56.996 91.44C56.996 92.2 57.1493 92.8667 57.456 93.44C57.776 94.0133 58.1893 94.4533 58.696 94.76C59.216 95.0533 59.7627 95.2 60.336 95.2C60.9227 95.2 61.4693 95.0533 61.976 94.76C62.4827 94.4667 62.8893 94.04 63.196 93.48C63.516 92.9067 63.676 92.24 63.676 91.48ZM81.566 78.12L76.126 100.5H73.886L79.306 78.12H81.566ZM95.1948 85.8C96.0614 85.8 96.8348 85.98 97.5148 86.34C98.2081 86.7 98.7481 87.2333 99.1348 87.94C99.5214 88.6467 99.7148 89.5 99.7148 90.5V97H97.4548V90.84C97.4548 89.8533 97.2081 89.1 96.7148 88.58C96.2214 88.0467 95.5481 87.78 94.6948 87.78C93.8414 87.78 93.1614 88.0467 92.6548 88.58C92.1614 89.1 91.9148 89.8533 91.9148 90.84V97H89.6348V85.98H91.9148V87.24C92.2881 86.7867 92.7614 86.4333 93.3348 86.18C93.9214 85.9267 94.5414 85.8 95.1948 85.8ZM107.063 85.8C107.916 85.8 108.67 85.9733 109.323 86.32C109.99 86.6533 110.51 87.0733 110.883 87.58V85.98H113.183V97.18C113.183 98.1933 112.97 99.0933 112.543 99.88C112.116 100.68 111.496 101.307 110.683 101.76C109.883 102.213 108.923 102.44 107.803 102.44C106.31 102.44 105.07 102.087 104.083 101.38C103.096 100.687 102.536 99.74 102.403 98.54H104.663C104.836 99.1133 105.203 99.5733 105.763 99.92C106.336 100.28 107.016 100.46 107.803 100.46C108.723 100.46 109.463 100.18 110.023 99.62C110.596 99.06 110.883 98.2467 110.883 97.18V95.34C110.496 95.86 109.97 96.3 109.303 96.66C108.65 97.0067 107.903 97.18 107.063 97.18C106.103 97.18 105.223 96.94 104.423 96.46C103.636 95.9667 103.01 95.2867 102.543 94.42C102.09 93.54 101.863 92.5467 101.863 91.44C101.863 90.3333 102.09 89.3533 102.543 88.5C103.01 87.6467 103.636 86.9867 104.423 86.52C105.223 86.04 106.103 85.8 107.063 85.8ZM110.883 91.48C110.883 90.72 110.723 90.06 110.403 89.5C110.096 88.94 109.69 88.5133 109.183 88.22C108.676 87.9267 108.13 87.78 107.543 87.78C106.956 87.78 106.41 87.9267 105.903 88.22C105.396 88.5 104.983 88.92 104.663 89.48C104.356 90.0267 104.203 90.68 104.203 91.44C104.203 92.2 104.356 92.8667 104.663 93.44C104.983 94.0133 105.396 94.4533 105.903 94.76C106.423 95.0533 106.97 95.2 107.543 95.2C108.13 95.2 108.676 95.0533 109.183 94.76C109.69 94.4667 110.096 94.04 110.403 93.48C110.723 92.9067 110.883 92.24 110.883 91.48ZM115.618 100.72V100.5C116.991 99.0867 118.038 97.44 118.758 95.56C119.478 93.68 119.838 91.7333 119.838 89.72C119.838 87.6267 119.451 85.5933 118.678 83.62C117.904 81.6467 116.751 79.9533 115.218 78.54V78.32H117.578C119.044 79.6267 120.151 81.2867 120.898 83.3C121.658 85.3133 122.038 87.4533 122.038 89.72C122.038 91.9333 121.684 94.0067 120.978 95.94C120.284 97.8733 119.284 99.4667 117.978 100.72H115.618Z" fill="black"/>
</svg>
