<svg width="89" height="105" viewBox="0 0 89 105" fill="none" xmlns="http://www.w3.org/2000/svg">
<path d="M41.802 23.9H47.102V29.5C47.102 39.2 42.102 46.45 31.952 49.15L28.902 44.05C37.902 42 41.802 36.2 41.802 29.5V23.9ZM43.152 23.9H48.402V29.5C48.402 36.2 52.352 42 61.302 44.05L58.252 49.15C48.152 46.45 43.152 39.2 43.152 29.5V23.9ZM30.502 23H60.002V28.3H30.502V23Z" fill="black"/>
<path d="M6.56734 100.72C5.26068 99.4667 4.25401 97.8733 3.54734 95.94C2.85401 94.0067 2.50734 91.9333 2.50734 89.72C2.50734 87.4533 2.88068 85.3133 3.62734 83.3C4.38734 81.2867 5.50068 79.6267 6.96734 78.32H9.32734V78.54C7.79401 79.9533 6.64068 81.6467 5.86734 83.62C5.09401 85.5933 4.70734 87.6267 4.70734 89.72C4.70734 91.7333 5.06734 93.68 5.78734 95.56C6.50734 97.44 7.55401 99.0867 8.92734 100.5V100.72H6.56734ZM12.5311 84.52C12.1178 84.52 11.7711 84.38 11.4911 84.1C11.2111 83.82 11.0711 83.4733 11.0711 83.06C11.0711 82.6467 11.2111 82.3 11.4911 82.02C11.7711 81.74 12.1178 81.6 12.5311 81.6C12.9311 81.6 13.2711 81.74 13.5511 82.02C13.8311 82.3 13.9711 82.6467 13.9711 83.06C13.9711 83.4733 13.8311 83.82 13.5511 84.1C13.2711 84.38 12.9311 84.52 12.5311 84.52ZM13.6511 99.16C13.6511 100.24 13.3778 101.02 12.8311 101.5C12.2978 101.993 11.5178 102.24 10.4911 102.24H9.31109V100.32H10.0911C10.5578 100.32 10.8844 100.227 11.0711 100.04C11.2711 99.8667 11.3711 99.5733 11.3711 99.16V85.98H13.6511V99.16ZM17.8045 84.52C17.3912 84.52 17.0445 84.38 16.7645 84.1C16.4845 83.82 16.3445 83.4733 16.3445 83.06C16.3445 82.6467 16.4845 82.3 16.7645 82.02C17.0445 81.74 17.3912 81.6 17.8045 81.6C18.2045 81.6 18.5445 81.74 18.8245 82.02C19.1045 82.3 19.2445 82.6467 19.2445 83.06C19.2445 83.4733 19.1045 83.82 18.8245 84.1C18.5445 84.38 18.2045 84.52 17.8045 84.52ZM18.9245 85.98V97H16.6445V85.98H18.9245ZM32.018 91.22C32.018 91.6333 31.9913 92.0067 31.938 92.34H23.518C23.5846 93.22 23.9113 93.9267 24.498 94.46C25.0846 94.9933 25.8046 95.26 26.658 95.26C27.8846 95.26 28.7513 94.7467 29.258 93.72H31.718C31.3846 94.7333 30.778 95.5667 29.898 96.22C29.0313 96.86 27.9513 97.18 26.658 97.18C25.6046 97.18 24.658 96.9467 23.818 96.48C22.9913 96 22.338 95.3333 21.858 94.48C21.3913 93.6133 21.158 92.6133 21.158 91.48C21.158 90.3467 21.3846 89.3533 21.838 88.5C22.3046 87.6333 22.9513 86.9667 23.778 86.5C24.618 86.0333 25.578 85.8 26.658 85.8C27.698 85.8 28.6246 86.0267 29.438 86.48C30.2513 86.9333 30.8846 87.5733 31.338 88.4C31.7913 89.2133 32.018 90.1533 32.018 91.22ZM29.638 90.5C29.6246 89.66 29.3246 88.9867 28.738 88.48C28.1513 87.9733 27.4246 87.72 26.558 87.72C25.7713 87.72 25.098 87.9733 24.538 88.48C23.978 88.9733 23.6446 89.6467 23.538 90.5H29.638ZM44.2417 85.98V97H41.9617V95.7C41.6017 96.1533 41.1284 96.5133 40.5417 96.78C39.9684 97.0333 39.3551 97.16 38.7017 97.16C37.8351 97.16 37.0551 96.98 36.3617 96.62C35.6817 96.26 35.1417 95.7267 34.7417 95.02C34.3551 94.3133 34.1617 93.46 34.1617 92.46V85.98H36.4217V92.12C36.4217 93.1067 36.6684 93.8667 37.1617 94.4C37.6551 94.92 38.3284 95.18 39.1817 95.18C40.0351 95.18 40.7084 94.92 41.2017 94.4C41.7084 93.8667 41.9617 93.1067 41.9617 92.12V85.98H44.2417ZM49.91 87.84V93.94C49.91 94.3533 50.0033 94.6533 50.19 94.84C50.39 95.0133 50.7233 95.1 51.19 95.1H52.59V97H50.79C49.7633 97 48.9767 96.76 48.43 96.28C47.8833 95.8 47.61 95.02 47.61 93.94V87.84H46.31V85.98H47.61V83.24H49.91V85.98H52.59V87.84H49.91ZM67.2867 78.12L61.8467 100.5H59.6067L65.0267 78.12H67.2867ZM76.5155 84.52C76.1021 84.52 75.7555 84.38 75.4755 84.1C75.1955 83.82 75.0555 83.4733 75.0555 83.06C75.0555 82.6467 75.1955 82.3 75.4755 82.02C75.7555 81.74 76.1021 81.6 76.5155 81.6C76.9155 81.6 77.2555 81.74 77.5355 82.02C77.8155 82.3 77.9555 82.6467 77.9555 83.06C77.9555 83.4733 77.8155 83.82 77.5355 84.1C77.2555 84.38 76.9155 84.52 76.5155 84.52ZM77.6355 99.16C77.6355 100.24 77.3621 101.02 76.8155 101.5C76.2821 101.993 75.5021 102.24 74.4755 102.24H73.2955V100.32H74.0755C74.5421 100.32 74.8688 100.227 75.0555 100.04C75.2555 99.8667 75.3555 99.5733 75.3555 99.16V85.98H77.6355V99.16ZM80.0689 100.72V100.5C81.4422 99.0867 82.4889 97.44 83.2089 95.56C83.9289 93.68 84.2889 91.7333 84.2889 89.72C84.2889 87.6267 83.9022 85.5933 83.1289 83.62C82.3556 81.6467 81.2022 79.9533 79.6689 78.54V78.32H82.0289C83.4956 79.6267 84.6022 81.2867 85.3489 83.3C86.1089 85.3133 86.4889 87.4533 86.4889 89.72C86.4889 91.9333 86.1356 94.0067 85.4289 95.94C84.7356 97.8733 83.7356 99.4667 82.4289 100.72H80.0689Z" fill="black"/>
</svg>
