<svg width="105" height="105" viewBox="0 0 105 105" fill="none" xmlns="http://www.w3.org/2000/svg">
<path d="M39.102 22.95H68.102V48.95H61.402V28.25H39.102V22.95ZM63.202 34.1V39.2L38.652 40.9L37.852 35.2L63.202 34.1Z" fill="black"/>
<path d="M6.95016 100.72C5.64349 99.4667 4.63682 97.8733 3.93016 95.94C3.23682 94.0067 2.89016 91.9333 2.89016 89.72C2.89016 87.4533 3.26349 85.3133 4.01016 83.3C4.77016 81.2867 5.88349 79.6267 7.35016 78.32H9.71016V78.54C8.17682 79.9533 7.02349 81.6467 6.25016 83.62C5.47682 85.5933 5.09016 87.6267 5.09016 89.72C5.09016 91.7333 5.45016 93.68 6.17016 95.56C6.89016 97.44 7.93682 99.0867 9.31016 100.5V100.72H6.95016ZM16.1139 91.5L21.1939 97H18.1139L14.0339 92.26V97H11.7539V82.2H14.0339V90.8L18.0339 85.98H21.1939L16.1139 91.5ZM23.9881 84.52C23.5748 84.52 23.2281 84.38 22.9481 84.1C22.6681 83.82 22.5281 83.4733 22.5281 83.06C22.5281 82.6467 22.6681 82.3 22.9481 82.02C23.2281 81.74 23.5748 81.6 23.9881 81.6C24.3881 81.6 24.7281 81.74 25.0081 82.02C25.2881 82.3 25.4281 82.6467 25.4281 83.06C25.4281 83.4733 25.2881 83.82 25.0081 84.1C24.7281 84.38 24.3881 84.52 23.9881 84.52ZM25.1081 85.98V97H22.8281V85.98H25.1081ZM38.2016 91.22C38.2016 91.6333 38.1749 92.0067 38.1216 92.34H29.7016C29.7682 93.22 30.0949 93.9267 30.6816 94.46C31.2682 94.9933 31.9882 95.26 32.8416 95.26C34.0682 95.26 34.9349 94.7467 35.4416 93.72H37.9016C37.5682 94.7333 36.9616 95.5667 36.0816 96.22C35.2149 96.86 34.1349 97.18 32.8416 97.18C31.7882 97.18 30.8416 96.9467 30.0016 96.48C29.1749 96 28.5216 95.3333 28.0416 94.48C27.5749 93.6133 27.3416 92.6133 27.3416 91.48C27.3416 90.3467 27.5682 89.3533 28.0216 88.5C28.4882 87.6333 29.1349 86.9667 29.9616 86.5C30.8016 86.0333 31.7616 85.8 32.8416 85.8C33.8816 85.8 34.8082 86.0267 35.6216 86.48C36.4349 86.9333 37.0682 87.5733 37.5216 88.4C37.9749 89.2133 38.2016 90.1533 38.2016 91.22ZM35.8216 90.5C35.8082 89.66 35.5082 88.9867 34.9216 88.48C34.3349 87.9733 33.6082 87.72 32.7416 87.72C31.9549 87.72 31.2816 87.9733 30.7216 88.48C30.1616 88.9733 29.8282 89.6467 29.7216 90.5H35.8216ZM50.4253 85.98V97H48.1453V95.7C47.7853 96.1533 47.312 96.5133 46.7253 96.78C46.152 97.0333 45.5386 97.16 44.8853 97.16C44.0186 97.16 43.2386 96.98 42.5453 96.62C41.8653 96.26 41.3253 95.7267 40.9253 95.02C40.5386 94.3133 40.3453 93.46 40.3453 92.46V85.98H42.6053V92.12C42.6053 93.1067 42.852 93.8667 43.3453 94.4C43.8386 94.92 44.512 95.18 45.3653 95.18C46.2186 95.18 46.892 94.92 47.3853 94.4C47.892 93.8667 48.1453 93.1067 48.1453 92.12V85.98H50.4253ZM57.7936 91.5L62.8736 97H59.7936L55.7136 92.26V97H53.4336V82.2H55.7136V90.8L59.7136 85.98H62.8736L57.7936 91.5ZM77.1031 78.12L71.6631 100.5H69.4231L74.8431 78.12H77.1031ZM89.5319 91.5L94.6119 97H91.5319L87.4519 92.26V97H85.1719V82.2H87.4519V90.8L91.4519 85.98H94.6119L89.5319 91.5ZM95.6861 100.72V100.5C97.0594 99.0867 98.1061 97.44 98.8261 95.56C99.5461 93.68 99.9061 91.7333 99.9061 89.72C99.9061 87.6267 99.5194 85.5933 98.7461 83.62C97.9728 81.6467 96.8194 79.9533 95.2861 78.54V78.32H97.6461C99.1128 79.6267 100.219 81.2867 100.966 83.3C101.726 85.3133 102.106 87.4533 102.106 89.72C102.106 91.9333 101.753 94.0067 101.046 95.94C100.353 97.8733 99.3528 99.4667 98.0461 100.72H95.6861Z" fill="black"/>
</svg>
