<svg width="134" height="105" viewBox="0 0 134 105" fill="none" xmlns="http://www.w3.org/2000/svg">
<path d="M52.402 23.7H81.752V48.15H52.402V23.7ZM75.152 29H59.002V42.9H75.152V29Z" fill="black"/>
<path d="M6.88961 100.72C5.58294 99.4667 4.57628 97.8733 3.86961 95.94C3.17628 94.0067 2.82961 91.9333 2.82961 89.72C2.82961 87.4533 3.20294 85.3133 3.94961 83.3C4.70961 81.2867 5.82294 79.6267 7.28961 78.32H9.64961V78.54C8.11628 79.9533 6.96294 81.6467 6.18961 83.62C5.41628 85.5933 5.02961 87.6267 5.02961 89.72C5.02961 91.7333 5.38961 93.68 6.10961 95.56C6.82961 97.44 7.87628 99.0867 9.24961 100.5V100.72H6.88961ZM25.0334 85.8C25.9 85.8 26.6734 85.98 27.3534 86.34C28.0467 86.7 28.5867 87.2333 28.9734 87.94C29.3734 88.6467 29.5734 89.5 29.5734 90.5V97H27.3134V90.84C27.3134 89.8533 27.0667 89.1 26.5734 88.58C26.08 88.0467 25.4067 87.78 24.5534 87.78C23.7 87.78 23.02 88.0467 22.5134 88.58C22.02 89.1 21.7734 89.8533 21.7734 90.84V97H19.5134V90.84C19.5134 89.8533 19.2667 89.1 18.7734 88.58C18.28 88.0467 17.6067 87.78 16.7534 87.78C15.9 87.78 15.22 88.0467 14.7134 88.58C14.22 89.1 13.9734 89.8533 13.9734 90.84V97H11.6934V85.98H13.9734V87.24C14.3467 86.7867 14.82 86.4333 15.3934 86.18C15.9667 85.9267 16.58 85.8 17.2334 85.8C18.1134 85.8 18.9 85.9867 19.5934 86.36C20.2867 86.7333 20.82 87.2733 21.1934 87.98C21.5267 87.3133 22.0467 86.7867 22.7534 86.4C23.46 86 24.22 85.8 25.0334 85.8ZM33.6346 84.52C33.2213 84.52 32.8746 84.38 32.5946 84.1C32.3146 83.82 32.1746 83.4733 32.1746 83.06C32.1746 82.6467 32.3146 82.3 32.5946 82.02C32.8746 81.74 33.2213 81.6 33.6346 81.6C34.0346 81.6 34.3746 81.74 34.6546 82.02C34.9346 82.3 35.0746 82.6467 35.0746 83.06C35.0746 83.4733 34.9346 83.82 34.6546 84.1C34.3746 84.38 34.0346 84.52 33.6346 84.52ZM34.7546 85.98V97H32.4746V85.98H34.7546ZM47.848 91.22C47.848 91.6333 47.8214 92.0067 47.768 92.34H39.348C39.4147 93.22 39.7414 93.9267 40.328 94.46C40.9147 94.9933 41.6347 95.26 42.488 95.26C43.7147 95.26 44.5814 94.7467 45.088 93.72H47.548C47.2147 94.7333 46.608 95.5667 45.728 96.22C44.8614 96.86 43.7814 97.18 42.488 97.18C41.4347 97.18 40.488 96.9467 39.648 96.48C38.8214 96 38.168 95.3333 37.688 94.48C37.2214 93.6133 36.988 92.6133 36.988 91.48C36.988 90.3467 37.2147 89.3533 37.668 88.5C38.1347 87.6333 38.7814 86.9667 39.608 86.5C40.448 86.0333 41.408 85.8 42.488 85.8C43.528 85.8 44.4547 86.0267 45.268 86.48C46.0814 86.9333 46.7147 87.5733 47.168 88.4C47.6214 89.2133 47.848 90.1533 47.848 91.22ZM45.468 90.5C45.4547 89.66 45.1547 88.9867 44.568 88.48C43.9814 87.9733 43.2547 87.72 42.388 87.72C41.6014 87.72 40.928 87.9733 40.368 88.48C39.808 88.9733 39.4747 89.6467 39.368 90.5H45.468ZM60.0718 85.98V97H57.7918V95.7C57.4318 96.1533 56.9585 96.5133 56.3718 96.78C55.7985 97.0333 55.1851 97.16 54.5318 97.16C53.6651 97.16 52.8851 96.98 52.1918 96.62C51.5118 96.26 50.9718 95.7267 50.5718 95.02C50.1851 94.3133 49.9918 93.46 49.9918 92.46V85.98H52.2518V92.12C52.2518 93.1067 52.4985 93.8667 52.9918 94.4C53.4851 94.92 54.1585 95.18 55.0118 95.18C55.8651 95.18 56.5385 94.92 57.0318 94.4C57.5385 93.8667 57.7918 93.1067 57.7918 92.12V85.98H60.0718ZM76.4201 85.8C77.2867 85.8 78.0601 85.98 78.7401 86.34C79.4334 86.7 79.9734 87.2333 80.3601 87.94C80.7601 88.6467 80.9601 89.5 80.9601 90.5V97H78.7001V90.84C78.7001 89.8533 78.4534 89.1 77.9601 88.58C77.4667 88.0467 76.7934 87.78 75.9401 87.78C75.0867 87.78 74.4067 88.0467 73.9001 88.58C73.4067 89.1 73.1601 89.8533 73.1601 90.84V97H70.9001V90.84C70.9001 89.8533 70.6534 89.1 70.1601 88.58C69.6667 88.0467 68.9934 87.78 68.1401 87.78C67.2867 87.78 66.6067 88.0467 66.1001 88.58C65.6067 89.1 65.3601 89.8533 65.3601 90.84V97H63.0801V85.98H65.3601V87.24C65.7334 86.7867 66.2067 86.4333 66.7801 86.18C67.3534 85.9267 67.9667 85.8 68.6201 85.8C69.5001 85.8 70.2867 85.9867 70.9801 86.36C71.6734 86.7333 72.2067 87.2733 72.5801 87.98C72.9134 87.3133 73.4334 86.7867 74.1401 86.4C74.8467 86 75.6067 85.8 76.4201 85.8ZM96.4566 78.12L91.0166 100.5H88.7766L94.1966 78.12H96.4566ZM117.865 85.8C118.732 85.8 119.505 85.98 120.185 86.34C120.879 86.7 121.419 87.2333 121.805 87.94C122.205 88.6467 122.405 89.5 122.405 90.5V97H120.145V90.84C120.145 89.8533 119.899 89.1 119.405 88.58C118.912 88.0467 118.239 87.78 117.385 87.78C116.532 87.78 115.852 88.0467 115.345 88.58C114.852 89.1 114.605 89.8533 114.605 90.84V97H112.345V90.84C112.345 89.8533 112.099 89.1 111.605 88.58C111.112 88.0467 110.439 87.78 109.585 87.78C108.732 87.78 108.052 88.0467 107.545 88.58C107.052 89.1 106.805 89.8533 106.805 90.84V97H104.525V85.98H106.805V87.24C107.179 86.7867 107.652 86.4333 108.225 86.18C108.799 85.9267 109.412 85.8 110.065 85.8C110.945 85.8 111.732 85.9867 112.425 86.36C113.119 86.7333 113.652 87.2733 114.025 87.98C114.359 87.3133 114.879 86.7867 115.585 86.4C116.292 86 117.052 85.8 117.865 85.8ZM124.747 100.72V100.5C126.12 99.0867 127.167 97.44 127.887 95.56C128.607 93.68 128.967 91.7333 128.967 89.72C128.967 87.6267 128.58 85.5933 127.807 83.62C127.033 81.6467 125.88 79.9533 124.347 78.54V78.32H126.707C128.173 79.6267 129.28 81.2867 130.027 83.3C130.787 85.3133 131.167 87.4533 131.167 89.72C131.167 91.9333 130.813 94.0067 130.107 95.94C129.413 97.8733 128.413 99.4667 127.107 100.72H124.747Z" fill="black"/>
</svg>
