<svg width="110" height="105" viewBox="0 0 110 105" fill="none" xmlns="http://www.w3.org/2000/svg">
<path d="M41.352 42.5H71.102V47.8H41.352V42.5ZM41.352 23.6H48.002V44.5H41.352V23.6Z" fill="black"/>
<path d="M6.57906 100.72C5.2724 99.4667 4.26573 97.8733 3.55906 95.94C2.86573 94.0067 2.51906 91.9333 2.51906 89.72C2.51906 87.4533 2.8924 85.3133 3.63906 83.3C4.39906 81.2867 5.5124 79.6267 6.97906 78.32H9.33906V78.54C7.80573 79.9533 6.6524 81.6467 5.87906 83.62C5.10573 85.5933 4.71906 87.6267 4.71906 89.72C4.71906 91.7333 5.07906 93.68 5.79906 95.56C6.51906 97.44 7.56573 99.0867 8.93906 100.5V100.72H6.57906ZM16.9428 85.8C17.8095 85.8 18.5828 85.98 19.2628 86.34C19.9561 86.7 20.4961 87.2333 20.8828 87.94C21.2695 88.6467 21.4628 89.5 21.4628 90.5V97H19.2028V90.84C19.2028 89.8533 18.9561 89.1 18.4628 88.58C17.9695 88.0467 17.2961 87.78 16.4428 87.78C15.5895 87.78 14.9095 88.0467 14.4028 88.58C13.9095 89.1 13.6628 89.8533 13.6628 90.84V97H11.3828V85.98H13.6628V87.24C14.0361 86.7867 14.5095 86.4333 15.0828 86.18C15.6695 85.9267 16.2895 85.8 16.9428 85.8ZM25.5311 84.52C25.1178 84.52 24.7711 84.38 24.4911 84.1C24.2111 83.82 24.0711 83.4733 24.0711 83.06C24.0711 82.6467 24.2111 82.3 24.4911 82.02C24.7711 81.74 25.1178 81.6 25.5311 81.6C25.9311 81.6 26.2711 81.74 26.5511 82.02C26.8311 82.3 26.9711 82.6467 26.9711 83.06C26.9711 83.4733 26.8311 83.82 26.5511 84.1C26.2711 84.38 25.9311 84.52 25.5311 84.52ZM26.6511 85.98V97H24.3711V85.98H26.6511ZM39.7445 91.22C39.7445 91.6333 39.7179 92.0067 39.6645 92.34H31.2445C31.3112 93.22 31.6379 93.9267 32.2245 94.46C32.8112 94.9933 33.5312 95.26 34.3845 95.26C35.6112 95.26 36.4779 94.7467 36.9845 93.72H39.4445C39.1112 94.7333 38.5045 95.5667 37.6245 96.22C36.7579 96.86 35.6779 97.18 34.3845 97.18C33.3312 97.18 32.3845 96.9467 31.5445 96.48C30.7179 96 30.0645 95.3333 29.5845 94.48C29.1179 93.6133 28.8845 92.6133 28.8845 91.48C28.8845 90.3467 29.1112 89.3533 29.5645 88.5C30.0312 87.6333 30.6779 86.9667 31.5045 86.5C32.3445 86.0333 33.3045 85.8 34.3845 85.8C35.4245 85.8 36.3512 86.0267 37.1645 86.48C37.9779 86.9333 38.6112 87.5733 39.0645 88.4C39.5179 89.2133 39.7445 90.1533 39.7445 91.22ZM37.3645 90.5C37.3512 89.66 37.0512 88.9867 36.4645 88.48C35.8779 87.9733 35.1512 87.72 34.2845 87.72C33.4979 87.72 32.8245 87.9733 32.2645 88.48C31.7045 88.9733 31.3712 89.6467 31.2645 90.5H37.3645ZM51.9683 85.98V97H49.6883V95.7C49.3283 96.1533 48.8549 96.5133 48.2683 96.78C47.6949 97.0333 47.0816 97.16 46.4283 97.16C45.5616 97.16 44.7816 96.98 44.0883 96.62C43.4083 96.26 42.8683 95.7267 42.4683 95.02C42.0816 94.3133 41.8883 93.46 41.8883 92.46V85.98H44.1483V92.12C44.1483 93.1067 44.3949 93.8667 44.8883 94.4C45.3816 94.92 46.0549 95.18 46.9083 95.18C47.7616 95.18 48.4349 94.92 48.9283 94.4C49.4349 93.8667 49.6883 93.1067 49.6883 92.12V85.98H51.9683ZM60.5366 85.8C61.4032 85.8 62.1766 85.98 62.8566 86.34C63.5499 86.7 64.0899 87.2333 64.4766 87.94C64.8632 88.6467 65.0566 89.5 65.0566 90.5V97H62.7966V90.84C62.7966 89.8533 62.5499 89.1 62.0566 88.58C61.5632 88.0467 60.8899 87.78 60.0366 87.78C59.1832 87.78 58.5032 88.0467 57.9966 88.58C57.5032 89.1 57.2566 89.8533 57.2566 90.84V97H54.9766V85.98H57.2566V87.24C57.6299 86.7867 58.1032 86.4333 58.6766 86.18C59.2632 85.9267 59.8832 85.8 60.5366 85.8ZM80.5602 78.12L75.1202 100.5H72.8802L78.3002 78.12H80.5602ZM94.1889 85.8C95.0556 85.8 95.8289 85.98 96.5089 86.34C97.2022 86.7 97.7422 87.2333 98.1289 87.94C98.5156 88.6467 98.7089 89.5 98.7089 90.5V97H96.4489V90.84C96.4489 89.8533 96.2022 89.1 95.7089 88.58C95.2156 88.0467 94.5422 87.78 93.6889 87.78C92.8356 87.78 92.1556 88.0467 91.6489 88.58C91.1556 89.1 90.9089 89.8533 90.9089 90.84V97H88.6289V85.98H90.9089V87.24C91.2822 86.7867 91.7556 86.4333 92.3289 86.18C92.9156 85.9267 93.5356 85.8 94.1889 85.8ZM101.057 100.72V100.5C102.431 99.0867 103.477 97.44 104.197 95.56C104.917 93.68 105.277 91.7333 105.277 89.72C105.277 87.6267 104.891 85.5933 104.117 83.62C103.344 81.6467 102.191 79.9533 100.657 78.54V78.32H103.017C104.484 79.6267 105.591 81.2867 106.337 83.3C107.097 85.3133 107.477 87.4533 107.477 89.72C107.477 91.9333 107.124 94.0067 106.417 95.94C105.724 97.8733 104.724 99.4667 103.417 100.72H101.057Z" fill="black"/>
</svg>
