<svg width="118" height="105" viewBox="0 0 118 105" fill="none" xmlns="http://www.w3.org/2000/svg">
<path d="M44.052 22.95H73.452V38.1H50.402V46H44.102V32.9H67.152V28.2H44.052V22.95ZM44.102 43.1H74.152V48.5H44.102V43.1Z" fill="black"/>
<path d="M6.78023 100.72C5.47357 99.4667 4.4669 97.8733 3.76023 95.94C3.0669 94.0067 2.72023 91.9333 2.72023 89.72C2.72023 87.4533 3.09357 85.3133 3.84023 83.3C4.60023 81.2867 5.71357 79.6267 7.18023 78.32H9.54024V78.54C8.0069 79.9533 6.85357 81.6467 6.08023 83.62C5.3069 85.5933 4.92023 87.6267 4.92023 89.72C4.92023 91.7333 5.28023 93.68 6.00023 95.56C6.72023 97.44 7.7669 99.0867 9.14023 100.5V100.72H6.78023ZM13.864 87.58C14.1973 87.02 14.6373 86.5867 15.184 86.28C15.744 85.96 16.404 85.8 17.164 85.8V88.16H16.584C15.6907 88.16 15.0107 88.3867 14.544 88.84C14.0907 89.2933 13.864 90.08 13.864 91.2V97H11.584V85.98H13.864V87.58ZM20.4198 84.52C20.0064 84.52 19.6598 84.38 19.3798 84.1C19.0998 83.82 18.9598 83.4733 18.9598 83.06C18.9598 82.6467 19.0998 82.3 19.3798 82.02C19.6598 81.74 20.0064 81.6 20.4198 81.6C20.8198 81.6 21.1598 81.74 21.4398 82.02C21.7198 82.3 21.8598 82.6467 21.8598 83.06C21.8598 83.4733 21.7198 83.82 21.4398 84.1C21.1598 84.38 20.8198 84.52 20.4198 84.52ZM21.5398 85.98V97H19.2598V85.98H21.5398ZM34.6332 91.22C34.6332 91.6333 34.6065 92.0067 34.5532 92.34H26.1332C26.1999 93.22 26.5265 93.9267 27.1132 94.46C27.6999 94.9933 28.4199 95.26 29.2732 95.26C30.4999 95.26 31.3665 94.7467 31.8732 93.72H34.3332C33.9999 94.7333 33.3932 95.5667 32.5132 96.22C31.6465 96.86 30.5665 97.18 29.2732 97.18C28.2199 97.18 27.2732 96.9467 26.4332 96.48C25.6065 96 24.9532 95.3333 24.4732 94.48C24.0065 93.6133 23.7732 92.6133 23.7732 91.48C23.7732 90.3467 23.9999 89.3533 24.4532 88.5C24.9199 87.6333 25.5665 86.9667 26.3932 86.5C27.2332 86.0333 28.1932 85.8 29.2732 85.8C30.3132 85.8 31.2399 86.0267 32.0532 86.48C32.8665 86.9333 33.4999 87.5733 33.9532 88.4C34.4065 89.2133 34.6332 90.1533 34.6332 91.22ZM32.2532 90.5C32.2399 89.66 31.9399 88.9867 31.3532 88.48C30.7665 87.9733 30.0399 87.72 29.1732 87.72C28.3865 87.72 27.7132 87.9733 27.1532 88.48C26.5932 88.9733 26.2599 89.6467 26.1532 90.5H32.2532ZM46.857 85.98V97H44.577V95.7C44.217 96.1533 43.7436 96.5133 43.157 96.78C42.5836 97.0333 41.9703 97.16 41.317 97.16C40.4503 97.16 39.6703 96.98 38.977 96.62C38.297 96.26 37.757 95.7267 37.357 95.02C36.9703 94.3133 36.777 93.46 36.777 92.46V85.98H39.037V92.12C39.037 93.1067 39.2836 93.8667 39.777 94.4C40.2703 94.92 40.9436 95.18 41.797 95.18C42.6503 95.18 43.3236 94.92 43.817 94.4C44.3236 93.8667 44.577 93.1067 44.577 92.12V85.98H46.857ZM52.1452 82.2V97H49.8652V82.2H52.1452ZM67.734 78.12L62.294 100.5H60.054L65.474 78.12H67.734ZM78.0827 87.58C78.4161 87.02 78.8561 86.5867 79.4027 86.28C79.9627 85.96 80.6227 85.8 81.3827 85.8V88.16H80.8027C79.9094 88.16 79.2294 88.3867 78.7627 88.84C78.3094 89.2933 78.0827 90.08 78.0827 91.2V97H75.8027V85.98H78.0827V87.58ZM96.0738 78.12L90.6338 100.5H88.3938L93.8138 78.12H96.0738ZM106.423 82.2V97H104.143V82.2H106.423ZM108.856 100.72V100.5C110.229 99.0867 111.276 97.44 111.996 95.56C112.716 93.68 113.076 91.7333 113.076 89.72C113.076 87.6267 112.689 85.5933 111.916 83.62C111.143 81.6467 109.989 79.9533 108.456 78.54V78.32H110.816C112.283 79.6267 113.389 81.2867 114.136 83.3C114.896 85.3133 115.276 87.4533 115.276 89.72C115.276 91.9333 114.923 94.0067 114.216 95.94C113.523 97.8733 112.523 99.4667 111.216 100.72H108.856Z" fill="black"/>
</svg>
