<svg width="88" height="105" viewBox="0 0 88 105" fill="none" xmlns="http://www.w3.org/2000/svg">
<path d="M41.752 22.8H47.352V29.65C47.352 39.5 42.052 46.8 31.352 49.35L28.202 44.05C37.652 42.1 41.752 36.35 41.752 29.65V22.8ZM42.752 22.8H48.352V29.65C48.352 36.35 52.452 42.1 61.902 44.05L58.752 49.35C48.052 46.8 42.752 39.5 42.752 29.65V22.8Z" fill="black"/>
<path d="M6.94625 100.72C5.63958 99.4667 4.63292 97.8733 3.92625 95.94C3.23292 94.0067 2.88625 91.9333 2.88625 89.72C2.88625 87.4533 3.25958 85.3133 4.00625 83.3C4.76625 81.2867 5.87958 79.6267 7.34625 78.32H9.70625V78.54C8.17292 79.9533 7.01958 81.6467 6.24625 83.62C5.47292 85.5933 5.08625 87.6267 5.08625 89.72C5.08625 91.7333 5.44625 93.68 6.16625 95.56C6.88625 97.44 7.93292 99.0867 9.30625 100.5V100.72H6.94625ZM15.75 97.18C14.8833 97.18 14.1033 97.0267 13.41 96.72C12.73 96.4 12.19 95.9733 11.79 95.44C11.39 94.8933 11.1767 94.2867 11.15 93.62H13.51C13.55 94.0867 13.77 94.48 14.17 94.8C14.5833 95.1067 15.0967 95.26 15.71 95.26C16.35 95.26 16.8433 95.14 17.19 94.9C17.55 94.6467 17.73 94.3267 17.73 93.94C17.73 93.5267 17.53 93.22 17.13 93.02C16.7433 92.82 16.1233 92.6 15.27 92.36C14.4433 92.1333 13.77 91.9133 13.25 91.7C12.73 91.4867 12.2767 91.16 11.89 90.72C11.5167 90.28 11.33 89.7 11.33 88.98C11.33 88.3933 11.5033 87.86 11.85 87.38C12.1967 86.8867 12.69 86.5 13.33 86.22C13.9833 85.94 14.73 85.8 15.57 85.8C16.8233 85.8 17.83 86.12 18.59 86.76C19.3633 87.3867 19.7767 88.2467 19.83 89.34H17.55C17.51 88.8467 17.31 88.4533 16.95 88.16C16.59 87.8667 16.1033 87.72 15.49 87.72C14.89 87.72 14.43 87.8333 14.11 88.06C13.79 88.2867 13.63 88.5867 13.63 88.96C13.63 89.2533 13.7367 89.5 13.95 89.7C14.1633 89.9 14.4233 90.06 14.73 90.18C15.0367 90.2867 15.49 90.4267 16.09 90.6C16.89 90.8133 17.5433 91.0333 18.05 91.26C18.57 91.4733 19.0167 91.7933 19.39 92.22C19.7633 92.6467 19.9567 93.2133 19.97 93.92C19.97 94.5467 19.7967 95.1067 19.45 95.6C19.1033 96.0933 18.61 96.48 17.97 96.76C17.3433 97.04 16.6033 97.18 15.75 97.18ZM23.5936 84.52C23.1803 84.52 22.8336 84.38 22.5536 84.1C22.2736 83.82 22.1336 83.4733 22.1336 83.06C22.1336 82.6467 22.2736 82.3 22.5536 82.02C22.8336 81.74 23.1803 81.6 23.5936 81.6C23.9936 81.6 24.3336 81.74 24.6136 82.02C24.8936 82.3 25.0336 82.6467 25.0336 83.06C25.0336 83.4733 24.8936 83.82 24.6136 84.1C24.3336 84.38 23.9936 84.52 23.5936 84.52ZM24.7136 85.98V97H22.4336V85.98H24.7136ZM32.487 97.18C31.447 97.18 30.507 96.9467 29.667 96.48C28.827 96 28.167 95.3333 27.687 94.48C27.207 93.6133 26.967 92.6133 26.967 91.48C26.967 90.36 27.2137 89.3667 27.707 88.5C28.2004 87.6333 28.8737 86.9667 29.727 86.5C30.5804 86.0333 31.5337 85.8 32.587 85.8C33.6404 85.8 34.5937 86.0333 35.447 86.5C36.3004 86.9667 36.9737 87.6333 37.467 88.5C37.9604 89.3667 38.207 90.36 38.207 91.48C38.207 92.6 37.9537 93.5933 37.447 94.46C36.9404 95.3267 36.247 96 35.367 96.48C34.5004 96.9467 33.5404 97.18 32.487 97.18ZM32.487 95.2C33.0737 95.2 33.6204 95.06 34.127 94.78C34.647 94.5 35.067 94.08 35.387 93.52C35.707 92.96 35.867 92.28 35.867 91.48C35.867 90.68 35.7137 90.0067 35.407 89.46C35.1004 88.9 34.6937 88.48 34.187 88.2C33.6804 87.92 33.1337 87.78 32.547 87.78C31.9604 87.78 31.4137 87.92 30.907 88.2C30.4137 88.48 30.0204 88.9 29.727 89.46C29.4337 90.0067 29.287 90.68 29.287 91.48C29.287 92.6667 29.587 93.5867 30.187 94.24C30.8004 94.88 31.567 95.2 32.487 95.2ZM43.1209 87.84V93.94C43.1209 94.3533 43.2143 94.6533 43.4009 94.84C43.6009 95.0133 43.9343 95.1 44.4009 95.1H45.8009V97H44.0009C42.9743 97 42.1876 96.76 41.6409 96.28C41.0943 95.8 40.8209 95.02 40.8209 93.94V87.84H39.5209V85.98H40.8209V83.24H43.1209V85.98H45.8009V87.84H43.1209ZM60.4977 78.12L55.0577 100.5H52.8177L58.2377 78.12H60.4977ZM72.5664 97.18C71.6997 97.18 70.9197 97.0267 70.2264 96.72C69.5464 96.4 69.0064 95.9733 68.6064 95.44C68.2064 94.8933 67.9931 94.2867 67.9664 93.62H70.3264C70.3664 94.0867 70.5864 94.48 70.9864 94.8C71.3997 95.1067 71.9131 95.26 72.5264 95.26C73.1664 95.26 73.6597 95.14 74.0064 94.9C74.3664 94.6467 74.5464 94.3267 74.5464 93.94C74.5464 93.5267 74.3464 93.22 73.9464 93.02C73.5597 92.82 72.9397 92.6 72.0864 92.36C71.2597 92.1333 70.5864 91.9133 70.0664 91.7C69.5464 91.4867 69.0931 91.16 68.7064 90.72C68.3331 90.28 68.1464 89.7 68.1464 88.98C68.1464 88.3933 68.3197 87.86 68.6664 87.38C69.0131 86.8867 69.5064 86.5 70.1464 86.22C70.7997 85.94 71.5464 85.8 72.3864 85.8C73.6397 85.8 74.6464 86.12 75.4064 86.76C76.1797 87.3867 76.5931 88.2467 76.6464 89.34H74.3664C74.3264 88.8467 74.1264 88.4533 73.7664 88.16C73.4064 87.8667 72.9197 87.72 72.3064 87.72C71.7064 87.72 71.2464 87.8333 70.9264 88.06C70.6064 88.2867 70.4464 88.5867 70.4464 88.96C70.4464 89.2533 70.5531 89.5 70.7664 89.7C70.9797 89.9 71.2397 90.06 71.5464 90.18C71.8531 90.2867 72.3064 90.4267 72.9064 90.6C73.7064 90.8133 74.3597 91.0333 74.8664 91.26C75.3864 91.4733 75.8331 91.7933 76.2064 92.22C76.5797 92.6467 76.7731 93.2133 76.7864 93.92C76.7864 94.5467 76.6131 95.1067 76.2664 95.6C75.9197 96.0933 75.4264 96.48 74.7864 96.76C74.1597 97.04 73.4197 97.18 72.5664 97.18ZM78.69 100.72V100.5C80.0633 99.0867 81.11 97.44 81.83 95.56C82.55 93.68 82.91 91.7333 82.91 89.72C82.91 87.6267 82.5233 85.5933 81.75 83.62C80.9767 81.6467 79.8233 79.9533 78.29 78.54V78.32H80.65C82.1167 79.6267 83.2233 81.2867 83.97 83.3C84.73 85.3133 85.11 87.4533 85.11 89.72C85.11 91.9333 84.7567 94.0067 84.05 95.94C83.3567 97.8733 82.3567 99.4667 81.05 100.72H78.69Z" fill="black"/>
</svg>
