<svg width="94" height="105" viewBox="0 0 94 105" fill="none" xmlns="http://www.w3.org/2000/svg">
<path d="M33.302 23.35H62.602V28.65H39.952V46.05H33.302V23.35ZM33.302 43.3H63.002V48.6H33.302V43.3ZM34.652 33.15H62.202V38.45H34.652V33.15Z" fill="black"/>
<path d="M6.89938 100.72C5.59271 99.4667 4.58604 97.8733 3.87938 95.94C3.18604 94.0067 2.83938 91.9333 2.83938 89.72C2.83938 87.4533 3.21271 85.3133 3.95938 83.3C4.71938 81.2867 5.83271 79.6267 7.29938 78.32H9.65938V78.54C8.12604 79.9533 6.97271 81.6467 6.19938 83.62C5.42604 85.5933 5.03938 87.6267 5.03938 89.72C5.03938 91.7333 5.39938 93.68 6.11938 95.56C6.83938 97.44 7.88604 99.0867 9.25938 100.5V100.72H6.89938ZM14.3631 87.84V93.94C14.3631 94.3533 14.4565 94.6533 14.6431 94.84C14.8431 95.0133 15.1765 95.1 15.6431 95.1H17.0431V97H15.2431C14.2165 97 13.4298 96.76 12.8831 96.28C12.3365 95.8 12.0631 95.02 12.0631 93.94V87.84H10.7631V85.98H12.0631V83.24H14.3631V85.98H17.0431V87.84H14.3631ZM20.3045 84.52C19.8912 84.52 19.5445 84.38 19.2645 84.1C18.9845 83.82 18.8445 83.4733 18.8445 83.06C18.8445 82.6467 18.9845 82.3 19.2645 82.02C19.5445 81.74 19.8912 81.6 20.3045 81.6C20.7045 81.6 21.0445 81.74 21.3245 82.02C21.6045 82.3 21.7445 82.6467 21.7445 83.06C21.7445 83.4733 21.6045 83.82 21.3245 84.1C21.0445 84.38 20.7045 84.52 20.3045 84.52ZM21.4245 85.98V97H19.1445V85.98H21.4245ZM34.518 91.22C34.518 91.6333 34.4913 92.0067 34.438 92.34H26.018C26.0846 93.22 26.4113 93.9267 26.998 94.46C27.5846 94.9933 28.3046 95.26 29.158 95.26C30.3846 95.26 31.2513 94.7467 31.758 93.72H34.218C33.8846 94.7333 33.278 95.5667 32.398 96.22C31.5313 96.86 30.4513 97.18 29.158 97.18C28.1046 97.18 27.158 96.9467 26.318 96.48C25.4913 96 24.838 95.3333 24.358 94.48C23.8913 93.6133 23.658 92.6133 23.658 91.48C23.658 90.3467 23.8846 89.3533 24.338 88.5C24.8046 87.6333 25.4513 86.9667 26.278 86.5C27.118 86.0333 28.078 85.8 29.158 85.8C30.198 85.8 31.1246 86.0267 31.938 86.48C32.7513 86.9333 33.3846 87.5733 33.838 88.4C34.2913 89.2133 34.518 90.1533 34.518 91.22ZM32.138 90.5C32.1246 89.66 31.8246 88.9867 31.238 88.48C30.6513 87.9733 29.9246 87.72 29.058 87.72C28.2713 87.72 27.598 87.9733 27.038 88.48C26.478 88.9733 26.1446 89.6467 26.038 90.5H32.138ZM46.7417 85.98V97H44.4617V95.7C44.1017 96.1533 43.6284 96.5133 43.0417 96.78C42.4684 97.0333 41.8551 97.16 41.2017 97.16C40.3351 97.16 39.5551 96.98 38.8617 96.62C38.1817 96.26 37.6417 95.7267 37.2417 95.02C36.8551 94.3133 36.6617 93.46 36.6617 92.46V85.98H38.9217V92.12C38.9217 93.1067 39.1684 93.8667 39.6617 94.4C40.1551 94.92 40.8284 95.18 41.6817 95.18C42.5351 95.18 43.2084 94.92 43.7017 94.4C44.2084 93.8667 44.4617 93.1067 44.4617 92.12V85.98H46.7417ZM52.41 87.84V93.94C52.41 94.3533 52.5033 94.6533 52.69 94.84C52.89 95.0133 53.2233 95.1 53.69 95.1H55.09V97H53.29C52.2633 97 51.4767 96.76 50.93 96.28C50.3833 95.8 50.11 95.02 50.11 93.94V87.84H48.81V85.98H50.11V83.24H52.41V85.98H55.09V87.84H52.41ZM69.7867 78.12L64.3467 100.5H62.1067L67.5267 78.12H69.7867ZM80.5155 87.84V93.94C80.5155 94.3533 80.6088 94.6533 80.7955 94.84C80.9955 95.0133 81.3288 95.1 81.7955 95.1H83.1955V97H81.3955C80.3688 97 79.5821 96.76 79.0355 96.28C78.4888 95.8 78.2155 95.02 78.2155 93.94V87.84H76.9155V85.98H78.2155V83.24H80.5155V85.98H83.1955V87.84H80.5155ZM84.7369 100.72V100.5C86.1102 99.0867 87.1569 97.44 87.8769 95.56C88.5969 93.68 88.9569 91.7333 88.9569 89.72C88.9569 87.6267 88.5702 85.5933 87.7969 83.62C87.0235 81.6467 85.8702 79.9533 84.3369 78.54V78.32H86.6969C88.1635 79.6267 89.2702 81.2867 90.0169 83.3C90.7769 85.3133 91.1569 87.4533 91.1569 89.72C91.1569 91.9333 90.8035 94.0067 90.0969 95.94C89.4035 97.8733 88.4035 99.4667 87.0969 100.72H84.7369Z" fill="black"/>
</svg>
