<svg width="204" height="68" viewBox="0 0 204 68" fill="none" xmlns="http://www.w3.org/2000/svg">
<path d="M64.6201 44.72C63.3134 43.4667 62.3067 41.8733 61.6001 39.94C60.9067 38.0067 60.5601 35.9333 60.5601 33.72C60.5601 31.4533 60.9334 29.3133 61.6801 27.3C62.4401 25.2867 63.5534 23.6267 65.0201 22.32H67.3801V22.54C65.8467 23.9533 64.6934 25.6467 63.9201 27.62C63.1467 29.5933 62.7601 31.6267 62.7601 33.72C62.7601 35.7333 63.1201 37.68 63.8401 39.56C64.5601 41.44 65.6067 43.0867 66.9801 44.5V44.72H64.6201ZM71.7038 31.62C72.0905 31.0867 72.6172 30.6533 73.2838 30.32C73.9638 29.9733 74.7172 29.8 75.5438 29.8C76.5172 29.8 77.3972 30.0333 78.1838 30.5C78.9705 30.9667 79.5905 31.6333 80.0438 32.5C80.4972 33.3533 80.7238 34.3333 80.7238 35.44C80.7238 36.5467 80.4972 37.54 80.0438 38.42C79.5905 39.2867 78.9638 39.9667 78.1638 40.46C77.3772 40.94 76.5038 41.18 75.5438 41.18C74.6905 41.18 73.9305 41.0133 73.2638 40.68C72.6105 40.3467 72.0905 39.92 71.7038 39.4V41H69.4238V26.2H71.7038V31.62ZM78.4038 35.44C78.4038 34.68 78.2438 34.0267 77.9238 33.48C77.6172 32.92 77.2038 32.5 76.6838 32.22C76.1772 31.9267 75.6305 31.78 75.0438 31.78C74.4705 31.78 73.9238 31.9267 73.4038 32.22C72.8972 32.5133 72.4838 32.94 72.1638 33.5C71.8572 34.06 71.7038 34.72 71.7038 35.48C71.7038 36.24 71.8572 36.9067 72.1638 37.48C72.4838 38.04 72.8972 38.4667 73.4038 38.76C73.9238 39.0533 74.4705 39.2 75.0438 39.2C75.6305 39.2 76.1772 39.0533 76.6838 38.76C77.2038 38.4533 77.6172 38.0133 77.9238 37.44C78.2438 36.8667 78.4038 36.2 78.4038 35.44ZM84.1385 28.52C83.7252 28.52 83.3785 28.38 83.0985 28.1C82.8185 27.82 82.6785 27.4733 82.6785 27.06C82.6785 26.6467 82.8185 26.3 83.0985 26.02C83.3785 25.74 83.7252 25.6 84.1385 25.6C84.5385 25.6 84.8785 25.74 85.1585 26.02C85.4385 26.3 85.5785 26.6467 85.5785 27.06C85.5785 27.4733 85.4385 27.82 85.1585 28.1C84.8785 28.38 84.5385 28.52 84.1385 28.52ZM85.2585 29.98V41H82.9785V29.98H85.2585ZM98.352 35.22C98.352 35.6333 98.3253 36.0067 98.272 36.34H89.852C89.9186 37.22 90.2453 37.9267 90.832 38.46C91.4186 38.9933 92.1386 39.26 92.992 39.26C94.2186 39.26 95.0853 38.7467 95.592 37.72H98.052C97.7186 38.7333 97.112 39.5667 96.232 40.22C95.3653 40.86 94.2853 41.18 92.992 41.18C91.9386 41.18 90.992 40.9467 90.152 40.48C89.3253 40 88.672 39.3333 88.192 38.48C87.7253 37.6133 87.492 36.6133 87.492 35.48C87.492 34.3467 87.7186 33.3533 88.172 32.5C88.6386 31.6333 89.2853 30.9667 90.112 30.5C90.952 30.0333 91.912 29.8 92.992 29.8C94.032 29.8 94.9586 30.0267 95.772 30.48C96.5853 30.9333 97.2186 31.5733 97.672 32.4C98.1253 33.2133 98.352 34.1533 98.352 35.22ZM95.972 34.5C95.9586 33.66 95.6586 32.9867 95.072 32.48C94.4853 31.9733 93.7586 31.72 92.892 31.72C92.1053 31.72 91.432 31.9733 90.872 32.48C90.312 32.9733 89.9786 33.6467 89.872 34.5H95.972ZM110.576 29.98V41H108.296V39.7C107.936 40.1533 107.462 40.5133 106.876 40.78C106.302 41.0333 105.689 41.16 105.036 41.16C104.169 41.16 103.389 40.98 102.696 40.62C102.016 40.26 101.476 39.7267 101.076 39.02C100.689 38.3133 100.496 37.46 100.496 36.46V29.98H102.756V36.12C102.756 37.1067 103.002 37.8667 103.496 38.4C103.989 38.92 104.662 39.18 105.516 39.18C106.369 39.18 107.042 38.92 107.536 38.4C108.042 37.8667 108.296 37.1067 108.296 36.12V29.98H110.576ZM115.864 31.6C116.251 31.0933 116.777 30.6667 117.444 30.32C118.111 29.9733 118.864 29.8 119.704 29.8C120.664 29.8 121.537 30.04 122.324 30.52C123.124 30.9867 123.751 31.6467 124.204 32.5C124.657 33.3533 124.884 34.3333 124.884 35.44C124.884 36.5467 124.657 37.54 124.204 38.42C123.751 39.2867 123.124 39.9667 122.324 40.46C121.537 40.94 120.664 41.18 119.704 41.18C118.864 41.18 118.117 41.0133 117.464 40.68C116.811 40.3333 116.277 39.9067 115.864 39.4V46.24H113.584V29.98H115.864V31.6ZM122.564 35.44C122.564 34.68 122.404 34.0267 122.084 33.48C121.777 32.92 121.364 32.5 120.844 32.22C120.337 31.9267 119.791 31.78 119.204 31.78C118.631 31.78 118.084 31.9267 117.564 32.22C117.057 32.5133 116.644 32.94 116.324 33.5C116.017 34.06 115.864 34.72 115.864 35.48C115.864 36.24 116.017 36.9067 116.324 37.48C116.644 38.04 117.057 38.4667 117.564 38.76C118.084 39.0533 118.631 39.2 119.204 39.2C119.791 39.2 120.337 39.0533 120.844 38.76C121.364 38.4533 121.777 38.0133 122.084 37.44C122.404 36.8667 122.564 36.2 122.564 35.44ZM139.734 22.12L134.294 44.5H132.054L137.474 22.12H139.734ZM150.083 31.62C150.469 31.0867 150.996 30.6533 151.663 30.32C152.343 29.9733 153.096 29.8 153.923 29.8C154.896 29.8 155.776 30.0333 156.563 30.5C157.349 30.9667 157.969 31.6333 158.423 32.5C158.876 33.3533 159.103 34.3333 159.103 35.44C159.103 36.5467 158.876 37.54 158.423 38.42C157.969 39.2867 157.343 39.9667 156.543 40.46C155.756 40.94 154.883 41.18 153.923 41.18C153.069 41.18 152.309 41.0133 151.643 40.68C150.989 40.3467 150.469 39.92 150.083 39.4V41H147.803V26.2H150.083V31.62ZM156.783 35.44C156.783 34.68 156.623 34.0267 156.303 33.48C155.996 32.92 155.583 32.5 155.063 32.22C154.556 31.9267 154.009 31.78 153.423 31.78C152.849 31.78 152.303 31.9267 151.783 32.22C151.276 32.5133 150.863 32.94 150.543 33.5C150.236 34.06 150.083 34.72 150.083 35.48C150.083 36.24 150.236 36.9067 150.543 37.48C150.863 38.04 151.276 38.4667 151.783 38.76C152.303 39.0533 152.849 39.2 153.423 39.2C154.009 39.2 154.556 39.0533 155.063 38.76C155.583 38.4533 155.996 38.0133 156.303 37.44C156.623 36.8667 156.783 36.2 156.783 35.44ZM173.953 22.12L168.513 44.5H166.273L171.693 22.12H173.953ZM184.301 31.6C184.688 31.0933 185.215 30.6667 185.881 30.32C186.548 29.9733 187.301 29.8 188.141 29.8C189.101 29.8 189.975 30.04 190.761 30.52C191.561 30.9867 192.188 31.6467 192.641 32.5C193.095 33.3533 193.321 34.3333 193.321 35.44C193.321 36.5467 193.095 37.54 192.641 38.42C192.188 39.2867 191.561 39.9667 190.761 40.46C189.975 40.94 189.101 41.18 188.141 41.18C187.301 41.18 186.555 41.0133 185.901 40.68C185.248 40.3333 184.715 39.9067 184.301 39.4V46.24H182.021V29.98H184.301V31.6ZM191.001 35.44C191.001 34.68 190.841 34.0267 190.521 33.48C190.215 32.92 189.801 32.5 189.281 32.22C188.775 31.9267 188.228 31.78 187.641 31.78C187.068 31.78 186.521 31.9267 186.001 32.22C185.495 32.5133 185.081 32.94 184.761 33.5C184.455 34.06 184.301 34.72 184.301 35.48C184.301 36.24 184.455 36.9067 184.761 37.48C185.081 38.04 185.495 38.4667 186.001 38.76C186.521 39.0533 187.068 39.2 187.641 39.2C188.228 39.2 188.775 39.0533 189.281 38.76C189.801 38.4533 190.215 38.0133 190.521 37.44C190.841 36.8667 191.001 36.2 191.001 35.44ZM195.016 44.72V44.5C196.39 43.0867 197.436 41.44 198.156 39.56C198.876 37.68 199.236 35.7333 199.236 33.72C199.236 31.6267 198.85 29.5933 198.076 27.62C197.303 25.6467 196.15 23.9533 194.616 22.54V22.32H196.976C198.443 23.6267 199.55 25.2867 200.296 27.3C201.056 29.3133 201.436 31.4533 201.436 33.72C201.436 35.9333 201.083 38.0067 200.376 39.94C199.683 41.8733 198.683 43.4667 197.376 44.72H195.016Z" fill="black"/>
<path d="M7.90676 21.155H13.8018V27.68H28.2468V21.155H34.2318V44.195H7.90676V21.155ZM13.8018 32.945V38.975H28.2468V32.945H13.8018Z" fill="black"/>
</svg>
