<svg width="217" height="68" viewBox="0 0 217 68" fill="none" xmlns="http://www.w3.org/2000/svg">
<path d="M66.8076 44.72C65.5009 43.4667 64.4942 41.8733 63.7876 39.94C63.0942 38.0067 62.7476 35.9333 62.7476 33.72C62.7476 31.4533 63.1209 29.3133 63.8676 27.3C64.6276 25.2867 65.7409 23.6267 67.2076 22.32H69.5676V22.54C68.0342 23.9533 66.8809 25.6467 66.1076 27.62C65.3342 29.5933 64.9476 31.6267 64.9476 33.72C64.9476 35.7333 65.3076 37.68 66.0276 39.56C66.7476 41.44 67.7942 43.0867 69.1676 44.5V44.72H66.8076ZM70.8513 35.48C70.8513 34.3467 71.078 33.3533 71.5313 32.5C71.998 31.6333 72.638 30.9667 73.4513 30.5C74.2647 30.0333 75.198 29.8 76.2513 29.8C77.5847 29.8 78.6847 30.12 79.5513 30.76C80.4313 31.3867 81.0247 32.2867 81.3313 33.46H78.8713C78.6713 32.9133 78.3513 32.4867 77.9113 32.18C77.4713 31.8733 76.918 31.72 76.2513 31.72C75.318 31.72 74.5713 32.0533 74.0113 32.72C73.4647 33.3733 73.1913 34.2933 73.1913 35.48C73.1913 36.6667 73.4647 37.5933 74.0113 38.26C74.5713 38.9267 75.318 39.26 76.2513 39.26C77.5713 39.26 78.4447 38.68 78.8713 37.52H81.3313C81.0113 38.64 80.4113 39.5333 79.5313 40.2C78.6513 40.8533 77.558 41.18 76.2513 41.18C75.198 41.18 74.2647 40.9467 73.4513 40.48C72.638 40 71.998 39.3333 71.5313 38.48C71.078 37.6133 70.8513 36.6133 70.8513 35.48ZM89.3035 29.8C90.1435 29.8 90.8902 29.98 91.5435 30.34C92.2102 30.7 92.7302 31.2333 93.1035 31.94C93.4902 32.6467 93.6835 33.5 93.6835 34.5V41H91.4235V34.84C91.4235 33.8533 91.1768 33.1 90.6835 32.58C90.1902 32.0467 89.5168 31.78 88.6635 31.78C87.8102 31.78 87.1302 32.0467 86.6235 32.58C86.1302 33.1 85.8835 33.8533 85.8835 34.84V41H83.6035V26.2H85.8835V31.26C86.2702 30.7933 86.7568 30.4333 87.3435 30.18C87.9435 29.9267 88.5968 29.8 89.3035 29.8ZM97.7518 28.52C97.3385 28.52 96.9918 28.38 96.7118 28.1C96.4318 27.82 96.2918 27.4733 96.2918 27.06C96.2918 26.6467 96.4318 26.3 96.7118 26.02C96.9918 25.74 97.3385 25.6 97.7518 25.6C98.1518 25.6 98.4918 25.74 98.7718 26.02C99.0518 26.3 99.1918 26.6467 99.1918 27.06C99.1918 27.4733 99.0518 27.82 98.7718 28.1C98.4918 28.38 98.1518 28.52 97.7518 28.52ZM98.8718 29.98V41H96.5918V29.98H98.8718ZM111.965 35.22C111.965 35.6333 111.939 36.0067 111.885 36.34H103.465C103.532 37.22 103.859 37.9267 104.445 38.46C105.032 38.9933 105.752 39.26 106.605 39.26C107.832 39.26 108.699 38.7467 109.205 37.72H111.665C111.332 38.7333 110.725 39.5667 109.845 40.22C108.979 40.86 107.899 41.18 106.605 41.18C105.552 41.18 104.605 40.9467 103.765 40.48C102.939 40 102.285 39.3333 101.805 38.48C101.339 37.6133 101.105 36.6133 101.105 35.48C101.105 34.3467 101.332 33.3533 101.785 32.5C102.252 31.6333 102.899 30.9667 103.725 30.5C104.565 30.0333 105.525 29.8 106.605 29.8C107.645 29.8 108.572 30.0267 109.385 30.48C110.199 30.9333 110.832 31.5733 111.285 32.4C111.739 33.2133 111.965 34.1533 111.965 35.22ZM109.585 34.5C109.572 33.66 109.272 32.9867 108.685 32.48C108.099 31.9733 107.372 31.72 106.505 31.72C105.719 31.72 105.045 31.9733 104.485 32.48C103.925 32.9733 103.592 33.6467 103.485 34.5H109.585ZM124.189 29.98V41H121.909V39.7C121.549 40.1533 121.076 40.5133 120.489 40.78C119.916 41.0333 119.302 41.16 118.649 41.16C117.782 41.16 117.002 40.98 116.309 40.62C115.629 40.26 115.089 39.7267 114.689 39.02C114.302 38.3133 114.109 37.46 114.109 36.46V29.98H116.369V36.12C116.369 37.1067 116.616 37.8667 117.109 38.4C117.602 38.92 118.276 39.18 119.129 39.18C119.982 39.18 120.656 38.92 121.149 38.4C121.656 37.8667 121.909 37.1067 121.909 36.12V29.98H124.189ZM129.857 31.84V37.94C129.857 38.3533 129.951 38.6533 130.137 38.84C130.337 39.0133 130.671 39.1 131.137 39.1H132.537V41H130.737C129.711 41 128.924 40.76 128.377 40.28C127.831 39.8 127.557 39.02 127.557 37.94V31.84H126.257V29.98H127.557V27.24H129.857V29.98H132.537V31.84H129.857ZM147.234 22.12L141.794 44.5H139.554L144.974 22.12H147.234ZM154.543 35.48C154.543 34.3467 154.769 33.3533 155.223 32.5C155.689 31.6333 156.329 30.9667 157.143 30.5C157.956 30.0333 158.889 29.8 159.943 29.8C161.276 29.8 162.376 30.12 163.243 30.76C164.123 31.3867 164.716 32.2867 165.023 33.46H162.563C162.363 32.9133 162.043 32.4867 161.603 32.18C161.163 31.8733 160.609 31.72 159.943 31.72C159.009 31.72 158.263 32.0533 157.703 32.72C157.156 33.3733 156.883 34.2933 156.883 35.48C156.883 36.6667 157.156 37.5933 157.703 38.26C158.263 38.9267 159.009 39.26 159.943 39.26C161.263 39.26 162.136 38.68 162.563 37.52H165.023C164.703 38.64 164.103 39.5333 163.223 40.2C162.343 40.8533 161.249 41.18 159.943 41.18C158.889 41.18 157.956 40.9467 157.143 40.48C156.329 40 155.689 39.3333 155.223 38.48C154.769 37.6133 154.543 36.6133 154.543 35.48ZM172.995 29.8C173.835 29.8 174.582 29.98 175.235 30.34C175.902 30.7 176.422 31.2333 176.795 31.94C177.182 32.6467 177.375 33.5 177.375 34.5V41H175.115V34.84C175.115 33.8533 174.868 33.1 174.375 32.58C173.882 32.0467 173.208 31.78 172.355 31.78C171.502 31.78 170.822 32.0467 170.315 32.58C169.822 33.1 169.575 33.8533 169.575 34.84V41H167.295V26.2H169.575V31.26C169.962 30.7933 170.448 30.4333 171.035 30.18C171.635 29.9267 172.288 29.8 172.995 29.8ZM192.879 22.12L187.439 44.5H185.199L190.619 22.12H192.879ZM203.607 31.84V37.94C203.607 38.3533 203.701 38.6533 203.887 38.84C204.087 39.0133 204.421 39.1 204.887 39.1H206.287V41H204.487C203.461 41 202.674 40.76 202.127 40.28C201.581 39.8 201.307 39.02 201.307 37.94V31.84H200.007V29.98H201.307V27.24H203.607V29.98H206.287V31.84H203.607ZM207.829 44.72V44.5C209.202 43.0867 210.249 41.44 210.969 39.56C211.689 37.68 212.049 35.7333 212.049 33.72C212.049 31.6267 211.662 29.5933 210.889 27.62C210.115 25.6467 208.962 23.9533 207.429 22.54V22.32H209.789C211.255 23.6267 212.362 25.2867 213.109 27.3C213.869 29.3133 214.249 31.4533 214.249 33.72C214.249 35.9333 213.895 38.0067 213.189 39.94C212.495 41.8733 211.495 43.4667 210.189 44.72H207.829Z" fill="black"/>
<path d="M17.3568 29.21H22.3968V30.02C22.3968 37.85 17.9418 43.475 8.76176 45.365L6.06176 40.685C14.2068 39.335 17.3568 35.015 17.3568 30.02V29.21ZM19.5168 29.21H24.5568V30.02C24.5568 35.015 27.7518 39.335 35.8518 40.685L33.1968 45.365C24.0168 43.475 19.5168 37.85 19.5168 30.02V29.21ZM7.54676 24.755H34.4568V29.615H7.54676V24.755ZM18.0318 18.59H24.0168V27.23H18.0318V18.59Z" fill="black"/>
</svg>
