<svg width="209" height="68" viewBox="0 0 209 68" fill="none" xmlns="http://www.w3.org/2000/svg">
<path d="M67.956 44.72C66.6493 43.4667 65.6427 41.8733 64.936 39.94C64.2427 38.0067 63.896 35.9333 63.896 33.72C63.896 31.4533 64.2693 29.3133 65.016 27.3C65.776 25.2867 66.8893 23.6267 68.356 22.32H70.716V22.54C69.1827 23.9533 68.0293 25.6467 67.256 27.62C66.4827 29.5933 66.096 31.6267 66.096 33.72C66.096 35.7333 66.456 37.68 67.176 39.56C67.896 41.44 68.9427 43.0867 70.316 44.5V44.72H67.956ZM71.9998 35.44C71.9998 34.3333 72.2264 33.3533 72.6798 32.5C73.1464 31.6467 73.7731 30.9867 74.5598 30.52C75.3598 30.04 76.2464 29.8 77.2198 29.8C77.9398 29.8 78.6464 29.96 79.3398 30.28C80.0464 30.5867 80.6064 31 81.0198 31.52V26.2H83.3198V41H81.0198V39.34C80.6464 39.8733 80.1264 40.3133 79.4598 40.66C78.8064 41.0067 78.0531 41.18 77.1998 41.18C76.2398 41.18 75.3598 40.94 74.5598 40.46C73.7731 39.9667 73.1464 39.2867 72.6798 38.42C72.2264 37.54 71.9998 36.5467 71.9998 35.44ZM81.0198 35.48C81.0198 34.72 80.8598 34.06 80.5398 33.5C80.2331 32.94 79.8264 32.5133 79.3198 32.22C78.8131 31.9267 78.2664 31.78 77.6798 31.78C77.0931 31.78 76.5464 31.9267 76.0398 32.22C75.5331 32.5 75.1198 32.92 74.7998 33.48C74.4931 34.0267 74.3398 34.68 74.3398 35.44C74.3398 36.2 74.4931 36.8667 74.7998 37.44C75.1198 38.0133 75.5331 38.4533 76.0398 38.76C76.5598 39.0533 77.1064 39.2 77.6798 39.2C78.2664 39.2 78.8131 39.0533 79.3198 38.76C79.8264 38.4667 80.2331 38.04 80.5398 37.48C80.8598 36.9067 81.0198 36.24 81.0198 35.48ZM87.4745 28.52C87.0611 28.52 86.7145 28.38 86.4345 28.1C86.1545 27.82 86.0145 27.4733 86.0145 27.06C86.0145 26.6467 86.1545 26.3 86.4345 26.02C86.7145 25.74 87.0611 25.6 87.4745 25.6C87.8745 25.6 88.2145 25.74 88.4945 26.02C88.7745 26.3 88.9145 26.6467 88.9145 27.06C88.9145 27.4733 88.7745 27.82 88.4945 28.1C88.2145 28.38 87.8745 28.52 87.4745 28.52ZM88.5945 29.98V41H86.3145V29.98H88.5945ZM96.0279 29.8C96.8812 29.8 97.6346 29.9733 98.2879 30.32C98.9546 30.6533 99.4746 31.0733 99.8479 31.58V29.98H102.148V41.18C102.148 42.1933 101.935 43.0933 101.508 43.88C101.081 44.68 100.461 45.3067 99.6479 45.76C98.8479 46.2133 97.8879 46.44 96.7679 46.44C95.2746 46.44 94.0346 46.0867 93.0479 45.38C92.0612 44.6867 91.5012 43.74 91.3679 42.54H93.6279C93.8012 43.1133 94.1679 43.5733 94.7279 43.92C95.3012 44.28 95.9812 44.46 96.7679 44.46C97.6879 44.46 98.4279 44.18 98.9879 43.62C99.5612 43.06 99.8479 42.2467 99.8479 41.18V39.34C99.4612 39.86 98.9346 40.3 98.2679 40.66C97.6146 41.0067 96.8679 41.18 96.0279 41.18C95.0679 41.18 94.1879 40.94 93.3879 40.46C92.6012 39.9667 91.9746 39.2867 91.5079 38.42C91.0546 37.54 90.8279 36.5467 90.8279 35.44C90.8279 34.3333 91.0546 33.3533 91.5079 32.5C91.9746 31.6467 92.6012 30.9867 93.3879 30.52C94.1879 30.04 95.0679 29.8 96.0279 29.8ZM99.8479 35.48C99.8479 34.72 99.6879 34.06 99.3679 33.5C99.0612 32.94 98.6546 32.5133 98.1479 32.22C97.6412 31.9267 97.0946 31.78 96.5079 31.78C95.9212 31.78 95.3746 31.9267 94.8679 32.22C94.3612 32.5 93.9479 32.92 93.6279 33.48C93.3212 34.0267 93.1679 34.68 93.1679 35.44C93.1679 36.2 93.3212 36.8667 93.6279 37.44C93.9479 38.0133 94.3612 38.4533 94.8679 38.76C95.3879 39.0533 95.9346 39.2 96.5079 39.2C97.0946 39.2 97.6412 39.0533 98.1479 38.76C98.6546 38.4667 99.0612 38.04 99.3679 37.48C99.6879 36.9067 99.8479 36.24 99.8479 35.48ZM115.243 35.22C115.243 35.6333 115.216 36.0067 115.163 36.34H106.743C106.809 37.22 107.136 37.9267 107.723 38.46C108.309 38.9933 109.029 39.26 109.883 39.26C111.109 39.26 111.976 38.7467 112.483 37.72H114.943C114.609 38.7333 114.003 39.5667 113.123 40.22C112.256 40.86 111.176 41.18 109.883 41.18C108.829 41.18 107.883 40.9467 107.043 40.48C106.216 40 105.563 39.3333 105.083 38.48C104.616 37.6133 104.383 36.6133 104.383 35.48C104.383 34.3467 104.609 33.3533 105.063 32.5C105.529 31.6333 106.176 30.9667 107.003 30.5C107.843 30.0333 108.803 29.8 109.883 29.8C110.923 29.8 111.849 30.0267 112.663 30.48C113.476 30.9333 114.109 31.5733 114.563 32.4C115.016 33.2133 115.243 34.1533 115.243 35.22ZM112.863 34.5C112.849 33.66 112.549 32.9867 111.963 32.48C111.376 31.9733 110.649 31.72 109.783 31.72C108.996 31.72 108.323 31.9733 107.763 32.48C107.203 32.9733 106.869 33.6467 106.763 34.5H112.863ZM127.466 29.98V41H125.186V39.7C124.826 40.1533 124.353 40.5133 123.766 40.78C123.193 41.0333 122.58 41.16 121.926 41.16C121.06 41.16 120.28 40.98 119.586 40.62C118.906 40.26 118.366 39.7267 117.966 39.02C117.58 38.3133 117.386 37.46 117.386 36.46V29.98H119.646V36.12C119.646 37.1067 119.893 37.8667 120.386 38.4C120.88 38.92 121.553 39.18 122.406 39.18C123.26 39.18 123.933 38.92 124.426 38.4C124.933 37.8667 125.186 37.1067 125.186 36.12V29.98H127.466ZM133.135 31.84V37.94C133.135 38.3533 133.228 38.6533 133.415 38.84C133.615 39.0133 133.948 39.1 134.415 39.1H135.815V41H134.015C132.988 41 132.201 40.76 131.655 40.28C131.108 39.8 130.835 39.02 130.835 37.94V31.84H129.535V29.98H130.835V27.24H133.135V29.98H135.815V31.84H133.135ZM150.511 22.12L145.071 44.5H142.831L148.251 22.12H150.511ZM157.82 35.44C157.82 34.3333 158.047 33.3533 158.5 32.5C158.967 31.6467 159.593 30.9867 160.38 30.52C161.18 30.04 162.067 29.8 163.04 29.8C163.76 29.8 164.467 29.96 165.16 30.28C165.867 30.5867 166.427 31 166.84 31.52V26.2H169.14V41H166.84V39.34C166.467 39.8733 165.947 40.3133 165.28 40.66C164.627 41.0067 163.873 41.18 163.02 41.18C162.06 41.18 161.18 40.94 160.38 40.46C159.593 39.9667 158.967 39.2867 158.5 38.42C158.047 37.54 157.82 36.5467 157.82 35.44ZM166.84 35.48C166.84 34.72 166.68 34.06 166.36 33.5C166.053 32.94 165.647 32.5133 165.14 32.22C164.633 31.9267 164.087 31.78 163.5 31.78C162.913 31.78 162.367 31.9267 161.86 32.22C161.353 32.5 160.94 32.92 160.62 33.48C160.313 34.0267 160.16 34.68 160.16 35.44C160.16 36.2 160.313 36.8667 160.62 37.44C160.94 38.0133 161.353 38.4533 161.86 38.76C162.38 39.0533 162.927 39.2 163.5 39.2C164.087 39.2 164.633 39.0533 165.14 38.76C165.647 38.4667 166.053 38.04 166.36 37.48C166.68 36.9067 166.84 36.24 166.84 35.48ZM184.73 22.12L179.29 44.5H177.05L182.47 22.12H184.73ZM195.459 31.84V37.94C195.459 38.3533 195.552 38.6533 195.739 38.84C195.939 39.0133 196.272 39.1 196.739 39.1H198.139V41H196.339C195.312 41 194.525 40.76 193.979 40.28C193.432 39.8 193.159 39.02 193.159 37.94V31.84H191.859V29.98H193.159V27.24H195.459V29.98H198.139V31.84H195.459ZM199.68 44.72V44.5C201.054 43.0867 202.1 41.44 202.82 39.56C203.54 37.68 203.9 35.7333 203.9 33.72C203.9 31.6267 203.514 29.5933 202.74 27.62C201.967 25.6467 200.814 23.9533 199.28 22.54V22.32H201.64C203.107 23.6267 204.214 25.2867 204.96 27.3C205.72 29.3133 206.1 31.4533 206.1 33.72C206.1 35.9333 205.747 38.0067 205.04 39.94C204.347 41.8733 203.347 43.4667 202.04 44.72H199.68Z" fill="black"/>
<path d="M7.95176 21.605H33.9618V26.375H13.9818V40.91H7.95176V21.605ZM7.95176 39.425H34.2768V44.15H7.95176V39.425Z" fill="black"/>
</svg>
