<svg width="208" height="68" viewBox="0 0 208 68" fill="none" xmlns="http://www.w3.org/2000/svg">
<path d="M61.8974 42.72C60.5908 41.4667 59.5841 39.8733 58.8774 37.94C58.1841 36.0067 57.8374 33.9333 57.8374 31.72C57.8374 29.4533 58.2108 27.3133 58.9574 25.3C59.7174 23.2867 60.8308 21.6267 62.2974 20.32H64.6574V20.54C63.1241 21.9533 61.9708 23.6467 61.1974 25.62C60.4241 27.5933 60.0374 29.6267 60.0374 31.72C60.0374 33.7333 60.3974 35.68 61.1174 37.56C61.8374 39.44 62.8841 41.0867 64.2574 42.5V42.72H61.8974ZM71.1412 27.8C71.9945 27.8 72.7478 27.9733 73.4012 28.32C74.0678 28.6533 74.5878 29.0733 74.9612 29.58V27.98H77.2612V39.18C77.2612 40.1933 77.0478 41.0933 76.6212 41.88C76.1945 42.68 75.5745 43.3067 74.7612 43.76C73.9612 44.2133 73.0012 44.44 71.8812 44.44C70.3878 44.44 69.1478 44.0867 68.1612 43.38C67.1745 42.6867 66.6145 41.74 66.4812 40.54H68.7412C68.9145 41.1133 69.2812 41.5733 69.8412 41.92C70.4145 42.28 71.0945 42.46 71.8812 42.46C72.8012 42.46 73.5412 42.18 74.1012 41.62C74.6745 41.06 74.9612 40.2467 74.9612 39.18V37.34C74.5745 37.86 74.0478 38.3 73.3812 38.66C72.7278 39.0067 71.9812 39.18 71.1412 39.18C70.1812 39.18 69.3012 38.94 68.5012 38.46C67.7145 37.9667 67.0878 37.2867 66.6212 36.42C66.1678 35.54 65.9412 34.5467 65.9412 33.44C65.9412 32.3333 66.1678 31.3533 66.6212 30.5C67.0878 29.6467 67.7145 28.9867 68.5012 28.52C69.3012 28.04 70.1812 27.8 71.1412 27.8ZM74.9612 33.48C74.9612 32.72 74.8012 32.06 74.4812 31.5C74.1745 30.94 73.7678 30.5133 73.2612 30.22C72.7545 29.9267 72.2078 29.78 71.6212 29.78C71.0345 29.78 70.4878 29.9267 69.9812 30.22C69.4745 30.5 69.0612 30.92 68.7412 31.48C68.4345 32.0267 68.2812 32.68 68.2812 33.44C68.2812 34.2 68.4345 34.8667 68.7412 35.44C69.0612 36.0133 69.4745 36.4533 69.9812 36.76C70.5012 37.0533 71.0478 37.2 71.6212 37.2C72.2078 37.2 72.7545 37.0533 73.2612 36.76C73.7678 36.4667 74.1745 36.04 74.4812 35.48C74.8012 34.9067 74.9612 34.24 74.9612 33.48ZM81.4159 26.52C81.0025 26.52 80.6559 26.38 80.3759 26.1C80.0959 25.82 79.9559 25.4733 79.9559 25.06C79.9559 24.6467 80.0959 24.3 80.3759 24.02C80.6559 23.74 81.0025 23.6 81.4159 23.6C81.8159 23.6 82.1559 23.74 82.4359 24.02C82.7159 24.3 82.8559 24.6467 82.8559 25.06C82.8559 25.4733 82.7159 25.82 82.4359 26.1C82.1559 26.38 81.8159 26.52 81.4159 26.52ZM82.5359 27.98V39H80.2559V27.98H82.5359ZM95.4493 27.98L88.6893 44.18H86.3293L88.5693 38.82L84.2293 27.98H86.7693L89.8693 36.38L93.0893 27.98H95.4493ZM107.27 33.22C107.27 33.6333 107.243 34.0067 107.19 34.34H98.7699C98.8366 35.22 99.1633 35.9267 99.7499 36.46C100.337 36.9933 101.057 37.26 101.91 37.26C103.137 37.26 104.003 36.7467 104.51 35.72H106.97C106.637 36.7333 106.03 37.5667 105.15 38.22C104.283 38.86 103.203 39.18 101.91 39.18C100.857 39.18 99.9099 38.9467 99.0699 38.48C98.2433 38 97.5899 37.3333 97.1099 36.48C96.6433 35.6133 96.4099 34.6133 96.4099 33.48C96.4099 32.3467 96.6366 31.3533 97.0899 30.5C97.5566 29.6333 98.2033 28.9667 99.0299 28.5C99.8699 28.0333 100.83 27.8 101.91 27.8C102.95 27.8 103.877 28.0267 104.69 28.48C105.503 28.9333 106.137 29.5733 106.59 30.4C107.043 31.2133 107.27 32.1533 107.27 33.22ZM104.89 32.5C104.877 31.66 104.577 30.9867 103.99 30.48C103.403 29.9733 102.677 29.72 101.81 29.72C101.023 29.72 100.35 29.9733 99.7899 30.48C99.2299 30.9733 98.8966 31.6467 98.7899 32.5H104.89ZM114.294 39.18C113.254 39.18 112.314 38.9467 111.474 38.48C110.634 38 109.974 37.3333 109.494 36.48C109.014 35.6133 108.774 34.6133 108.774 33.48C108.774 32.36 109.02 31.3667 109.514 30.5C110.007 29.6333 110.68 28.9667 111.534 28.5C112.387 28.0333 113.34 27.8 114.394 27.8C115.447 27.8 116.4 28.0333 117.254 28.5C118.107 28.9667 118.78 29.6333 119.274 30.5C119.767 31.3667 120.014 32.36 120.014 33.48C120.014 34.6 119.76 35.5933 119.254 36.46C118.747 37.3267 118.054 38 117.174 38.48C116.307 38.9467 115.347 39.18 114.294 39.18ZM114.294 37.2C114.88 37.2 115.427 37.06 115.934 36.78C116.454 36.5 116.874 36.08 117.194 35.52C117.514 34.96 117.674 34.28 117.674 33.48C117.674 32.68 117.52 32.0067 117.214 31.46C116.907 30.9 116.5 30.48 115.994 30.2C115.487 29.92 114.94 29.78 114.354 29.78C113.767 29.78 113.22 29.92 112.714 30.2C112.22 30.48 111.827 30.9 111.534 31.46C111.24 32.0067 111.094 32.68 111.094 33.48C111.094 34.6667 111.394 35.5867 111.994 36.24C112.607 36.88 113.374 37.2 114.294 37.2ZM126.628 33.5L131.708 39H128.628L124.548 34.26V39H122.268V24.2H124.548V32.8L128.548 27.98H131.708L126.628 33.5ZM145.937 20.12L140.497 42.5H138.257L143.677 20.12H145.937ZM158.446 27.8C159.299 27.8 160.053 27.9733 160.706 28.32C161.373 28.6533 161.893 29.0733 162.266 29.58V27.98H164.566V39.18C164.566 40.1933 164.353 41.0933 163.926 41.88C163.499 42.68 162.879 43.3067 162.066 43.76C161.266 44.2133 160.306 44.44 159.186 44.44C157.693 44.44 156.453 44.0867 155.466 43.38C154.479 42.6867 153.919 41.74 153.786 40.54H156.046C156.219 41.1133 156.586 41.5733 157.146 41.92C157.719 42.28 158.399 42.46 159.186 42.46C160.106 42.46 160.846 42.18 161.406 41.62C161.979 41.06 162.266 40.2467 162.266 39.18V37.34C161.879 37.86 161.353 38.3 160.686 38.66C160.033 39.0067 159.286 39.18 158.446 39.18C157.486 39.18 156.606 38.94 155.806 38.46C155.019 37.9667 154.393 37.2867 153.926 36.42C153.473 35.54 153.246 34.5467 153.246 33.44C153.246 32.3333 153.473 31.3533 153.926 30.5C154.393 29.6467 155.019 28.9867 155.806 28.52C156.606 28.04 157.486 27.8 158.446 27.8ZM162.266 33.48C162.266 32.72 162.106 32.06 161.786 31.5C161.479 30.94 161.073 30.5133 160.566 30.22C160.059 29.9267 159.513 29.78 158.926 29.78C158.339 29.78 157.793 29.9267 157.286 30.22C156.779 30.5 156.366 30.92 156.046 31.48C155.739 32.0267 155.586 32.68 155.586 33.44C155.586 34.2 155.739 34.8667 156.046 35.44C156.366 36.0133 156.779 36.4533 157.286 36.76C157.806 37.0533 158.353 37.2 158.926 37.2C159.513 37.2 160.059 37.0533 160.566 36.76C161.073 36.4667 161.479 36.04 161.786 35.48C162.106 34.9067 162.266 34.24 162.266 33.48ZM180.156 20.12L174.716 42.5H172.476L177.896 20.12H180.156ZM192.585 33.5L197.665 39H194.585L190.505 34.26V39H188.225V24.2H190.505V32.8L194.505 27.98H197.665L192.585 33.5ZM198.739 42.72V42.5C200.112 41.0867 201.159 39.44 201.879 37.56C202.599 35.68 202.959 33.7333 202.959 31.72C202.959 29.6267 202.572 27.5933 201.799 25.62C201.025 23.6467 199.872 21.9533 198.339 20.54V20.32H200.699C202.165 21.6267 203.272 23.2867 204.019 25.3C204.779 27.3133 205.159 29.4533 205.159 31.72C205.159 33.9333 204.805 36.0067 204.099 37.94C203.405 39.8733 202.405 41.4667 201.099 42.72H198.739Z" fill="black"/>
<path d="M7.77176 21.74H34.1868V44.15H28.2468V26.51H7.77176V21.74Z" fill="black"/>
</svg>
