<svg width="202" height="68" viewBox="0 0 202 68" fill="none" xmlns="http://www.w3.org/2000/svg">
<path d="M75.7998 44.72C74.4931 43.4667 73.4864 41.8733 72.7798 39.94C72.0864 38.0067 71.7398 35.9333 71.7398 33.72C71.7398 31.4533 72.1131 29.3133 72.8598 27.3C73.6198 25.2867 74.7331 23.6267 76.1998 22.32H78.5598V22.54C77.0264 23.9533 75.8731 25.6467 75.0998 27.62C74.3264 29.5933 73.9398 31.6267 73.9398 33.72C73.9398 35.7333 74.2998 37.68 75.0198 39.56C75.7398 41.44 76.7864 43.0867 78.1598 44.5V44.72H75.7998ZM86.3035 29.8C87.1435 29.8 87.8902 29.98 88.5435 30.34C89.2102 30.7 89.7302 31.2333 90.1035 31.94C90.4902 32.6467 90.6835 33.5 90.6835 34.5V41H88.4235V34.84C88.4235 33.8533 88.1768 33.1 87.6835 32.58C87.1902 32.0467 86.5168 31.78 85.6635 31.78C84.8102 31.78 84.1302 32.0467 83.6235 32.58C83.1302 33.1 82.8835 33.8533 82.8835 34.84V41H80.6035V26.2H82.8835V31.26C83.2702 30.7933 83.7568 30.4333 84.3435 30.18C84.9435 29.9267 85.5968 29.8 86.3035 29.8ZM94.7518 28.52C94.3385 28.52 93.9918 28.38 93.7118 28.1C93.4318 27.82 93.2918 27.4733 93.2918 27.06C93.2918 26.6467 93.4318 26.3 93.7118 26.02C93.9918 25.74 94.3385 25.6 94.7518 25.6C95.1518 25.6 95.4918 25.74 95.7718 26.02C96.0518 26.3 96.1918 26.6467 96.1918 27.06C96.1918 27.4733 96.0518 27.82 95.7718 28.1C95.4918 28.38 95.1518 28.52 94.7518 28.52ZM95.8718 29.98V41H93.5918V29.98H95.8718ZM108.965 35.22C108.965 35.6333 108.939 36.0067 108.885 36.34H100.465C100.532 37.22 100.859 37.9267 101.445 38.46C102.032 38.9933 102.752 39.26 103.605 39.26C104.832 39.26 105.699 38.7467 106.205 37.72H108.665C108.332 38.7333 107.725 39.5667 106.845 40.22C105.979 40.86 104.899 41.18 103.605 41.18C102.552 41.18 101.605 40.9467 100.765 40.48C99.9386 40 99.2852 39.3333 98.8052 38.48C98.3386 37.6133 98.1052 36.6133 98.1052 35.48C98.1052 34.3467 98.3319 33.3533 98.7852 32.5C99.2519 31.6333 99.8986 30.9667 100.725 30.5C101.565 30.0333 102.525 29.8 103.605 29.8C104.645 29.8 105.572 30.0267 106.385 30.48C107.199 30.9333 107.832 31.5733 108.285 32.4C108.739 33.2133 108.965 34.1533 108.965 35.22ZM106.585 34.5C106.572 33.66 106.272 32.9867 105.685 32.48C105.099 31.9733 104.372 31.72 103.505 31.72C102.719 31.72 102.045 31.9733 101.485 32.48C100.925 32.9733 100.592 33.6467 100.485 34.5H106.585ZM121.189 29.98V41H118.909V39.7C118.549 40.1533 118.076 40.5133 117.489 40.78C116.916 41.0333 116.302 41.16 115.649 41.16C114.782 41.16 114.002 40.98 113.309 40.62C112.629 40.26 112.089 39.7267 111.689 39.02C111.302 38.3133 111.109 37.46 111.109 36.46V29.98H113.369V36.12C113.369 37.1067 113.616 37.8667 114.109 38.4C114.602 38.92 115.276 39.18 116.129 39.18C116.982 39.18 117.656 38.92 118.149 38.4C118.656 37.8667 118.909 37.1067 118.909 36.12V29.98H121.189ZM126.857 31.84V37.94C126.857 38.3533 126.951 38.6533 127.137 38.84C127.337 39.0133 127.671 39.1 128.137 39.1H129.537V41H127.737C126.711 41 125.924 40.76 125.377 40.28C124.831 39.8 124.557 39.02 124.557 37.94V31.84H123.257V29.98H124.557V27.24H126.857V29.98H129.537V31.84H126.857ZM144.234 22.12L138.794 44.5H136.554L141.974 22.12H144.234ZM158.003 29.8C158.843 29.8 159.589 29.98 160.243 30.34C160.909 30.7 161.429 31.2333 161.803 31.94C162.189 32.6467 162.383 33.5 162.383 34.5V41H160.123V34.84C160.123 33.8533 159.876 33.1 159.383 32.58C158.889 32.0467 158.216 31.78 157.363 31.78C156.509 31.78 155.829 32.0467 155.323 32.58C154.829 33.1 154.583 33.8533 154.583 34.84V41H152.303V26.2H154.583V31.26C154.969 30.7933 155.456 30.4333 156.043 30.18C156.643 29.9267 157.296 29.8 158.003 29.8ZM177.886 22.12L172.446 44.5H170.206L175.626 22.12H177.886ZM188.615 31.84V37.94C188.615 38.3533 188.708 38.6533 188.895 38.84C189.095 39.0133 189.428 39.1 189.895 39.1H191.295V41H189.495C188.468 41 187.682 40.76 187.135 40.28C186.588 39.8 186.315 39.02 186.315 37.94V31.84H185.015V29.98H186.315V27.24H188.615V29.98H191.295V31.84H188.615ZM192.836 44.72V44.5C194.21 43.0867 195.256 41.44 195.976 39.56C196.696 37.68 197.056 35.7333 197.056 33.72C197.056 31.6267 196.67 29.5933 195.896 27.62C195.123 25.6467 193.97 23.9533 192.436 22.54V22.32H194.796C196.263 23.6267 197.37 25.2867 198.116 27.3C198.876 29.3133 199.256 31.4533 199.256 33.72C199.256 35.9333 198.903 38.0067 198.196 39.94C197.503 41.8733 196.503 43.4667 195.196 44.72H192.836Z" fill="black"/>
<path d="M7.32176 23.135H34.8618V27.995H7.32176V23.135ZM21.1368 30.155C27.4368 30.155 32.0718 33.53 32.0718 38.3C32.0718 43.07 27.4368 46.445 21.1368 46.445C14.8818 46.445 10.2468 43.07 10.2468 38.3C10.2468 33.53 14.8818 30.155 21.1368 30.155ZM21.1368 35.15C18.3918 35.15 16.3668 36.23 16.3668 38.3C16.3668 40.37 18.3918 41.45 21.1368 41.45C23.8818 41.45 25.9518 40.37 25.9518 38.3C25.9518 36.23 23.8818 35.15 21.1368 35.15ZM18.1668 18.005H24.1518V27.41H18.1668V18.005Z" fill="black"/>
</svg>
