<svg width="197" height="68" viewBox="0 0 197 68" fill="none" xmlns="http://www.w3.org/2000/svg">
<path d="M73.9209 44.72C72.6142 43.4667 71.6075 41.8733 70.9009 39.94C70.2075 38.0067 69.8609 35.9333 69.8609 33.72C69.8609 31.4533 70.2342 29.3133 70.9809 27.3C71.7409 25.2867 72.8542 23.6267 74.3209 22.32H76.6809V22.54C75.1475 23.9533 73.9942 25.6467 73.2209 27.62C72.4475 29.5933 72.0609 31.6267 72.0609 33.72C72.0609 35.7333 72.4209 37.68 73.1409 39.56C73.8609 41.44 74.9075 43.0867 76.2809 44.5V44.72H73.9209ZM79.8846 28.52C79.4713 28.52 79.1246 28.38 78.8446 28.1C78.5646 27.82 78.4246 27.4733 78.4246 27.06C78.4246 26.6467 78.5646 26.3 78.8446 26.02C79.1246 25.74 79.4713 25.6 79.8846 25.6C80.2846 25.6 80.6246 25.74 80.9046 26.02C81.1846 26.3 81.3246 26.6467 81.3246 27.06C81.3246 27.4733 81.1846 27.82 80.9046 28.1C80.6246 28.38 80.2846 28.52 79.8846 28.52ZM81.0046 29.98V41H78.7246V29.98H81.0046ZM94.098 35.22C94.098 35.6333 94.0714 36.0067 94.018 36.34H85.598C85.6647 37.22 85.9914 37.9267 86.578 38.46C87.1647 38.9933 87.8847 39.26 88.738 39.26C89.9647 39.26 90.8314 38.7467 91.338 37.72H93.798C93.4647 38.7333 92.858 39.5667 91.978 40.22C91.1114 40.86 90.0314 41.18 88.738 41.18C87.6847 41.18 86.738 40.9467 85.898 40.48C85.0714 40 84.418 39.3333 83.938 38.48C83.4714 37.6133 83.238 36.6133 83.238 35.48C83.238 34.3467 83.4647 33.3533 83.918 32.5C84.3847 31.6333 85.0314 30.9667 85.858 30.5C86.698 30.0333 87.658 29.8 88.738 29.8C89.778 29.8 90.7047 30.0267 91.518 30.48C92.3314 30.9333 92.9647 31.5733 93.418 32.4C93.8714 33.2133 94.098 34.1533 94.098 35.22ZM91.718 34.5C91.7047 33.66 91.4047 32.9867 90.818 32.48C90.2314 31.9733 89.5047 31.72 88.638 31.72C87.8514 31.72 87.178 31.9733 86.618 32.48C86.058 32.9733 85.7247 33.6467 85.618 34.5H91.718ZM106.322 29.98V41H104.042V39.7C103.682 40.1533 103.208 40.5133 102.622 40.78C102.048 41.0333 101.435 41.16 100.782 41.16C99.9151 41.16 99.1351 40.98 98.4418 40.62C97.7618 40.26 97.2218 39.7267 96.8218 39.02C96.4351 38.3133 96.2418 37.46 96.2418 36.46V29.98H98.5018V36.12C98.5018 37.1067 98.7485 37.8667 99.2418 38.4C99.7351 38.92 100.408 39.18 101.262 39.18C102.115 39.18 102.788 38.92 103.282 38.4C103.788 37.8667 104.042 37.1067 104.042 36.12V29.98H106.322ZM114.89 29.8C115.757 29.8 116.53 29.98 117.21 30.34C117.903 30.7 118.443 31.2333 118.83 31.94C119.217 32.6467 119.41 33.5 119.41 34.5V41H117.15V34.84C117.15 33.8533 116.903 33.1 116.41 32.58C115.917 32.0467 115.243 31.78 114.39 31.78C113.537 31.78 112.857 32.0467 112.35 32.58C111.857 33.1 111.61 33.8533 111.61 34.84V41H109.33V29.98H111.61V31.24C111.983 30.7867 112.457 30.4333 113.03 30.18C113.617 29.9267 114.237 29.8 114.89 29.8ZM126.758 29.8C127.612 29.8 128.365 29.9733 129.018 30.32C129.685 30.6533 130.205 31.0733 130.578 31.58V29.98H132.878V41.18C132.878 42.1933 132.665 43.0933 132.238 43.88C131.812 44.68 131.192 45.3067 130.378 45.76C129.578 46.2133 128.618 46.44 127.498 46.44C126.005 46.44 124.765 46.0867 123.778 45.38C122.792 44.6867 122.232 43.74 122.098 42.54H124.358C124.532 43.1133 124.898 43.5733 125.458 43.92C126.032 44.28 126.712 44.46 127.498 44.46C128.418 44.46 129.158 44.18 129.718 43.62C130.292 43.06 130.578 42.2467 130.578 41.18V39.34C130.192 39.86 129.665 40.3 128.998 40.66C128.345 41.0067 127.598 41.18 126.758 41.18C125.798 41.18 124.918 40.94 124.118 40.46C123.332 39.9667 122.705 39.2867 122.238 38.42C121.785 37.54 121.558 36.5467 121.558 35.44C121.558 34.3333 121.785 33.3533 122.238 32.5C122.705 31.6467 123.332 30.9867 124.118 30.52C124.918 30.04 125.798 29.8 126.758 29.8ZM130.578 35.48C130.578 34.72 130.418 34.06 130.098 33.5C129.792 32.94 129.385 32.5133 128.878 32.22C128.372 31.9267 127.825 31.78 127.238 31.78C126.652 31.78 126.105 31.9267 125.598 32.22C125.092 32.5 124.678 32.92 124.358 33.48C124.052 34.0267 123.898 34.68 123.898 35.44C123.898 36.2 124.052 36.8667 124.358 37.44C124.678 38.0133 125.092 38.4533 125.598 38.76C126.118 39.0533 126.665 39.2 127.238 39.2C127.825 39.2 128.372 39.0533 128.878 38.76C129.385 38.4667 129.792 38.04 130.098 37.48C130.418 36.9067 130.578 36.24 130.578 35.48ZM148.468 22.12L143.028 44.5H140.788L146.208 22.12H148.468ZM162.097 29.8C162.964 29.8 163.737 29.98 164.417 30.34C165.11 30.7 165.65 31.2333 166.037 31.94C166.424 32.6467 166.617 33.5 166.617 34.5V41H164.357V34.84C164.357 33.8533 164.11 33.1 163.617 32.58C163.124 32.0467 162.45 31.78 161.597 31.78C160.744 31.78 160.064 32.0467 159.557 32.58C159.064 33.1 158.817 33.8533 158.817 34.84V41H156.537V29.98H158.817V31.24C159.19 30.7867 159.664 30.4333 160.237 30.18C160.824 29.9267 161.444 29.8 162.097 29.8ZM173.965 29.8C174.819 29.8 175.572 29.9733 176.225 30.32C176.892 30.6533 177.412 31.0733 177.785 31.58V29.98H180.085V41.18C180.085 42.1933 179.872 43.0933 179.445 43.88C179.019 44.68 178.399 45.3067 177.585 45.76C176.785 46.2133 175.825 46.44 174.705 46.44C173.212 46.44 171.972 46.0867 170.985 45.38C169.999 44.6867 169.439 43.74 169.305 42.54H171.565C171.739 43.1133 172.105 43.5733 172.665 43.92C173.239 44.28 173.919 44.46 174.705 44.46C175.625 44.46 176.365 44.18 176.925 43.62C177.499 43.06 177.785 42.2467 177.785 41.18V39.34C177.399 39.86 176.872 40.3 176.205 40.66C175.552 41.0067 174.805 41.18 173.965 41.18C173.005 41.18 172.125 40.94 171.325 40.46C170.539 39.9667 169.912 39.2867 169.445 38.42C168.992 37.54 168.765 36.5467 168.765 35.44C168.765 34.3333 168.992 33.3533 169.445 32.5C169.912 31.6467 170.539 30.9867 171.325 30.52C172.125 30.04 173.005 29.8 173.965 29.8ZM177.785 35.48C177.785 34.72 177.625 34.06 177.305 33.5C176.999 32.94 176.592 32.5133 176.085 32.22C175.579 31.9267 175.032 31.78 174.445 31.78C173.859 31.78 173.312 31.9267 172.805 32.22C172.299 32.5 171.885 32.92 171.565 33.48C171.259 34.0267 171.105 34.68 171.105 35.44C171.105 36.2 171.259 36.8667 171.565 37.44C171.885 38.0133 172.299 38.4533 172.805 38.76C173.325 39.0533 173.872 39.2 174.445 39.2C175.032 39.2 175.579 39.0533 176.085 38.76C176.592 38.4667 176.999 38.04 177.305 37.48C177.625 36.9067 177.785 36.24 177.785 35.48ZM187.715 44.72V44.5C189.089 43.0867 190.135 41.44 190.855 39.56C191.575 37.68 191.935 35.7333 191.935 33.72C191.935 31.6267 191.549 29.5933 190.775 27.62C190.002 25.6467 188.849 23.9533 187.315 22.54V22.32H189.675C191.142 23.6267 192.249 25.2867 192.995 27.3C193.755 29.3133 194.135 31.4533 194.135 33.72C194.135 35.9333 193.782 38.0067 193.075 39.94C192.382 41.8733 191.382 43.4667 190.075 44.72H187.715Z" fill="black"/>
<path d="M21.0018 21.02C28.3368 21.02 34.2768 26.015 34.2768 32.81C34.2768 39.65 28.3368 44.645 21.0018 44.645C13.7118 44.645 7.72676 39.65 7.72676 32.81C7.72676 26.015 13.7118 21.02 21.0018 21.02ZM21.0018 26.105C16.7718 26.105 13.4418 28.715 13.4418 32.81C13.4418 36.95 16.7718 39.605 21.0018 39.605C25.2318 39.605 28.5618 36.95 28.5618 32.81C28.5618 28.715 25.2318 26.105 21.0018 26.105Z" fill="black"/>
</svg>
