<svg width="191" height="68" viewBox="0 0 191 68" fill="none" xmlns="http://www.w3.org/2000/svg">
<path d="M80.0146 44.72C78.7079 43.4667 77.7013 41.8733 76.9946 39.94C76.3013 38.0067 75.9546 35.9333 75.9546 33.72C75.9546 31.4533 76.3279 29.3133 77.0746 27.3C77.8346 25.2867 78.9479 23.6267 80.4146 22.32H82.7746V22.54C81.2413 23.9533 80.0879 25.6467 79.3146 27.62C78.5413 29.5933 78.1546 31.6267 78.1546 33.72C78.1546 35.7333 78.5146 37.68 79.2346 39.56C79.9546 41.44 81.0013 43.0867 82.3746 44.5V44.72H80.0146ZM85.9784 28.52C85.565 28.52 85.2184 28.38 84.9384 28.1C84.6584 27.82 84.5184 27.4733 84.5184 27.06C84.5184 26.6467 84.6584 26.3 84.9384 26.02C85.2184 25.74 85.565 25.6 85.9784 25.6C86.3784 25.6 86.7184 25.74 86.9984 26.02C87.2784 26.3 87.4184 26.6467 87.4184 27.06C87.4184 27.4733 87.2784 27.82 86.9984 28.1C86.7184 28.38 86.3784 28.52 85.9784 28.52ZM87.0984 43.16C87.0984 44.24 86.825 45.02 86.2784 45.5C85.745 45.9933 84.965 46.24 83.9384 46.24H82.7584V44.32H83.5384C84.005 44.32 84.3317 44.2267 84.5184 44.04C84.7184 43.8667 84.8184 43.5733 84.8184 43.16V29.98H87.0984V43.16ZM91.2518 28.52C90.8385 28.52 90.4918 28.38 90.2118 28.1C89.9318 27.82 89.7918 27.4733 89.7918 27.06C89.7918 26.6467 89.9318 26.3 90.2118 26.02C90.4918 25.74 90.8385 25.6 91.2518 25.6C91.6518 25.6 91.9918 25.74 92.2718 26.02C92.5518 26.3 92.6918 26.6467 92.6918 27.06C92.6918 27.4733 92.5518 27.82 92.2718 28.1C91.9918 28.38 91.6518 28.52 91.2518 28.52ZM92.3718 29.98V41H90.0918V29.98H92.3718ZM105.465 35.22C105.465 35.6333 105.439 36.0067 105.385 36.34H96.9652C97.0319 37.22 97.3586 37.9267 97.9452 38.46C98.5319 38.9933 99.2519 39.26 100.105 39.26C101.332 39.26 102.199 38.7467 102.705 37.72H105.165C104.832 38.7333 104.225 39.5667 103.345 40.22C102.479 40.86 101.399 41.18 100.105 41.18C99.0519 41.18 98.1052 40.9467 97.2652 40.48C96.4386 40 95.7852 39.3333 95.3052 38.48C94.8386 37.6133 94.6052 36.6133 94.6052 35.48C94.6052 34.3467 94.8319 33.3533 95.2852 32.5C95.7519 31.6333 96.3986 30.9667 97.2252 30.5C98.0652 30.0333 99.0252 29.8 100.105 29.8C101.145 29.8 102.072 30.0267 102.885 30.48C103.699 30.9333 104.332 31.5733 104.785 32.4C105.239 33.2133 105.465 34.1533 105.465 35.22ZM103.085 34.5C103.072 33.66 102.772 32.9867 102.185 32.48C101.599 31.9733 100.872 31.72 100.005 31.72C99.2186 31.72 98.5452 31.9733 97.9852 32.48C97.4252 32.9733 97.0919 33.6467 96.9852 34.5H103.085ZM117.689 29.98V41H115.409V39.7C115.049 40.1533 114.576 40.5133 113.989 40.78C113.416 41.0333 112.802 41.16 112.149 41.16C111.282 41.16 110.502 40.98 109.809 40.62C109.129 40.26 108.589 39.7267 108.189 39.02C107.802 38.3133 107.609 37.46 107.609 36.46V29.98H109.869V36.12C109.869 37.1067 110.116 37.8667 110.609 38.4C111.102 38.92 111.776 39.18 112.629 39.18C113.482 39.18 114.156 38.92 114.649 38.4C115.156 37.8667 115.409 37.1067 115.409 36.12V29.98H117.689ZM123.357 31.84V37.94C123.357 38.3533 123.451 38.6533 123.637 38.84C123.837 39.0133 124.171 39.1 124.637 39.1H126.037V41H124.237C123.211 41 122.424 40.76 121.877 40.28C121.331 39.8 121.057 39.02 121.057 37.94V31.84H119.757V29.98H121.057V27.24H123.357V29.98H126.037V31.84H123.357ZM140.734 22.12L135.294 44.5H133.054L138.474 22.12H140.734ZM149.963 28.52C149.549 28.52 149.203 28.38 148.923 28.1C148.643 27.82 148.503 27.4733 148.503 27.06C148.503 26.6467 148.643 26.3 148.923 26.02C149.203 25.74 149.549 25.6 149.963 25.6C150.363 25.6 150.703 25.74 150.983 26.02C151.263 26.3 151.403 26.6467 151.403 27.06C151.403 27.4733 151.263 27.82 150.983 28.1C150.703 28.38 150.363 28.52 149.963 28.52ZM151.083 43.16C151.083 44.24 150.809 45.02 150.263 45.5C149.729 45.9933 148.949 46.24 147.923 46.24H146.743V44.32H147.523C147.989 44.32 148.316 44.2267 148.503 44.04C148.703 43.8667 148.803 43.5733 148.803 43.16V29.98H151.083V43.16ZM166.671 22.12L161.231 44.5H158.991L164.411 22.12H166.671ZM177.4 31.84V37.94C177.4 38.3533 177.494 38.6533 177.68 38.84C177.88 39.0133 178.214 39.1 178.68 39.1H180.08V41H178.28C177.254 41 176.467 40.76 175.92 40.28C175.374 39.8 175.1 39.02 175.1 37.94V31.84H173.8V29.98H175.1V27.24H177.4V29.98H180.08V31.84H177.4ZM181.622 44.72V44.5C182.995 43.0867 184.042 41.44 184.762 39.56C185.482 37.68 185.842 35.7333 185.842 33.72C185.842 31.6267 185.455 29.5933 184.682 27.62C183.908 25.6467 182.755 23.9533 181.222 22.54V22.32H183.582C185.048 23.6267 186.155 25.2867 186.902 27.3C187.662 29.3133 188.042 31.4533 188.042 33.72C188.042 35.9333 187.688 38.0067 186.982 39.94C186.288 41.8733 185.288 43.4667 183.982 44.72H181.622Z" fill="black"/>
<path d="M18.1218 22.01H22.8918V27.05C22.8918 35.78 18.3918 42.305 9.25676 44.735L6.51176 40.145C14.6118 38.3 18.1218 33.08 18.1218 27.05V22.01ZM19.3368 22.01H24.0618V27.05C24.0618 33.08 27.6168 38.3 35.6718 40.145L32.9268 44.735C23.8368 42.305 19.3368 35.78 19.3368 27.05V22.01ZM7.95176 21.2H34.5018V25.97H7.95176V21.2Z" fill="black"/>
</svg>
