<svg width="194" height="68" viewBox="0 0 194 68" fill="none" xmlns="http://www.w3.org/2000/svg">
<path d="M77.8584 44.72C76.5517 43.4667 75.545 41.8733 74.8384 39.94C74.145 38.0067 73.7984 35.9333 73.7984 33.72C73.7984 31.4533 74.1717 29.3133 74.9184 27.3C75.6784 25.2867 76.7917 23.6267 78.2584 22.32H80.6184V22.54C79.085 23.9533 77.9317 25.6467 77.1584 27.62C76.385 29.5933 75.9984 31.6267 75.9984 33.72C75.9984 35.7333 76.3584 37.68 77.0784 39.56C77.7984 41.44 78.845 43.0867 80.2184 44.5V44.72H77.8584ZM87.0221 35.5L92.1021 41H89.0221L84.9421 36.26V41H82.6621V26.2H84.9421V34.8L88.9421 29.98H92.1021L87.0221 35.5ZM94.8963 28.52C94.483 28.52 94.1363 28.38 93.8563 28.1C93.5763 27.82 93.4363 27.4733 93.4363 27.06C93.4363 26.6467 93.5763 26.3 93.8563 26.02C94.1363 25.74 94.483 25.6 94.8963 25.6C95.2963 25.6 95.6363 25.74 95.9163 26.02C96.1963 26.3 96.3363 26.6467 96.3363 27.06C96.3363 27.4733 96.1963 27.82 95.9163 28.1C95.6363 28.38 95.2963 28.52 94.8963 28.52ZM96.0163 29.98V41H93.7363V29.98H96.0163ZM109.11 35.22C109.11 35.6333 109.083 36.0067 109.03 36.34H100.61C100.676 37.22 101.003 37.9267 101.59 38.46C102.176 38.9933 102.896 39.26 103.75 39.26C104.976 39.26 105.843 38.7467 106.35 37.72H108.81C108.476 38.7333 107.87 39.5667 106.99 40.22C106.123 40.86 105.043 41.18 103.75 41.18C102.696 41.18 101.75 40.9467 100.91 40.48C100.083 40 99.4298 39.3333 98.9498 38.48C98.4831 37.6133 98.2498 36.6133 98.2498 35.48C98.2498 34.3467 98.4764 33.3533 98.9298 32.5C99.3964 31.6333 100.043 30.9667 100.87 30.5C101.71 30.0333 102.67 29.8 103.75 29.8C104.79 29.8 105.716 30.0267 106.53 30.48C107.343 30.9333 107.976 31.5733 108.43 32.4C108.883 33.2133 109.11 34.1533 109.11 35.22ZM106.73 34.5C106.716 33.66 106.416 32.9867 105.83 32.48C105.243 31.9733 104.516 31.72 103.65 31.72C102.863 31.72 102.19 31.9733 101.63 32.48C101.07 32.9733 100.736 33.6467 100.63 34.5H106.73ZM121.334 29.98V41H119.054V39.7C118.694 40.1533 118.22 40.5133 117.634 40.78C117.06 41.0333 116.447 41.16 115.794 41.16C114.927 41.16 114.147 40.98 113.454 40.62C112.774 40.26 112.234 39.7267 111.834 39.02C111.447 38.3133 111.254 37.46 111.254 36.46V29.98H113.514V36.12C113.514 37.1067 113.76 37.8667 114.254 38.4C114.747 38.92 115.42 39.18 116.274 39.18C117.127 39.18 117.8 38.92 118.294 38.4C118.8 37.8667 119.054 37.1067 119.054 36.12V29.98H121.334ZM128.702 35.5L133.782 41H130.702L126.622 36.26V41H124.342V26.2H126.622V34.8L130.622 29.98H133.782L128.702 35.5ZM148.011 22.12L142.571 44.5H140.331L145.751 22.12H148.011ZM160.44 35.5L165.52 41H162.44L158.36 36.26V41H156.08V26.2H158.36V34.8L162.36 29.98H165.52L160.44 35.5ZM172.854 29.8C173.694 29.8 174.441 29.98 175.094 30.34C175.761 30.7 176.281 31.2333 176.654 31.94C177.041 32.6467 177.234 33.5 177.234 34.5V41H174.974V34.84C174.974 33.8533 174.728 33.1 174.234 32.58C173.741 32.0467 173.068 31.78 172.214 31.78C171.361 31.78 170.681 32.0467 170.174 32.58C169.681 33.1 169.434 33.8533 169.434 34.84V41H167.154V26.2H169.434V31.26C169.821 30.7933 170.308 30.4333 170.894 30.18C171.494 29.9267 172.148 29.8 172.854 29.8ZM184.778 44.72V44.5C186.151 43.0867 187.198 41.44 187.918 39.56C188.638 37.68 188.998 35.7333 188.998 33.72C188.998 31.6267 188.611 29.5933 187.838 27.62C187.065 25.6467 185.911 23.9533 184.378 22.54V22.32H186.738C188.205 23.6267 189.311 25.2867 190.058 27.3C190.818 29.3133 191.198 31.4533 191.198 33.72C191.198 35.9333 190.845 38.0067 190.138 39.94C189.445 41.8733 188.445 43.4667 187.138 44.72H184.778Z" fill="black"/>
<path d="M8.49176 21.155H34.5918V44.555H28.5618V25.925H8.49176V21.155ZM30.1818 31.19V35.78L8.08676 37.31L7.36676 32.18L30.1818 31.19Z" fill="black"/>
</svg>
