<svg width="207" height="68" viewBox="0 0 207 68" fill="none" xmlns="http://www.w3.org/2000/svg">
<path d="M74.792 44.72C73.4853 43.4667 72.4786 41.8733 71.772 39.94C71.0786 38.0067 70.732 35.9333 70.732 33.72C70.732 31.4533 71.1053 29.3133 71.852 27.3C72.612 25.2867 73.7253 23.6267 75.192 22.32H77.552V22.54C76.0186 23.9533 74.8653 25.6467 74.092 27.62C73.3186 29.5933 72.932 31.6267 72.932 33.72C72.932 35.7333 73.292 37.68 74.012 39.56C74.732 41.44 75.7786 43.0867 77.152 44.5V44.72H74.792ZM92.9357 29.8C93.8024 29.8 94.5757 29.98 95.2557 30.34C95.949 30.7 96.489 31.2333 96.8757 31.94C97.2757 32.6467 97.4757 33.5 97.4757 34.5V41H95.2157V34.84C95.2157 33.8533 94.969 33.1 94.4757 32.58C93.9824 32.0467 93.309 31.78 92.4557 31.78C91.6024 31.78 90.9224 32.0467 90.4157 32.58C89.9224 33.1 89.6757 33.8533 89.6757 34.84V41H87.4157V34.84C87.4157 33.8533 87.169 33.1 86.6757 32.58C86.1824 32.0467 85.509 31.78 84.6557 31.78C83.8024 31.78 83.1224 32.0467 82.6157 32.58C82.1224 33.1 81.8757 33.8533 81.8757 34.84V41H79.5957V29.98H81.8757V31.24C82.249 30.7867 82.7224 30.4333 83.2957 30.18C83.869 29.9267 84.4824 29.8 85.1357 29.8C86.0157 29.8 86.8024 29.9867 87.4957 30.36C88.189 30.7333 88.7224 31.2733 89.0957 31.98C89.429 31.3133 89.949 30.7867 90.6557 30.4C91.3624 30 92.1224 29.8 92.9357 29.8ZM101.537 28.52C101.124 28.52 100.777 28.38 100.497 28.1C100.217 27.82 100.077 27.4733 100.077 27.06C100.077 26.6467 100.217 26.3 100.497 26.02C100.777 25.74 101.124 25.6 101.537 25.6C101.937 25.6 102.277 25.74 102.557 26.02C102.837 26.3 102.977 26.6467 102.977 27.06C102.977 27.4733 102.837 27.82 102.557 28.1C102.277 28.38 101.937 28.52 101.537 28.52ZM102.657 29.98V41H100.377V29.98H102.657ZM115.75 35.22C115.75 35.6333 115.724 36.0067 115.67 36.34H107.25C107.317 37.22 107.644 37.9267 108.23 38.46C108.817 38.9933 109.537 39.26 110.39 39.26C111.617 39.26 112.484 38.7467 112.99 37.72H115.45C115.117 38.7333 114.51 39.5667 113.63 40.22C112.764 40.86 111.684 41.18 110.39 41.18C109.337 41.18 108.39 40.9467 107.55 40.48C106.724 40 106.07 39.3333 105.59 38.48C105.124 37.6133 104.89 36.6133 104.89 35.48C104.89 34.3467 105.117 33.3533 105.57 32.5C106.037 31.6333 106.684 30.9667 107.51 30.5C108.35 30.0333 109.31 29.8 110.39 29.8C111.43 29.8 112.357 30.0267 113.17 30.48C113.984 30.9333 114.617 31.5733 115.07 32.4C115.524 33.2133 115.75 34.1533 115.75 35.22ZM113.37 34.5C113.357 33.66 113.057 32.9867 112.47 32.48C111.884 31.9733 111.157 31.72 110.29 31.72C109.504 31.72 108.83 31.9733 108.27 32.48C107.71 32.9733 107.377 33.6467 107.27 34.5H113.37ZM127.974 29.98V41H125.694V39.7C125.334 40.1533 124.861 40.5133 124.274 40.78C123.701 41.0333 123.087 41.16 122.434 41.16C121.567 41.16 120.787 40.98 120.094 40.62C119.414 40.26 118.874 39.7267 118.474 39.02C118.087 38.3133 117.894 37.46 117.894 36.46V29.98H120.154V36.12C120.154 37.1067 120.401 37.8667 120.894 38.4C121.387 38.92 122.061 39.18 122.914 39.18C123.767 39.18 124.441 38.92 124.934 38.4C125.441 37.8667 125.694 37.1067 125.694 36.12V29.98H127.974ZM144.322 29.8C145.189 29.8 145.962 29.98 146.642 30.34C147.336 30.7 147.876 31.2333 148.262 31.94C148.662 32.6467 148.862 33.5 148.862 34.5V41H146.602V34.84C146.602 33.8533 146.356 33.1 145.862 32.58C145.369 32.0467 144.696 31.78 143.842 31.78C142.989 31.78 142.309 32.0467 141.802 32.58C141.309 33.1 141.062 33.8533 141.062 34.84V41H138.802V34.84C138.802 33.8533 138.556 33.1 138.062 32.58C137.569 32.0467 136.896 31.78 136.042 31.78C135.189 31.78 134.509 32.0467 134.002 32.58C133.509 33.1 133.262 33.8533 133.262 34.84V41H130.982V29.98H133.262V31.24C133.636 30.7867 134.109 30.4333 134.682 30.18C135.256 29.9267 135.869 29.8 136.522 29.8C137.402 29.8 138.189 29.9867 138.882 30.36C139.576 30.7333 140.109 31.2733 140.482 31.98C140.816 31.3133 141.336 30.7867 142.042 30.4C142.749 30 143.509 29.8 144.322 29.8ZM164.359 22.12L158.919 44.5H156.679L162.099 22.12H164.359ZM185.768 29.8C186.634 29.8 187.408 29.98 188.088 30.34C188.781 30.7 189.321 31.2333 189.708 31.94C190.108 32.6467 190.308 33.5 190.308 34.5V41H188.048V34.84C188.048 33.8533 187.801 33.1 187.308 32.58C186.814 32.0467 186.141 31.78 185.288 31.78C184.434 31.78 183.754 32.0467 183.248 32.58C182.754 33.1 182.508 33.8533 182.508 34.84V41H180.248V34.84C180.248 33.8533 180.001 33.1 179.508 32.58C179.014 32.0467 178.341 31.78 177.488 31.78C176.634 31.78 175.954 32.0467 175.448 32.58C174.954 33.1 174.708 33.8533 174.708 34.84V41H172.428V29.98H174.708V31.24C175.081 30.7867 175.554 30.4333 176.128 30.18C176.701 29.9267 177.314 29.8 177.968 29.8C178.848 29.8 179.634 29.9867 180.328 30.36C181.021 30.7333 181.554 31.2733 181.928 31.98C182.261 31.3133 182.781 30.7867 183.488 30.4C184.194 30 184.954 29.8 185.768 29.8ZM197.844 44.72V44.5C199.218 43.0867 200.264 41.44 200.984 39.56C201.704 37.68 202.064 35.7333 202.064 33.72C202.064 31.6267 201.678 29.5933 200.904 27.62C200.131 25.6467 198.978 23.9533 197.444 22.54V22.32H199.804C201.271 23.6267 202.378 25.2867 203.124 27.3C203.884 29.3133 204.264 31.4533 204.264 33.72C204.264 35.9333 203.911 38.0067 203.204 39.94C202.511 41.8733 201.511 43.4667 200.204 44.72H197.844Z" fill="black"/>
<path d="M7.86176 21.83H34.2768V43.835H7.86176V21.83ZM28.3368 26.6H13.8018V39.11H28.3368V26.6Z" fill="black"/>
</svg>
