<svg width="189" height="68" viewBox="0 0 189 68" fill="none" xmlns="http://www.w3.org/2000/svg">
<path d="M79.9814 44.72C78.6747 43.4667 77.6681 41.8733 76.9614 39.94C76.2681 38.0067 75.9214 35.9333 75.9214 33.72C75.9214 31.4533 76.2947 29.3133 77.0414 27.3C77.8014 25.2867 78.9147 23.6267 80.3814 22.32H82.7414V22.54C81.2081 23.9533 80.0547 25.6467 79.2814 27.62C78.5081 29.5933 78.1214 31.6267 78.1214 33.72C78.1214 35.7333 78.4814 37.68 79.2014 39.56C79.9214 41.44 80.9681 43.0867 82.3414 44.5V44.72H79.9814ZM90.3452 29.8C91.2118 29.8 91.9852 29.98 92.6652 30.34C93.3585 30.7 93.8985 31.2333 94.2852 31.94C94.6718 32.6467 94.8652 33.5 94.8652 34.5V41H92.6052V34.84C92.6052 33.8533 92.3585 33.1 91.8652 32.58C91.3718 32.0467 90.6985 31.78 89.8452 31.78C88.9918 31.78 88.3118 32.0467 87.8052 32.58C87.3118 33.1 87.0652 33.8533 87.0652 34.84V41H84.7852V29.98H87.0652V31.24C87.4385 30.7867 87.9118 30.4333 88.4852 30.18C89.0718 29.9267 89.6918 29.8 90.3452 29.8ZM98.9334 28.52C98.5201 28.52 98.1734 28.38 97.8934 28.1C97.6134 27.82 97.4734 27.4733 97.4734 27.06C97.4734 26.6467 97.6134 26.3 97.8934 26.02C98.1734 25.74 98.5201 25.6 98.9334 25.6C99.3334 25.6 99.6734 25.74 99.9534 26.02C100.233 26.3 100.373 26.6467 100.373 27.06C100.373 27.4733 100.233 27.82 99.9534 28.1C99.6734 28.38 99.3334 28.52 98.9334 28.52ZM100.053 29.98V41H97.7734V29.98H100.053ZM113.147 35.22C113.147 35.6333 113.12 36.0067 113.067 36.34H104.647C104.714 37.22 105.04 37.9267 105.627 38.46C106.214 38.9933 106.934 39.26 107.787 39.26C109.014 39.26 109.88 38.7467 110.387 37.72H112.847C112.514 38.7333 111.907 39.5667 111.027 40.22C110.16 40.86 109.08 41.18 107.787 41.18C106.734 41.18 105.787 40.9467 104.947 40.48C104.12 40 103.467 39.3333 102.987 38.48C102.52 37.6133 102.287 36.6133 102.287 35.48C102.287 34.3467 102.514 33.3533 102.967 32.5C103.434 31.6333 104.08 30.9667 104.907 30.5C105.747 30.0333 106.707 29.8 107.787 29.8C108.827 29.8 109.754 30.0267 110.567 30.48C111.38 30.9333 112.014 31.5733 112.467 32.4C112.92 33.2133 113.147 34.1533 113.147 35.22ZM110.767 34.5C110.754 33.66 110.454 32.9867 109.867 32.48C109.28 31.9733 108.554 31.72 107.687 31.72C106.9 31.72 106.227 31.9733 105.667 32.48C105.107 32.9733 104.774 33.6467 104.667 34.5H110.767ZM125.371 29.98V41H123.091V39.7C122.731 40.1533 122.257 40.5133 121.671 40.78C121.097 41.0333 120.484 41.16 119.831 41.16C118.964 41.16 118.184 40.98 117.491 40.62C116.811 40.26 116.271 39.7267 115.871 39.02C115.484 38.3133 115.291 37.46 115.291 36.46V29.98H117.551V36.12C117.551 37.1067 117.797 37.8667 118.291 38.4C118.784 38.92 119.457 39.18 120.311 39.18C121.164 39.18 121.837 38.92 122.331 38.4C122.837 37.8667 123.091 37.1067 123.091 36.12V29.98H125.371ZM133.939 29.8C134.806 29.8 135.579 29.98 136.259 30.34C136.952 30.7 137.492 31.2333 137.879 31.94C138.266 32.6467 138.459 33.5 138.459 34.5V41H136.199V34.84C136.199 33.8533 135.952 33.1 135.459 32.58C134.966 32.0467 134.292 31.78 133.439 31.78C132.586 31.78 131.906 32.0467 131.399 32.58C130.906 33.1 130.659 33.8533 130.659 34.84V41H128.379V29.98H130.659V31.24C131.032 30.7867 131.506 30.4333 132.079 30.18C132.666 29.9267 133.286 29.8 133.939 29.8ZM153.963 22.12L148.523 44.5H146.283L151.703 22.12H153.963ZM167.591 29.8C168.458 29.8 169.231 29.98 169.911 30.34C170.605 30.7 171.145 31.2333 171.531 31.94C171.918 32.6467 172.111 33.5 172.111 34.5V41H169.851V34.84C169.851 33.8533 169.605 33.1 169.111 32.58C168.618 32.0467 167.945 31.78 167.091 31.78C166.238 31.78 165.558 32.0467 165.051 32.58C164.558 33.1 164.311 33.8533 164.311 34.84V41H162.031V29.98H164.311V31.24C164.685 30.7867 165.158 30.4333 165.731 30.18C166.318 29.9267 166.938 29.8 167.591 29.8ZM179.655 44.72V44.5C181.028 43.0867 182.075 41.44 182.795 39.56C183.515 37.68 183.875 35.7333 183.875 33.72C183.875 31.6267 183.488 29.5933 182.715 27.62C181.942 25.6467 180.788 23.9533 179.255 22.54V22.32H181.615C183.082 23.6267 184.188 25.2867 184.935 27.3C185.695 29.3133 186.075 31.4533 186.075 33.72C186.075 35.9333 185.722 38.0067 185.015 39.94C184.322 41.8733 183.322 43.4667 182.015 44.72H179.655Z" fill="black"/>
<path d="M7.81676 38.75H34.5918V43.52H7.81676V38.75ZM7.81676 21.74H13.8018V40.55H7.81676V21.74Z" fill="black"/>
</svg>
