<svg width="202" height="68" viewBox="0 0 202 68" fill="none" xmlns="http://www.w3.org/2000/svg">
<path d="M78.6377 44.72C77.331 43.4667 76.3243 41.8733 75.6177 39.94C74.9243 38.0067 74.5777 35.9333 74.5777 33.72C74.5777 31.4533 74.951 29.3133 75.6977 27.3C76.4577 25.2867 77.571 23.6267 79.0377 22.32H81.3977V22.54C79.8643 23.9533 78.711 25.6467 77.9377 27.62C77.1643 29.5933 76.7777 31.6267 76.7777 33.72C76.7777 35.7333 77.1377 37.68 77.8577 39.56C78.5777 41.44 79.6243 43.0867 80.9977 44.5V44.72H78.6377ZM85.7214 31.6C86.1081 31.0933 86.6347 30.6667 87.3014 30.32C87.9681 29.9733 88.7214 29.8 89.5614 29.8C90.5214 29.8 91.3947 30.04 92.1814 30.52C92.9814 30.9867 93.6081 31.6467 94.0614 32.5C94.5147 33.3533 94.7414 34.3333 94.7414 35.44C94.7414 36.5467 94.5147 37.54 94.0614 38.42C93.6081 39.2867 92.9814 39.9667 92.1814 40.46C91.3947 40.94 90.5214 41.18 89.5614 41.18C88.7214 41.18 87.9747 41.0133 87.3214 40.68C86.6681 40.3333 86.1347 39.9067 85.7214 39.4V46.24H83.4414V29.98H85.7214V31.6ZM92.4214 35.44C92.4214 34.68 92.2614 34.0267 91.9414 33.48C91.6347 32.92 91.2214 32.5 90.7014 32.22C90.1947 31.9267 89.6481 31.78 89.0614 31.78C88.4881 31.78 87.9414 31.9267 87.4214 32.22C86.9147 32.5133 86.5014 32.94 86.1814 33.5C85.8747 34.06 85.7214 34.72 85.7214 35.48C85.7214 36.24 85.8747 36.9067 86.1814 37.48C86.5014 38.04 86.9147 38.4667 87.4214 38.76C87.9414 39.0533 88.4881 39.2 89.0614 39.2C89.6481 39.2 90.1947 39.0533 90.7014 38.76C91.2214 38.4533 91.6347 38.0133 91.9414 37.44C92.2614 36.8667 92.4214 36.2 92.4214 35.44ZM98.1561 28.52C97.7428 28.52 97.3961 28.38 97.1161 28.1C96.8361 27.82 96.6961 27.4733 96.6961 27.06C96.6961 26.6467 96.8361 26.3 97.1161 26.02C97.3961 25.74 97.7428 25.6 98.1561 25.6C98.5561 25.6 98.8961 25.74 99.1761 26.02C99.4561 26.3 99.5961 26.6467 99.5961 27.06C99.5961 27.4733 99.4561 27.82 99.1761 28.1C98.8961 28.38 98.5561 28.52 98.1561 28.52ZM99.2761 29.98V41H96.9961V29.98H99.2761ZM112.37 35.22C112.37 35.6333 112.343 36.0067 112.29 36.34H103.87C103.936 37.22 104.263 37.9267 104.85 38.46C105.436 38.9933 106.156 39.26 107.01 39.26C108.236 39.26 109.103 38.7467 109.61 37.72H112.07C111.736 38.7333 111.13 39.5667 110.25 40.22C109.383 40.86 108.303 41.18 107.01 41.18C105.956 41.18 105.01 40.9467 104.17 40.48C103.343 40 102.69 39.3333 102.21 38.48C101.743 37.6133 101.51 36.6133 101.51 35.48C101.51 34.3467 101.736 33.3533 102.19 32.5C102.656 31.6333 103.303 30.9667 104.13 30.5C104.97 30.0333 105.93 29.8 107.01 29.8C108.05 29.8 108.976 30.0267 109.79 30.48C110.603 30.9333 111.236 31.5733 111.69 32.4C112.143 33.2133 112.37 34.1533 112.37 35.22ZM109.99 34.5C109.976 33.66 109.676 32.9867 109.09 32.48C108.503 31.9733 107.776 31.72 106.91 31.72C106.123 31.72 105.45 31.9733 104.89 32.48C104.33 32.9733 103.996 33.6467 103.89 34.5H109.99ZM124.593 29.98V41H122.313V39.7C121.953 40.1533 121.48 40.5133 120.893 40.78C120.32 41.0333 119.707 41.16 119.053 41.16C118.187 41.16 117.407 40.98 116.713 40.62C116.033 40.26 115.493 39.7267 115.093 39.02C114.707 38.3133 114.513 37.46 114.513 36.46V29.98H116.773V36.12C116.773 37.1067 117.02 37.8667 117.513 38.4C118.007 38.92 118.68 39.18 119.533 39.18C120.387 39.18 121.06 38.92 121.553 38.4C122.06 37.8667 122.313 37.1067 122.313 36.12V29.98H124.593ZM129.882 31.6C130.268 31.0933 130.795 30.6667 131.462 30.32C132.128 29.9733 132.882 29.8 133.722 29.8C134.682 29.8 135.555 30.04 136.342 30.52C137.142 30.9867 137.768 31.6467 138.222 32.5C138.675 33.3533 138.902 34.3333 138.902 35.44C138.902 36.5467 138.675 37.54 138.222 38.42C137.768 39.2867 137.142 39.9667 136.342 40.46C135.555 40.94 134.682 41.18 133.722 41.18C132.882 41.18 132.135 41.0133 131.482 40.68C130.828 40.3333 130.295 39.9067 129.882 39.4V46.24H127.602V29.98H129.882V31.6ZM136.582 35.44C136.582 34.68 136.422 34.0267 136.102 33.48C135.795 32.92 135.382 32.5 134.862 32.22C134.355 31.9267 133.808 31.78 133.222 31.78C132.648 31.78 132.102 31.9267 131.582 32.22C131.075 32.5133 130.662 32.94 130.342 33.5C130.035 34.06 129.882 34.72 129.882 35.48C129.882 36.24 130.035 36.9067 130.342 37.48C130.662 38.04 131.075 38.4667 131.582 38.76C132.102 39.0533 132.648 39.2 133.222 39.2C133.808 39.2 134.355 39.0533 134.862 38.76C135.382 38.4533 135.795 38.0133 136.102 37.44C136.422 36.8667 136.582 36.2 136.582 35.44ZM153.752 22.12L148.312 44.5H146.072L151.492 22.12H153.752ZM164.1 31.6C164.487 31.0933 165.014 30.6667 165.68 30.32C166.347 29.9733 167.1 29.8 167.94 29.8C168.9 29.8 169.774 30.04 170.56 30.52C171.36 30.9867 171.987 31.6467 172.44 32.5C172.894 33.3533 173.12 34.3333 173.12 35.44C173.12 36.5467 172.894 37.54 172.44 38.42C171.987 39.2867 171.36 39.9667 170.56 40.46C169.774 40.94 168.9 41.18 167.94 41.18C167.1 41.18 166.354 41.0133 165.7 40.68C165.047 40.3333 164.514 39.9067 164.1 39.4V46.24H161.82V29.98H164.1V31.6ZM170.8 35.44C170.8 34.68 170.64 34.0267 170.32 33.48C170.014 32.92 169.6 32.5 169.08 32.22C168.574 31.9267 168.027 31.78 167.44 31.78C166.867 31.78 166.32 31.9267 165.8 32.22C165.294 32.5133 164.88 32.94 164.56 33.5C164.254 34.06 164.1 34.72 164.1 35.48C164.1 36.24 164.254 36.9067 164.56 37.48C164.88 38.04 165.294 38.4667 165.8 38.76C166.32 39.0533 166.867 39.2 167.44 39.2C168.027 39.2 168.574 39.0533 169.08 38.76C169.6 38.4533 170.014 38.0133 170.32 37.44C170.64 36.8667 170.8 36.2 170.8 35.44ZM181.075 29.8C181.915 29.8 182.662 29.98 183.315 30.34C183.982 30.7 184.502 31.2333 184.875 31.94C185.262 32.6467 185.455 33.5 185.455 34.5V41H183.195V34.84C183.195 33.8533 182.948 33.1 182.455 32.58C181.962 32.0467 181.288 31.78 180.435 31.78C179.582 31.78 178.902 32.0467 178.395 32.58C177.902 33.1 177.655 33.8533 177.655 34.84V41H175.375V26.2H177.655V31.26C178.042 30.7933 178.528 30.4333 179.115 30.18C179.715 29.9267 180.368 29.8 181.075 29.8ZM192.999 44.72V44.5C194.372 43.0867 195.419 41.44 196.139 39.56C196.859 37.68 197.219 35.7333 197.219 33.72C197.219 31.6267 196.832 29.5933 196.059 27.62C195.285 25.6467 194.132 23.9533 192.599 22.54V22.32H194.959C196.425 23.6267 197.532 25.2867 198.279 27.3C199.039 29.3133 199.419 31.4533 199.419 33.72C199.419 35.9333 199.065 38.0067 198.359 39.94C197.665 41.8733 196.665 43.4667 195.359 44.72H192.999Z" fill="black"/>
<path d="M7.54676 21.515H34.6368V26.285H7.54676V21.515ZM6.96176 39.785H35.2668V44.555H6.96176V39.785ZM11.6418 25.385H17.5818V41.63H11.6418V25.385ZM24.6918 25.385H30.6318V41.63H24.6918V25.385Z" fill="black"/>
</svg>
