<svg width="194" height="68" viewBox="0 0 194 68" fill="none" xmlns="http://www.w3.org/2000/svg">
<path d="M77.6826 44.72C76.3759 43.4667 75.3692 41.8733 74.6626 39.94C73.9692 38.0067 73.6226 35.9333 73.6226 33.72C73.6226 31.4533 73.9959 29.3133 74.7426 27.3C75.5026 25.2867 76.6159 23.6267 78.0826 22.32H80.4426V22.54C78.9092 23.9533 77.7559 25.6467 76.9826 27.62C76.2092 29.5933 75.8226 31.6267 75.8226 33.72C75.8226 35.7333 76.1826 37.68 76.9026 39.56C77.6226 41.44 78.6692 43.0867 80.0426 44.5V44.72H77.6826ZM84.7663 31.58C85.0997 31.02 85.5397 30.5867 86.0863 30.28C86.6463 29.96 87.3063 29.8 88.0663 29.8V32.16H87.4863C86.593 32.16 85.913 32.3867 85.4463 32.84C84.993 33.2933 84.7663 34.08 84.7663 35.2V41H82.4863V29.98H84.7663V31.58ZM91.3221 28.52C90.9088 28.52 90.5621 28.38 90.2821 28.1C90.0021 27.82 89.8621 27.4733 89.8621 27.06C89.8621 26.6467 90.0021 26.3 90.2821 26.02C90.5621 25.74 90.9088 25.6 91.3221 25.6C91.7221 25.6 92.0621 25.74 92.3421 26.02C92.6221 26.3 92.7621 26.6467 92.7621 27.06C92.7621 27.4733 92.6221 27.82 92.3421 28.1C92.0621 28.38 91.7221 28.52 91.3221 28.52ZM92.4421 29.98V41H90.1621V29.98H92.4421ZM105.536 35.22C105.536 35.6333 105.509 36.0067 105.456 36.34H97.0355C97.1022 37.22 97.4289 37.9267 98.0155 38.46C98.6022 38.9933 99.3222 39.26 100.176 39.26C101.402 39.26 102.269 38.7467 102.776 37.72H105.236C104.902 38.7333 104.296 39.5667 103.416 40.22C102.549 40.86 101.469 41.18 100.176 41.18C99.1222 41.18 98.1755 40.9467 97.3355 40.48C96.5089 40 95.8555 39.3333 95.3755 38.48C94.9089 37.6133 94.6755 36.6133 94.6755 35.48C94.6755 34.3467 94.9022 33.3533 95.3555 32.5C95.8222 31.6333 96.4689 30.9667 97.2955 30.5C98.1355 30.0333 99.0955 29.8 100.176 29.8C101.216 29.8 102.142 30.0267 102.956 30.48C103.769 30.9333 104.402 31.5733 104.856 32.4C105.309 33.2133 105.536 34.1533 105.536 35.22ZM103.156 34.5C103.142 33.66 102.842 32.9867 102.256 32.48C101.669 31.9733 100.942 31.72 100.076 31.72C99.2889 31.72 98.6155 31.9733 98.0555 32.48C97.4955 32.9733 97.1622 33.6467 97.0555 34.5H103.156ZM117.759 29.98V41H115.479V39.7C115.119 40.1533 114.646 40.5133 114.059 40.78C113.486 41.0333 112.873 41.16 112.219 41.16C111.353 41.16 110.573 40.98 109.879 40.62C109.199 40.26 108.659 39.7267 108.259 39.02C107.873 38.3133 107.679 37.46 107.679 36.46V29.98H109.939V36.12C109.939 37.1067 110.186 37.8667 110.679 38.4C111.173 38.92 111.846 39.18 112.699 39.18C113.553 39.18 114.226 38.92 114.719 38.4C115.226 37.8667 115.479 37.1067 115.479 36.12V29.98H117.759ZM123.048 26.2V41H120.768V26.2H123.048ZM138.636 22.12L133.196 44.5H130.956L136.376 22.12H138.636ZM148.985 31.58C149.318 31.02 149.758 30.5867 150.305 30.28C150.865 29.96 151.525 29.8 152.285 29.8V32.16H151.705C150.812 32.16 150.132 32.3867 149.665 32.84C149.212 33.2933 148.985 34.08 148.985 35.2V41H146.705V29.98H148.985V31.58ZM166.976 22.12L161.536 44.5H159.296L164.716 22.12H166.976ZM177.325 26.2V41H175.045V26.2H177.325ZM184.954 44.72V44.5C186.327 43.0867 187.374 41.44 188.094 39.56C188.814 37.68 189.174 35.7333 189.174 33.72C189.174 31.6267 188.787 29.5933 188.014 27.62C187.24 25.6467 186.087 23.9533 184.554 22.54V22.32H186.914C188.38 23.6267 189.487 25.2867 190.234 27.3C190.994 29.3133 191.374 31.4533 191.374 33.72C191.374 35.9333 191.02 38.0067 190.314 39.94C189.62 41.8733 188.62 43.4667 187.314 44.72H184.954Z" fill="black"/>
<path d="M7.54676 21.155H34.0068V34.79H13.2618V41.9H7.59176V30.11H28.3368V25.88H7.54676V21.155ZM7.59176 39.29H34.6368V44.15H7.59176V39.29Z" fill="black"/>
</svg>
