<svg width="193" height="68" viewBox="0 0 193 68" fill="none" xmlns="http://www.w3.org/2000/svg">
<path d="M78.7959 44.72C77.4892 43.4667 76.4825 41.8733 75.7759 39.94C75.0825 38.0067 74.7359 35.9333 74.7359 33.72C74.7359 31.4533 75.1092 29.3133 75.8559 27.3C76.6159 25.2867 77.7292 23.6267 79.1959 22.32H81.5559V22.54C80.0225 23.9533 78.8692 25.6467 78.0959 27.62C77.3225 29.5933 76.9359 31.6267 76.9359 33.72C76.9359 35.7333 77.2959 37.68 78.0159 39.56C78.7359 41.44 79.7825 43.0867 81.1559 44.5V44.72H78.7959ZM87.5996 41.18C86.7329 41.18 85.9529 41.0267 85.2596 40.72C84.5796 40.4 84.0396 39.9733 83.6396 39.44C83.2396 38.8933 83.0263 38.2867 82.9996 37.62H85.3596C85.3996 38.0867 85.6196 38.48 86.0196 38.8C86.4329 39.1067 86.9463 39.26 87.5596 39.26C88.1996 39.26 88.6929 39.14 89.0396 38.9C89.3996 38.6467 89.5796 38.3267 89.5796 37.94C89.5796 37.5267 89.3796 37.22 88.9796 37.02C88.5929 36.82 87.9729 36.6 87.1196 36.36C86.2929 36.1333 85.6196 35.9133 85.0996 35.7C84.5796 35.4867 84.1263 35.16 83.7396 34.72C83.3663 34.28 83.1796 33.7 83.1796 32.98C83.1796 32.3933 83.3529 31.86 83.6996 31.38C84.0463 30.8867 84.5396 30.5 85.1796 30.22C85.8329 29.94 86.5796 29.8 87.4196 29.8C88.6729 29.8 89.6796 30.12 90.4396 30.76C91.2129 31.3867 91.6263 32.2467 91.6796 33.34H89.3996C89.3596 32.8467 89.1596 32.4533 88.7996 32.16C88.4396 31.8667 87.9529 31.72 87.3396 31.72C86.7396 31.72 86.2796 31.8333 85.9596 32.06C85.6396 32.2867 85.4796 32.5867 85.4796 32.96C85.4796 33.2533 85.5863 33.5 85.7996 33.7C86.0129 33.9 86.2729 34.06 86.5796 34.18C86.8863 34.2867 87.3396 34.4267 87.9396 34.6C88.7396 34.8133 89.3929 35.0333 89.8996 35.26C90.4196 35.4733 90.8663 35.7933 91.2396 36.22C91.6129 36.6467 91.8063 37.2133 91.8196 37.92C91.8196 38.5467 91.6463 39.1067 91.2996 39.6C90.9529 40.0933 90.4596 40.48 89.8196 40.76C89.1929 41.04 88.4529 41.18 87.5996 41.18ZM95.4432 28.52C95.0299 28.52 94.6832 28.38 94.4032 28.1C94.1232 27.82 93.9832 27.4733 93.9832 27.06C93.9832 26.6467 94.1232 26.3 94.4032 26.02C94.6832 25.74 95.0299 25.6 95.4432 25.6C95.8432 25.6 96.1832 25.74 96.4632 26.02C96.7432 26.3 96.8832 26.6467 96.8832 27.06C96.8832 27.4733 96.7432 27.82 96.4632 28.1C96.1832 28.38 95.8432 28.52 95.4432 28.52ZM96.5632 29.98V41H94.2832V29.98H96.5632ZM104.337 41.18C103.297 41.18 102.357 40.9467 101.517 40.48C100.677 40 100.017 39.3333 99.5366 38.48C99.0566 37.6133 98.8166 36.6133 98.8166 35.48C98.8166 34.36 99.0633 33.3667 99.5566 32.5C100.05 31.6333 100.723 30.9667 101.577 30.5C102.43 30.0333 103.383 29.8 104.437 29.8C105.49 29.8 106.443 30.0333 107.297 30.5C108.15 30.9667 108.823 31.6333 109.317 32.5C109.81 33.3667 110.057 34.36 110.057 35.48C110.057 36.6 109.803 37.5933 109.297 38.46C108.79 39.3267 108.097 40 107.217 40.48C106.35 40.9467 105.39 41.18 104.337 41.18ZM104.337 39.2C104.923 39.2 105.47 39.06 105.977 38.78C106.497 38.5 106.917 38.08 107.237 37.52C107.557 36.96 107.717 36.28 107.717 35.48C107.717 34.68 107.563 34.0067 107.257 33.46C106.95 32.9 106.543 32.48 106.037 32.2C105.53 31.92 104.983 31.78 104.397 31.78C103.81 31.78 103.263 31.92 102.757 32.2C102.263 32.48 101.87 32.9 101.577 33.46C101.283 34.0067 101.137 34.68 101.137 35.48C101.137 36.6667 101.437 37.5867 102.037 38.24C102.65 38.88 103.417 39.2 104.337 39.2ZM114.971 31.84V37.94C114.971 38.3533 115.064 38.6533 115.251 38.84C115.451 39.0133 115.784 39.1 116.251 39.1H117.651V41H115.851C114.824 41 114.037 40.76 113.491 40.28C112.944 39.8 112.671 39.02 112.671 37.94V31.84H111.371V29.98H112.671V27.24H114.971V29.98H117.651V31.84H114.971ZM132.347 22.12L126.907 44.5H124.667L130.087 22.12H132.347ZM144.416 41.18C143.549 41.18 142.769 41.0267 142.076 40.72C141.396 40.4 140.856 39.9733 140.456 39.44C140.056 38.8933 139.843 38.2867 139.816 37.62H142.176C142.216 38.0867 142.436 38.48 142.836 38.8C143.249 39.1067 143.763 39.26 144.376 39.26C145.016 39.26 145.509 39.14 145.856 38.9C146.216 38.6467 146.396 38.3267 146.396 37.94C146.396 37.5267 146.196 37.22 145.796 37.02C145.409 36.82 144.789 36.6 143.936 36.36C143.109 36.1333 142.436 35.9133 141.916 35.7C141.396 35.4867 140.943 35.16 140.556 34.72C140.183 34.28 139.996 33.7 139.996 32.98C139.996 32.3933 140.169 31.86 140.516 31.38C140.863 30.8867 141.356 30.5 141.996 30.22C142.649 29.94 143.396 29.8 144.236 29.8C145.489 29.8 146.496 30.12 147.256 30.76C148.029 31.3867 148.443 32.2467 148.496 33.34H146.216C146.176 32.8467 145.976 32.4533 145.616 32.16C145.256 31.8667 144.769 31.72 144.156 31.72C143.556 31.72 143.096 31.8333 142.776 32.06C142.456 32.2867 142.296 32.5867 142.296 32.96C142.296 33.2533 142.403 33.5 142.616 33.7C142.829 33.9 143.089 34.06 143.396 34.18C143.703 34.2867 144.156 34.4267 144.756 34.6C145.556 34.8133 146.209 35.0333 146.716 35.26C147.236 35.4733 147.683 35.7933 148.056 36.22C148.429 36.6467 148.623 37.2133 148.636 37.92C148.636 38.5467 148.463 39.1067 148.116 39.6C147.769 40.0933 147.276 40.48 146.636 40.76C146.009 41.04 145.269 41.18 144.416 41.18ZM163.695 22.12L158.255 44.5H156.015L161.435 22.12H163.695ZM174.424 31.84V37.94C174.424 38.3533 174.517 38.6533 174.704 38.84C174.904 39.0133 175.237 39.1 175.704 39.1H177.104V41H175.304C174.277 41 173.49 40.76 172.944 40.28C172.397 39.8 172.124 39.02 172.124 37.94V31.84H170.824V29.98H172.124V27.24H174.424V29.98H177.104V31.84H174.424ZM183.84 44.72V44.5C185.214 43.0867 186.26 41.44 186.98 39.56C187.7 37.68 188.06 35.7333 188.06 33.72C188.06 31.6267 187.674 29.5933 186.9 27.62C186.127 25.6467 184.974 23.9533 183.44 22.54V22.32H185.8C187.267 23.6267 188.374 25.2867 189.12 27.3C189.88 29.3133 190.26 31.4533 190.26 33.72C190.26 35.9333 189.907 38.0067 189.2 39.94C188.507 41.8733 187.507 43.4667 186.2 44.72H183.84Z" fill="black"/>
<path d="M18.0768 21.02H23.1168V27.185C23.1168 36.05 18.3468 42.62 8.71676 44.915L5.88176 40.145C14.3868 38.39 18.0768 33.215 18.0768 27.185V21.02ZM18.9768 21.02H24.0168V27.185C24.0168 33.215 27.7068 38.39 36.2118 40.145L33.3768 44.915C23.7468 42.62 18.9768 36.05 18.9768 27.185V21.02Z" fill="black"/>
</svg>
