<svg width="188" height="68" viewBox="0 0 188 68" fill="none" xmlns="http://www.w3.org/2000/svg">
<path d="M82.8076 44.72C81.5009 43.4667 80.4942 41.8733 79.7876 39.94C79.0942 38.0067 78.7476 35.9333 78.7476 33.72C78.7476 31.4533 79.1209 29.3133 79.8676 27.3C80.6276 25.2867 81.7409 23.6267 83.2076 22.32H85.5676V22.54C84.0342 23.9533 82.8809 25.6467 82.1076 27.62C81.3342 29.5933 80.9476 31.6267 80.9476 33.72C80.9476 35.7333 81.3076 37.68 82.0276 39.56C82.7476 41.44 83.7942 43.0867 85.1676 44.5V44.72H82.8076ZM90.2713 31.84V37.94C90.2713 38.3533 90.3647 38.6533 90.5513 38.84C90.7513 39.0133 91.0847 39.1 91.5513 39.1H92.9513V41H91.1513C90.1247 41 89.338 40.76 88.7913 40.28C88.2447 39.8 87.9713 39.02 87.9713 37.94V31.84H86.6713V29.98H87.9713V27.24H90.2713V29.98H92.9513V31.84H90.2713ZM96.2127 28.52C95.7994 28.52 95.4527 28.38 95.1727 28.1C94.8927 27.82 94.7527 27.4733 94.7527 27.06C94.7527 26.6467 94.8927 26.3 95.1727 26.02C95.4527 25.74 95.7994 25.6 96.2127 25.6C96.6127 25.6 96.9527 25.74 97.2327 26.02C97.5127 26.3 97.6527 26.6467 97.6527 27.06C97.6527 27.4733 97.5127 27.82 97.2327 28.1C96.9527 28.38 96.6127 28.52 96.2127 28.52ZM97.3327 29.98V41H95.0527V29.98H97.3327ZM110.426 35.22C110.426 35.6333 110.4 36.0067 110.346 36.34H101.926C101.993 37.22 102.32 37.9267 102.906 38.46C103.493 38.9933 104.213 39.26 105.066 39.26C106.293 39.26 107.16 38.7467 107.666 37.72H110.126C109.793 38.7333 109.186 39.5667 108.306 40.22C107.44 40.86 106.36 41.18 105.066 41.18C104.013 41.18 103.066 40.9467 102.226 40.48C101.4 40 100.746 39.3333 100.266 38.48C99.7995 37.6133 99.5662 36.6133 99.5662 35.48C99.5662 34.3467 99.7928 33.3533 100.246 32.5C100.713 31.6333 101.36 30.9667 102.186 30.5C103.026 30.0333 103.986 29.8 105.066 29.8C106.106 29.8 107.033 30.0267 107.846 30.48C108.66 30.9333 109.293 31.5733 109.746 32.4C110.2 33.2133 110.426 34.1533 110.426 35.22ZM108.046 34.5C108.033 33.66 107.733 32.9867 107.146 32.48C106.56 31.9733 105.833 31.72 104.966 31.72C104.18 31.72 103.506 31.9733 102.946 32.48C102.386 32.9733 102.053 33.6467 101.946 34.5H108.046ZM122.65 29.98V41H120.37V39.7C120.01 40.1533 119.537 40.5133 118.95 40.78C118.377 41.0333 117.763 41.16 117.11 41.16C116.243 41.16 115.463 40.98 114.77 40.62C114.09 40.26 113.55 39.7267 113.15 39.02C112.763 38.3133 112.57 37.46 112.57 36.46V29.98H114.83V36.12C114.83 37.1067 115.077 37.8667 115.57 38.4C116.063 38.92 116.737 39.18 117.59 39.18C118.443 39.18 119.117 38.92 119.61 38.4C120.117 37.8667 120.37 37.1067 120.37 36.12V29.98H122.65ZM128.318 31.84V37.94C128.318 38.3533 128.412 38.6533 128.598 38.84C128.798 39.0133 129.132 39.1 129.598 39.1H130.998V41H129.198C128.172 41 127.385 40.76 126.838 40.28C126.292 39.8 126.018 39.02 126.018 37.94V31.84H124.718V29.98H126.018V27.24H128.318V29.98H130.998V31.84H128.318ZM145.695 22.12L140.255 44.5H138.015L143.435 22.12H145.695ZM156.424 31.84V37.94C156.424 38.3533 156.517 38.6533 156.704 38.84C156.904 39.0133 157.237 39.1 157.704 39.1H159.104V41H157.304C156.277 41 155.49 40.76 154.944 40.28C154.397 39.8 154.124 39.02 154.124 37.94V31.84H152.824V29.98H154.124V27.24H156.424V29.98H159.104V31.84H156.424ZM166.905 29.8C167.745 29.8 168.492 29.98 169.145 30.34C169.812 30.7 170.332 31.2333 170.705 31.94C171.092 32.6467 171.285 33.5 171.285 34.5V41H169.025V34.84C169.025 33.8533 168.778 33.1 168.285 32.58C167.792 32.0467 167.118 31.78 166.265 31.78C165.412 31.78 164.732 32.0467 164.225 32.58C163.732 33.1 163.485 33.8533 163.485 34.84V41H161.205V26.2H163.485V31.26C163.872 30.7933 164.358 30.4333 164.945 30.18C165.545 29.9267 166.198 29.8 166.905 29.8ZM178.829 44.72V44.5C180.202 43.0867 181.249 41.44 181.969 39.56C182.689 37.68 183.049 35.7333 183.049 33.72C183.049 31.6267 182.662 29.5933 181.889 27.62C181.115 25.6467 179.962 23.9533 178.429 22.54V22.32H180.789C182.255 23.6267 183.362 25.2867 184.109 27.3C184.869 29.3133 185.249 31.4533 185.249 33.72C185.249 35.9333 184.895 38.0067 184.189 39.94C183.495 41.8733 182.495 43.4667 181.189 44.72H178.829Z" fill="black"/>
<path d="M7.77176 21.515H34.1418V26.285H13.7568V41.945H7.77176V21.515ZM7.77176 39.47H34.5018V44.24H7.77176V39.47ZM8.98676 30.335H33.7818V35.105H8.98676V30.335Z" fill="black"/>
</svg>
